<svg width="275" height="120" viewBox="0 0 275 120" fill="none" xmlns="http://www.w3.org/2000/svg">
<g clip-path="url(#clip0_4344:25546)">
<path d="M125.019 69.9375V88.2218H143.303V69.9375H125.019Z" fill="#6D6E71" fill-opacity="0.333333" stroke="#1E0638" stroke-width="2.28554" stroke-linejoin="round"/>
<path d="M149.246 69.9375V88.2218H167.53V69.9375H149.246Z" fill="#6D6E71" fill-opacity="0.333333" stroke="#1E0638" stroke-width="2.28554" stroke-linejoin="round"/>
<path d="M173.473 69.9375V88.2218H191.757V69.9375H173.473Z" fill="#6D6E71" fill-opacity="0.333333" stroke="#1E0638" stroke-width="2.28554" stroke-linejoin="round"/>
<path d="M128.219 73.137V91.4213H146.504V73.137H128.219Z" fill="#6D6E71" fill-opacity="0.333333" stroke="#280049" stroke-width="2.28554" stroke-linejoin="round"/>
<path d="M152.445 73.137V91.4213H170.729V73.137H152.445Z" fill="#6D6E71" fill-opacity="0.333333" stroke="#280049" stroke-width="2.28554" stroke-linejoin="round"/>
<path d="M176.672 73.137V91.4213H194.957V73.137H176.672Z" fill="#6D6E71" fill-opacity="0.333333" stroke="#280049" stroke-width="2.28554" stroke-linejoin="round"/>
<path d="M181.989 83.1082L184.841 78.6697V78.6263H182.395C182.324 78.6233 182.257 78.5927 182.209 78.541C182.16 78.4893 182.134 78.4207 182.135 78.3497V77.9863C182.133 77.9509 182.139 77.9156 182.151 77.8824C182.164 77.8492 182.182 77.8188 182.207 77.793C182.231 77.7673 182.26 77.7466 182.293 77.7323C182.325 77.718 182.36 77.7103 182.395 77.7098H186.052C186.1 77.705 186.149 77.7137 186.192 77.7349C186.235 77.756 186.272 77.7888 186.298 77.8296C186.324 77.8703 186.338 77.9175 186.338 77.9657C186.339 78.014 186.326 78.0615 186.301 78.1029L183.522 82.5688V82.6145H185.762C185.799 82.6129 185.835 82.6189 185.869 82.6321C185.903 82.6453 185.934 82.6654 185.96 82.6912C185.986 82.7169 186.007 82.7478 186.02 82.7818C186.034 82.8158 186.04 82.8522 186.038 82.8888V83.2545C186.038 83.3278 186.009 83.3982 185.958 83.45C185.906 83.5019 185.835 83.531 185.762 83.531H182.27C182.197 83.5282 182.128 83.4982 182.077 83.4469C182.026 83.3956 181.996 83.3269 181.993 83.2545L181.989 83.1082Z" fill="#E7AA27" stroke="#E7AA27" stroke-width="0.971355" stroke-miterlimit="10"/>
<path d="M135.271 80.7866L133.425 78.3136C133.278 78.1239 133.365 77.9365 133.614 77.9365H134.225C134.269 77.9376 134.313 77.9487 134.352 77.9689C134.392 77.989 134.426 78.0178 134.453 78.0531L135.825 80.0301H135.838L137.278 78.0531C137.305 78.0181 137.34 77.9894 137.379 77.9693C137.419 77.9492 137.462 77.938 137.507 77.9365H138.119C138.366 77.9365 138.453 78.1239 138.307 78.3136L136.46 80.7729L138.323 83.3784C138.453 83.5658 138.366 83.7555 138.133 83.7555H137.594C137.55 83.7501 137.509 83.7357 137.471 83.7133C137.434 83.6909 137.402 83.6609 137.376 83.6252L135.834 81.486H135.82L134.328 83.6298C134.3 83.6647 134.266 83.6932 134.226 83.7134C134.187 83.7335 134.143 83.7448 134.099 83.7464H133.56C133.313 83.7464 133.24 83.5567 133.37 83.3693L135.271 80.7866Z" fill="#E7AA27" stroke="#E7AA27" stroke-width="0.971355" stroke-miterlimit="10"/>
<path d="M157.334 78.1083C157.258 78.0078 157.334 77.9369 157.521 77.9369H158.07C158.109 77.9347 158.148 77.9414 158.185 77.9564C158.221 77.9715 158.254 77.9945 158.28 78.0238L160.127 80.4053H160.138L161.884 78.0238C161.911 77.9955 161.944 77.9731 161.98 77.9581C162.016 77.9432 162.055 77.936 162.094 77.9369H162.57C162.755 77.9369 162.844 78.0146 162.755 78.1175L160.561 81.043L160.545 83.5022C160.517 83.5307 160.484 83.5534 160.448 83.5691C160.411 83.5848 160.372 83.5931 160.332 83.5936H159.875C159.688 83.5936 159.589 83.5091 159.676 83.3994L159.656 81.0453L157.334 78.1083Z" fill="#E7AA27" stroke="#E7AA27" stroke-width="0.971355" stroke-miterlimit="10"/>
<path d="M124.948 36.9884C124.946 36.8214 125.01 36.6603 125.125 36.5392C125.24 36.4181 125.398 36.3465 125.565 36.3394H133.221C139.817 36.3394 145.218 41.7058 145.218 48.2699C145.214 51.4503 143.948 54.4993 141.7 56.7482C139.451 58.9972 136.402 60.2625 133.221 60.2667H125.565C125.398 60.2596 125.24 60.1879 125.125 60.0668C125.01 59.9457 124.946 59.7847 124.948 59.6176V36.9884ZM132.673 57.908C138.279 57.908 142.347 53.9083 142.347 48.2699C142.347 42.6314 138.279 38.6706 132.673 38.6706H127.546V57.9149L132.673 57.908Z" fill="#E7AA27" stroke="#E7AA27" stroke-width="1.37133" stroke-miterlimit="10"/>
<path d="M165.246 37.6102C165.254 37.4514 165.322 37.3017 165.437 37.1926C165.552 37.0835 165.704 37.0234 165.862 37.0249H166.673L181.323 55.4009H181.388V37.973C181.389 37.8083 181.454 37.6505 181.57 37.5342C181.686 37.418 181.842 37.3527 182.006 37.3527H183.139C183.301 37.3581 183.455 37.4251 183.57 37.5402C183.684 37.6554 183.751 37.81 183.757 37.973V59.5202C183.751 59.6801 183.682 59.831 183.567 59.941C183.451 60.0509 183.298 60.1111 183.139 60.1088H182.554L167.645 41.8388H167.611V59.6179C167.612 59.6995 167.596 59.7803 167.565 59.8558C167.534 59.9312 167.489 59.9998 167.431 60.0576C167.374 60.1154 167.306 60.1612 167.231 60.1925C167.156 60.2238 167.076 60.2399 166.995 60.2399H165.862C165.7 60.2344 165.546 60.1672 165.431 60.0517C165.316 59.9362 165.25 59.7811 165.244 59.6179L165.246 37.6102Z" fill="#1E0638" stroke="#1E0638" stroke-width="2.05699" stroke-miterlimit="10"/>
<path d="M153.823 36.9884C153.829 36.8181 153.899 36.6563 154.019 36.5358C154.14 36.4153 154.302 36.3451 154.472 36.3394H155.843C156.013 36.3467 156.173 36.4177 156.292 36.5381C156.411 36.6584 156.48 36.8192 156.486 36.9884V59.6153C156.48 59.7857 156.41 59.9475 156.289 60.068C156.169 60.1885 156.007 60.2587 155.837 60.2644H154.465C154.295 60.2587 154.133 60.1885 154.013 60.068C153.892 59.9475 153.822 59.7857 153.816 59.6153L153.823 36.9884Z" fill="#1E0638" stroke="#1E0638" stroke-width="1.37133" stroke-miterlimit="10"/>
<path d="M204.713 35.6539C207.147 35.6471 209.528 36.3621 211.555 37.7085C213.582 39.0549 215.165 40.9722 216.102 43.218C217.04 45.4637 217.291 47.9371 216.823 50.3254C216.355 52.7136 215.189 54.9095 213.473 56.6353C211.757 58.3611 209.568 59.5394 207.183 60.0211C204.797 60.5028 202.322 60.2663 200.071 59.3416C197.82 58.4168 195.894 56.8453 194.536 54.8258C193.178 52.8063 192.449 50.4294 192.442 47.9958C192.434 46.3788 192.746 44.7762 193.359 43.2799C193.972 41.7836 194.874 40.423 196.014 39.2764C197.154 38.1297 198.51 37.2194 200.002 36.5977C201.495 35.9761 203.096 35.6553 204.713 35.6539V35.6539ZM204.713 57.8693C207.334 57.8639 209.847 56.8226 211.704 54.9722C213.561 53.1218 214.611 50.6125 214.625 47.9912C214.625 42.5585 210.148 38.0445 204.713 38.0445C199.278 38.0445 194.835 42.5585 194.835 47.9912C194.842 50.6088 195.885 53.1172 197.736 54.9681C199.587 56.819 202.095 57.8621 204.713 57.8693V57.8693Z" fill="#1E0638" stroke="#1E0638" stroke-width="1.37133" stroke-miterlimit="10"/>
<path d="M227.761 56.4525C228.018 56.4497 228.272 56.4983 228.51 56.5953C228.747 56.6924 228.963 56.8359 229.145 57.0175C229.326 57.1991 229.469 57.4152 229.566 57.6529C229.663 57.8907 229.711 58.1454 229.708 58.4021C229.708 58.9185 229.503 59.4138 229.138 59.779C228.773 60.1442 228.277 60.3493 227.761 60.3493C227.246 60.344 226.753 60.1372 226.389 59.7732C226.025 59.4093 225.817 58.9171 225.811 58.4021C225.811 58.146 225.861 57.8923 225.959 57.6556C226.057 57.419 226.201 57.2039 226.382 57.0229C226.563 56.8418 226.778 56.6982 227.014 56.6003C227.251 56.5024 227.505 56.4522 227.761 56.4525Z" fill="#231F20" stroke="#231F20" stroke-width="1.37133" stroke-miterlimit="10"/>
<path d="M238.388 36.9884C238.394 36.8181 238.464 36.6563 238.585 36.5358C238.705 36.4153 238.867 36.3451 239.037 36.3394H240.409C240.578 36.3467 240.738 36.4177 240.857 36.5381C240.976 36.6584 241.045 36.8192 241.051 36.9884V59.6153C241.045 59.7857 240.975 59.9475 240.854 60.068C240.734 60.1885 240.572 60.2587 240.402 60.2644H239.03C238.86 60.2587 238.698 60.1885 238.578 60.068C238.457 59.9475 238.387 59.7857 238.381 59.6153L238.388 36.9884Z" fill="#231F20" stroke="#231F20" stroke-width="1.37133" stroke-miterlimit="10"/>
<path d="M262.08 35.6539C264.514 35.6471 266.895 36.3621 268.922 37.7085C270.95 39.0549 272.532 40.9722 273.47 43.218C274.408 45.4637 274.658 47.9371 274.19 50.3254C273.722 52.7136 272.557 54.9095 270.841 56.6353C269.125 58.3611 266.936 59.5394 264.55 60.0211C262.165 60.5028 259.69 60.2663 257.439 59.3416C255.188 58.4168 253.261 56.8453 251.903 54.8258C250.545 52.8063 249.817 50.4294 249.809 47.9958C249.802 46.3788 250.113 44.7762 250.726 43.2799C251.339 41.7836 252.242 40.423 253.382 39.2764C254.522 38.1297 255.877 37.2194 257.37 36.5977C258.863 35.9761 260.463 35.6553 262.08 35.6539V35.6539ZM262.08 57.8693C264.702 57.8639 267.215 56.8226 269.071 54.9722C270.928 53.1218 271.978 50.6125 271.993 47.9912C271.993 42.5585 267.515 38.0445 262.08 38.0445C256.645 38.0445 252.202 42.5585 252.202 47.9912C252.21 50.6088 253.253 53.1172 255.104 54.9681C256.954 56.819 259.463 57.8621 262.08 57.8693V57.8693Z" fill="#231F20" stroke="#231F20" stroke-width="1.37133" stroke-miterlimit="10"/>
<path d="M38.0657 115.446C37.9693 115.447 37.8745 115.421 37.7914 115.372L0.27427 93.7124C0.190675 93.6644 0.12127 93.5952 0.0730997 93.5117C0.0249297 93.4282 -0.000292436 93.3334 2.55824e-06 93.237V49.9169C0.000171529 49.8206 0.0255899 49.726 0.0737135 49.6426C0.121837 49.5592 0.190987 49.4898 0.27427 49.4415C0.357234 49.3933 0.451462 49.3679 0.547394 49.3679C0.643327 49.3679 0.737548 49.3933 0.820511 49.4415L38.34 71.1541C38.4228 71.2022 38.4915 71.2712 38.5393 71.3543C38.587 71.4373 38.6121 71.5314 38.6119 71.6272V114.899C38.6116 114.995 38.5861 115.09 38.538 115.173C38.4899 115.256 38.4208 115.325 38.3377 115.372C38.2553 115.421 38.1613 115.446 38.0657 115.446V115.446Z" fill="#6D6E71" fill-opacity="0.333333" stroke="#1E0638" stroke-width="3.42831" stroke-miterlimit="10"/>
<path d="M69.9835 115.377C69.9004 115.329 69.8313 115.26 69.7832 115.177C69.7351 115.094 69.7096 115 69.7092 114.904V71.6272C69.7091 71.5312 69.7344 71.4368 69.7826 71.3537C69.8308 71.2706 69.9001 71.2017 69.9835 71.1541L107.501 49.4414C107.584 49.3933 107.678 49.3679 107.774 49.3679C107.87 49.3679 107.964 49.3933 108.047 49.4414C108.13 49.4898 108.199 49.5591 108.247 49.6426C108.296 49.726 108.321 49.8205 108.321 49.9168V93.2416C108.321 93.338 108.296 93.4327 108.248 93.5162C108.2 93.5997 108.131 93.669 108.047 93.717L70.5297 115.377C70.4467 115.425 70.3525 115.45 70.2566 115.45C70.1607 115.45 70.0665 115.425 69.9835 115.377V115.377Z" fill="#6D6E71" fill-opacity="0.333333" stroke="#1E0638" stroke-width="3.42831" stroke-miterlimit="10"/>
<path d="M54.2916 44.4437C54.1953 44.4443 54.1006 44.419 54.0174 44.3705L16.5002 22.6579C16.4172 22.6096 16.3483 22.5404 16.3004 22.4572C16.2525 22.374 16.2273 22.2796 16.2273 22.1836C16.2273 22.0876 16.2525 21.9933 16.3004 21.91C16.3483 21.8268 16.4172 21.7576 16.5002 21.7094L54.0539 0.0721486C54.1372 0.024867 54.2313 0 54.3271 0C54.4228 0 54.5169 0.024867 54.6002 0.0721486L92.0831 21.7094C92.1667 21.7572 92.2361 21.8262 92.2845 21.9095C92.3328 21.9928 92.3583 22.0873 92.3583 22.1836C92.3583 22.2799 92.3328 22.3745 92.2845 22.4578C92.2361 22.5411 92.1667 22.6101 92.0831 22.6579L54.5659 44.3705C54.4828 44.4194 54.388 44.4446 54.2916 44.4437Z" fill="#6D6E71" fill-opacity="0.333333" stroke="#1E0638" stroke-width="3.42831" stroke-miterlimit="10"/>
<path d="M23.3129 83.4353L54.5242 101.25L85.7082 83.4177V47.6294L54.5634 29.7126L23.3129 47.6646V83.4353Z" fill="#1E0638"/>
<path d="M54.1674 119.796C54.0405 119.795 53.9161 119.762 53.8063 119.698L4.50257 91.3575C4.39206 91.2939 4.30026 91.2024 4.23645 91.092C4.17265 90.9816 4.13909 90.8564 4.13916 90.7289V33.8258C4.13909 33.6986 4.1724 33.5736 4.23577 33.4633C4.29914 33.353 4.39035 33.2613 4.50028 33.1973L53.868 4.628C53.9784 4.56399 54.1038 4.53027 54.2314 4.53027C54.359 4.53027 54.4844 4.56399 54.5948 4.628L103.791 33.1401C103.901 33.2041 103.992 33.2959 104.056 33.4062C104.119 33.5165 104.152 33.6415 104.152 33.7687V90.6992C104.153 90.8265 104.12 90.9517 104.056 91.0621C103.993 91.1725 103.901 91.2641 103.791 91.3278L54.5285 119.698C54.4188 119.762 54.2943 119.796 54.1674 119.796V119.796ZM5.5882 90.313L54.1674 118.233L102.703 90.2787V34.1801L54.2291 6.09075L5.5882 34.2326V90.313Z" fill="#E7AA27" stroke="#E7AA27" stroke-width="2.05699" stroke-miterlimit="10"/>
<path d="M81.0382 74.5846C80.9417 74.5841 80.847 74.5581 80.7639 74.5092L56.8091 60.5239C56.7271 60.4763 56.659 60.408 56.6116 60.3257C56.5643 60.2435 56.5394 60.1503 56.5394 60.0554V32.6289C56.5397 32.5025 56.5838 32.3801 56.6643 32.2826C56.7447 32.185 56.8565 32.1184 56.9805 32.0941L85.9361 26.4991C86.0475 26.4777 86.1628 26.4915 86.266 26.5386C86.3692 26.5857 86.4552 26.6637 86.512 26.7619L100.792 51.5783C100.849 51.6763 100.874 51.7894 100.863 51.9021C100.852 52.0148 100.807 52.1213 100.733 52.2069L81.445 74.3972C81.3941 74.4552 81.3316 74.5018 81.2615 74.5341C81.1914 74.5664 81.1153 74.5836 81.0382 74.5846V74.5846Z" fill="#1E0638" stroke="#330066" stroke-width="1.37133" stroke-miterlimit="10"/>
<path d="M40.3809 105.924C40.2676 105.924 40.1573 105.888 40.0651 105.822C39.973 105.756 39.9036 105.663 39.8667 105.556L30.2788 77.7091C30.2368 77.5914 30.2366 77.4629 30.2783 77.3451C30.3199 77.2273 30.4008 77.1275 30.5074 77.0623L54.389 63.1205C54.4723 63.0721 54.5669 63.0466 54.6633 63.0466C54.7596 63.0466 54.8542 63.0721 54.9375 63.1205L78.8923 77.1057C78.999 77.1713 79.08 77.2716 79.1216 77.3897C79.1632 77.5079 79.163 77.6368 79.1208 77.7548L69.5216 105.49C69.4848 105.597 69.4154 105.69 69.3232 105.755C69.2309 105.821 69.1205 105.856 69.0073 105.856L40.3672 105.922L40.3809 105.924Z" fill="#1E0638" stroke="#330066" stroke-width="1.37133" stroke-miterlimit="10"/>
<path d="M54.691 29.74C54.656 29.7434 54.6208 29.7434 54.5858 29.74L25.8086 24.0992C25.6996 24.0787 25.5995 24.0251 25.5219 23.9458C25.4443 23.8665 25.393 23.7653 25.3748 23.6558C25.3566 23.5464 25.3724 23.434 25.4202 23.3339C25.4679 23.2337 25.5453 23.1507 25.6417 23.0959L40.1618 14.7194C40.2444 14.6713 40.3382 14.6461 40.4338 14.6462V14.6462L69.0853 14.7217C69.1799 14.723 69.2727 14.7481 69.355 14.7948L83.9116 23.121C84.0078 23.1763 84.0848 23.2596 84.1323 23.3598C84.1798 23.46 84.1955 23.5724 84.1774 23.6818C84.1592 23.7912 84.1081 23.8924 84.0308 23.972C83.9534 24.0515 83.8536 24.1055 83.7448 24.1267L54.7938 29.7308C54.7599 29.7373 54.7255 29.7403 54.691 29.74Z" fill="#1E0638" stroke="#330066" stroke-width="1.37133" stroke-miterlimit="10"/>
<path d="M36.404 106.299C36.3075 106.299 36.2127 106.273 36.1297 106.223L21.6942 97.7828C21.6132 97.7349 21.5456 97.6673 21.4977 97.5862L7.08505 72.7561C7.03565 72.6733 7.01032 72.5783 7.01191 72.4818L7.04391 55.7974C7.04431 55.6869 7.07833 55.5792 7.14145 55.4885C7.20457 55.3979 7.2938 55.3286 7.39727 55.2899C7.50074 55.2511 7.61354 55.2449 7.72067 55.2718C7.8278 55.2988 7.92417 55.3578 7.99698 55.4408L27.2184 77.5557C27.2647 77.6074 27.2997 77.6681 27.3212 77.734L36.9205 105.579C36.957 105.684 36.9603 105.798 36.93 105.905C36.8998 106.012 36.8374 106.107 36.7514 106.178C36.6527 106.256 36.5302 106.299 36.404 106.299V106.299Z" fill="#1E0638" stroke="#330066" stroke-width="1.37133" stroke-miterlimit="10"/>
<path d="M73.2656 106.278C73.1788 106.278 73.0933 106.257 73.0162 106.217C72.939 106.177 72.8725 106.12 72.8222 106.049C72.7718 105.978 72.7391 105.897 72.7268 105.811C72.7145 105.725 72.7229 105.637 72.7514 105.555L82.3506 77.8181C82.3744 77.7527 82.41 77.6922 82.4558 77.6398L101.741 55.4518C101.814 55.3678 101.91 55.3081 102.018 55.2806C102.125 55.2531 102.239 55.2592 102.343 55.298C102.447 55.3368 102.536 55.4065 102.6 55.4977C102.663 55.5889 102.697 55.6973 102.697 55.8083L102.671 72.5979C102.672 72.6934 102.646 72.7873 102.598 72.8699L88.277 97.6909C88.2296 97.775 88.16 97.8445 88.0759 97.892L73.5353 106.209C73.4529 106.255 73.3599 106.279 73.2656 106.278Z" fill="#1E0638" stroke="#330066" stroke-width="1.37133" stroke-miterlimit="10"/>
<path d="M28.2268 74.6193C28.1493 74.6195 28.0727 74.6031 28.0021 74.5711C27.9316 74.5392 27.8687 74.4925 27.8177 74.4342L8.59625 52.3193C8.52203 52.2343 8.4762 52.1283 8.46514 52.016C8.45407 51.9038 8.47834 51.7908 8.53454 51.693L22.8558 26.8149C22.9126 26.7167 22.9986 26.6386 23.1018 26.5915C23.205 26.5444 23.3203 26.5306 23.4317 26.5521L52.2113 32.1836C52.3351 32.208 52.4466 32.2747 52.5266 32.3723C52.6067 32.4699 52.6503 32.5922 52.6501 32.7185V60.145C52.65 60.2401 52.6251 60.3336 52.5778 60.4162C52.5305 60.4988 52.4625 60.5676 52.3804 60.6158L28.4988 74.5576C28.4151 74.6017 28.3213 74.623 28.2268 74.6193V74.6193Z" fill="#1E0638" stroke="#330066" stroke-width="1.37133" stroke-miterlimit="10"/>
</g>
<defs>
<clipPath id="clip0_4344:25546">
<rect width="274.42" height="119.797" fill="white"/>
</clipPath>
</defs>
</svg>
