<svg width="399" height="274" viewBox="0 0 399 274" fill="none" xmlns="http://www.w3.org/2000/svg">
<rect width="399" height="274" rx="8" fill="#27143E" fill-opacity="0.3"/>
<g clip-path="url(#clip0_2084:550)">
<rect x="18" y="21" width="45.4121" height="4.37707" rx="2.18853" fill="#280049"/>
<g clip-path="url(#clip1_2084:550)">
<circle cx="30.323" cy="57.6999" r="12.323" fill="#E7AA27"/>
<path d="M30.1639 60.244C30.1639 60.314 30.2199 60.377 30.2969 60.377H31.0739C31.1439 60.377 31.1999 60.314 31.1999 60.244V55.75C31.1999 55.68 31.1439 55.617 31.0739 55.617H30.4299L29.4079 56.415C29.3869 56.436 29.3659 56.492 29.3659 56.52V56.961C29.3659 57.031 29.4219 57.094 29.4919 57.094H30.1639V60.244Z" fill="#280049"/>
<g clip-path="url(#clip2_2084:550)">
<g clip-path="url(#clip3_2084:550)">
<path d="M57.2213 54.1818C57.2213 54.2845 57.3034 54.377 57.4061 54.377H59.9118C61.8937 54.377 63.5163 52.7647 63.5163 50.7725C63.5163 48.8008 61.8937 47.1885 59.9118 47.1885H57.4061C57.3034 47.1885 57.2213 47.281 57.2213 47.3837V54.1818ZM58.8233 52.8571V48.6981H59.8091C60.9695 48.6981 61.8116 49.6121 61.8116 50.7725C61.8116 51.9432 60.9695 52.8571 59.8091 52.8571H58.8233ZM64.7727 54.1818C64.7727 54.2845 64.8651 54.377 64.9678 54.377H66.2001C66.3028 54.377 66.3952 54.2845 66.3952 54.1818V47.3837C66.3952 47.281 66.3028 47.1885 66.2001 47.1885H64.9678C64.8651 47.1885 64.7727 47.281 64.7727 47.3837V54.1818ZM68.1623 54.1818C68.1623 54.2845 68.2548 54.377 68.3575 54.377H69.5795C69.6924 54.377 69.7746 54.2845 69.7746 54.1818V50.3514H69.7849L73.8412 54.4283C73.8617 54.4488 73.9439 54.4796 73.9747 54.4796H74.139C74.2417 54.4796 74.3341 54.3975 74.3341 54.2948V47.3837C74.3341 47.281 74.2417 47.1885 74.139 47.1885H72.9067C72.7937 47.1885 72.7116 47.281 72.7116 47.3837V51.0292H72.7013L68.6039 47.0859H68.3472C68.2445 47.0859 68.1521 47.168 68.1521 47.2707L68.1623 54.1818ZM75.5812 50.793C75.5812 52.8468 77.214 54.4796 79.2678 54.4796C81.3216 54.4796 82.9647 52.8468 82.9647 50.793C82.9647 48.7392 81.3216 47.0859 79.2678 47.0859C77.214 47.0859 75.5812 48.7392 75.5812 50.793ZM77.2242 50.793C77.2242 49.6634 78.1484 48.7289 79.2678 48.7289C80.3974 48.7289 81.3216 49.6634 81.3216 50.793C81.3216 51.9124 80.3974 52.8366 79.2678 52.8366C78.1484 52.8366 77.2242 51.9124 77.2242 50.793ZM85.7247 54.377H86.8543C87.0597 54.377 87.1726 54.2537 87.224 54.1305L87.5937 53.309H90.3869L90.7566 54.1202C90.849 54.3153 90.9311 54.377 91.116 54.377H92.2559C92.4099 54.377 92.492 54.2435 92.4304 54.11L89.2162 47.1988C89.1854 47.1372 89.1135 47.0859 89.0416 47.0859H88.9389C88.867 47.0859 88.7952 47.1372 88.7643 47.1988L85.5501 54.11C85.4885 54.2435 85.5706 54.377 85.7247 54.377ZM88.2098 51.9124L88.98 50.2179H88.9903L89.7707 51.9124H88.2098ZM93.2736 54.1818C93.2736 54.2845 93.3558 54.377 93.4585 54.377H95.9641C97.9461 54.377 99.5686 52.7647 99.5686 50.7725C99.5686 48.8008 97.9461 47.1885 95.9641 47.1885H93.4585C93.3558 47.1885 93.2736 47.281 93.2736 47.3837V54.1818ZM94.8756 52.8571V48.6981H95.8615C97.0219 48.6981 97.8639 49.6121 97.8639 50.7725C97.8639 51.9432 97.0219 52.8571 95.8615 52.8571H94.8756ZM100.825 54.1818C100.825 54.2845 100.907 54.377 101.01 54.377H103.516C105.498 54.377 107.12 52.7647 107.12 50.7725C107.12 48.8008 105.498 47.1885 103.516 47.1885H101.01C100.907 47.1885 100.825 47.281 100.825 47.3837V54.1818ZM102.427 52.8571V48.6981H103.413C104.573 48.6981 105.415 49.6121 105.415 50.7725C105.415 51.9432 104.573 52.8571 103.413 52.8571H102.427ZM108.377 54.1818C108.377 54.2845 108.459 54.377 108.572 54.377H112.823C112.936 54.377 113.018 54.2845 113.018 54.1818V53.0625C113.018 52.9598 112.936 52.8674 112.823 52.8674H109.978V51.4811H112.32C112.423 51.4811 112.515 51.3989 112.515 51.2859V50.1666C112.515 50.0639 112.423 49.9715 112.32 49.9715H109.978V48.6981H112.823C112.936 48.6981 113.018 48.6057 113.018 48.503V47.3837C113.018 47.281 112.936 47.1885 112.823 47.1885H108.572C108.459 47.1885 108.377 47.281 108.377 47.3837V54.1818ZM114.394 54.1818C114.394 54.2845 114.476 54.377 114.578 54.377H117.084C119.066 54.377 120.689 52.7647 120.689 50.7725C120.689 48.8008 119.066 47.1885 117.084 47.1885H114.578C114.476 47.1885 114.394 47.281 114.394 47.3837V54.1818ZM115.996 52.8571V48.6981H116.981C118.142 48.6981 118.984 49.6121 118.984 50.7725C118.984 51.9432 118.142 52.8571 116.981 52.8571H115.996Z" fill="#FFE7B8"/>
<rect x="182.815" y="45.377" width="27.2153" height="13.7384" rx="3.42305" fill="#E7AA27"/>
<path d="M189.719 52.9121C189.719 54.0041 190.321 54.8161 191.406 54.8161C192.281 54.8161 193.009 54.0951 193.009 53.2131C193.009 52.1771 192.274 51.6941 191.616 51.6941C191.427 51.6941 191.133 51.7571 190.951 51.8341C191.098 51.1131 192.029 50.7911 192.358 50.6861C192.498 50.6441 192.519 50.5671 192.491 50.4831L192.288 49.9441C192.253 49.8461 192.176 49.7971 192.071 49.8321C191.469 50.0211 189.719 50.8541 189.719 52.9121ZM190.72 53.1781C190.72 52.8071 191.021 52.4991 191.392 52.4991C191.763 52.4991 192.064 52.8071 192.064 53.1781C192.064 53.5421 191.763 53.8501 191.392 53.8501C191.021 53.8501 190.72 53.5421 190.72 53.1781ZM194.137 52.9891C194.445 52.9891 194.697 52.7441 194.697 52.4361C194.697 52.1281 194.445 51.8761 194.137 51.8761C193.829 51.8761 193.584 52.1281 193.584 52.4361C193.584 52.7441 193.829 52.9891 194.137 52.9891ZM193.584 54.2631C193.584 54.5711 193.829 54.8161 194.137 54.8161C194.445 54.8161 194.697 54.5711 194.697 54.2631C194.697 53.9551 194.445 53.7031 194.137 53.7031C193.829 53.7031 193.584 53.9551 193.584 54.2631ZM197.229 54.8161C198.37 54.8161 199.021 53.8991 199.021 52.3661C199.021 50.8331 198.37 49.9161 197.229 49.9161C196.088 49.9161 195.437 50.8331 195.437 52.3661C195.437 53.8991 196.088 54.8161 197.229 54.8161ZM197.229 53.8011C196.802 53.8011 196.564 53.2901 196.564 52.3661C196.564 51.4491 196.802 50.9311 197.229 50.9311C197.656 50.9311 197.894 51.4491 197.894 52.3661C197.894 53.2901 197.656 53.8011 197.229 53.8011ZM199.693 53.4791C199.693 54.2421 200.365 54.8161 201.38 54.8161C202.43 54.8161 203.102 54.2421 203.102 53.4791C203.102 52.8771 202.563 52.4781 202.248 52.3031V52.2751C202.521 52.1001 202.969 51.7291 202.969 51.1971C202.969 50.4131 202.269 49.9161 201.38 49.9161C200.526 49.9161 199.826 50.4131 199.826 51.1971C199.826 51.7501 200.274 52.1281 200.547 52.2821V52.3031C200.414 52.3801 199.693 52.8631 199.693 53.4791ZM201.394 51.8201C201.065 51.6941 200.904 51.4911 200.904 51.2391C200.904 51.0011 201.135 50.7841 201.394 50.7841C201.66 50.7841 201.891 51.0011 201.891 51.2391C201.891 51.4771 201.723 51.7011 201.394 51.8201ZM200.827 53.4301C200.827 53.1711 201.03 52.9121 201.394 52.7861C201.772 52.9121 201.968 53.1711 201.968 53.4301C201.968 53.7311 201.681 53.9551 201.401 53.9551C201.114 53.9551 200.827 53.7381 200.827 53.4301Z" fill="#280049"/>
</g>
<rect x="56.3381" y="64.5923" width="116.384" height="3.42305" rx="1.71153" fill="#E7AA27"/>
<rect x="57.0227" y="65.2769" width="15.0614" height="2.05383" rx="1.02692" fill="#FFEECC"/>
<rect x="56.3381" y="73.4922" width="95.9614" height="2.78149" rx="1.39075" fill="#FFEECC" fill-opacity="0.3"/>
<rect x="56.3381" y="81.7505" width="119" height="3" rx="1.5" fill="#FFEECC" fill-opacity="0.3"/>
</g>
</g>
<g clip-path="url(#clip4_2084:550)">
<circle cx="30.323" cy="117.074" r="12.323" fill="black" fill-opacity="0.2"/>
<path d="M28.8631 119.618C28.8631 119.688 28.9191 119.751 28.9961 119.751H31.7961C31.8661 119.751 31.9291 119.688 31.9291 119.618V118.988C31.9291 118.918 31.8661 118.855 31.7961 118.855H30.5641C30.8931 118.393 31.4671 117.644 31.6911 117.245C31.8591 116.916 31.9641 116.706 31.9641 116.335C31.9641 115.558 31.3761 114.921 30.3751 114.921C29.5421 114.921 28.9751 115.607 28.9751 115.607C28.9261 115.663 28.9331 115.747 28.9821 115.789L29.4091 116.223C29.4651 116.279 29.5491 116.279 29.6051 116.223C29.7381 116.076 29.9971 115.873 30.2841 115.873C30.6761 115.873 30.9001 116.111 30.9001 116.377C30.9001 116.573 30.8091 116.769 30.7181 116.909C30.3051 117.539 29.2691 118.946 28.8631 119.478V119.618Z" fill="#FFEECC"/>
<g clip-path="url(#clip5_2084:550)">
<g clip-path="url(#clip6_2084:550)">
<path d="M57.2213 115.902C57.2213 116.005 57.3034 116.097 57.4061 116.097H59.9118C61.8937 116.097 63.5163 114.485 63.5163 112.492C63.5163 110.521 61.8937 108.909 59.9118 108.909H57.4061C57.3034 108.909 57.2213 109.001 57.2213 109.104V115.902ZM58.8233 114.577V110.418H59.8091C60.9695 110.418 61.8116 111.332 61.8116 112.492C61.8116 113.663 60.9695 114.577 59.8091 114.577H58.8233ZM64.7727 115.902C64.7727 116.005 64.8651 116.097 64.9678 116.097H66.2001C66.3028 116.097 66.3952 116.005 66.3952 115.902V109.104C66.3952 109.001 66.3028 108.909 66.2001 108.909H64.9678C64.8651 108.909 64.7727 109.001 64.7727 109.104V115.902ZM68.1623 115.902C68.1623 116.005 68.2548 116.097 68.3575 116.097H69.5795C69.6924 116.097 69.7746 116.005 69.7746 115.902V112.071H69.7849L73.8412 116.148C73.8617 116.169 73.9439 116.2 73.9747 116.2H74.139C74.2417 116.2 74.3341 116.117 74.3341 116.015V109.104C74.3341 109.001 74.2417 108.909 74.139 108.909H72.9067C72.7937 108.909 72.7116 109.001 72.7116 109.104V112.749H72.7013L68.6039 108.806H68.3472C68.2445 108.806 68.1521 108.888 68.1521 108.991L68.1623 115.902ZM75.5812 112.513C75.5812 114.567 77.214 116.2 79.2678 116.2C81.3216 116.2 82.9647 114.567 82.9647 112.513C82.9647 110.459 81.3216 108.806 79.2678 108.806C77.214 108.806 75.5812 110.459 75.5812 112.513ZM77.2242 112.513C77.2242 111.383 78.1484 110.449 79.2678 110.449C80.3974 110.449 81.3216 111.383 81.3216 112.513C81.3216 113.632 80.3974 114.557 79.2678 114.557C78.1484 114.557 77.2242 113.632 77.2242 112.513ZM86.4743 115.902C86.4743 116.005 86.5565 116.097 86.6694 116.097H87.8915C87.9942 116.097 88.0866 116.005 88.0866 115.902V113.283H88.7952L90.1609 116.005C90.1815 116.046 90.2431 116.097 90.3253 116.097H91.6911C91.8656 116.097 91.9375 115.933 91.8656 115.799L90.4588 113.191C91.3522 112.831 91.9786 112.071 91.9786 111.127C91.9786 109.905 90.9722 108.909 89.7399 108.909H86.6694C86.5565 108.909 86.4743 109.001 86.4743 109.104V115.902ZM88.0866 111.979V110.377H89.6064C90.0275 110.377 90.3869 110.726 90.3869 111.157C90.3869 111.589 90.0275 111.979 89.6064 111.979H88.0866ZM93.3539 115.902C93.3539 116.005 93.436 116.097 93.549 116.097H97.8004C97.9134 116.097 97.9955 116.005 97.9955 115.902V114.782C97.9955 114.68 97.9134 114.587 97.8004 114.587H94.9558V113.201H97.2972C97.3999 113.201 97.4923 113.119 97.4923 113.006V111.887C97.4923 111.784 97.3999 111.691 97.2972 111.691H94.9558V110.418H97.8004C97.9134 110.418 97.9955 110.326 97.9955 110.223V109.104C97.9955 109.001 97.9134 108.909 97.8004 108.909H93.549C93.436 108.909 93.3539 109.001 93.3539 109.104V115.902ZM98.9191 115.871C98.8986 116.005 98.991 116.097 99.1142 116.097H100.326C100.429 116.097 100.511 116.015 100.521 115.933L100.973 112.759H100.993L102.729 116.087C102.76 116.148 102.842 116.2 102.904 116.2H103.088C103.14 116.2 103.232 116.148 103.263 116.087L104.988 112.759H105.009L105.471 115.933C105.481 116.015 105.574 116.097 105.666 116.097H106.878C107.001 116.097 107.093 116.005 107.073 115.871L105.912 108.97C105.902 108.878 105.81 108.806 105.728 108.806H105.563C105.512 108.806 105.419 108.847 105.389 108.909L103.006 113.345H102.986L100.603 108.909C100.572 108.847 100.48 108.806 100.429 108.806H100.264C100.182 108.806 100.09 108.878 100.08 108.97L98.9191 115.871ZM107.863 112.513C107.863 114.567 109.496 116.2 111.549 116.2C113.603 116.2 115.246 114.567 115.246 112.513C115.246 110.459 113.603 108.806 111.549 108.806C109.496 108.806 107.863 110.459 107.863 112.513ZM109.506 112.513C109.506 111.383 110.43 110.449 111.549 110.449C112.679 110.449 113.603 111.383 113.603 112.513C113.603 113.632 112.679 114.557 111.549 114.557C110.43 114.557 109.506 113.632 109.506 112.513ZM118.709 116.087C118.74 116.148 118.802 116.2 118.884 116.2H118.986C119.069 116.2 119.13 116.148 119.161 116.087L122.385 109.176C122.447 109.042 122.365 108.909 122.211 108.909H120.845C120.763 108.909 120.691 108.97 120.671 109.021L118.976 112.77H118.914L117.22 109.021C117.2 108.97 117.128 108.909 117.046 108.909H115.68C115.526 108.909 115.444 109.042 115.505 109.176L118.709 116.087ZM123.229 115.902C123.229 116.005 123.311 116.097 123.424 116.097H127.675C127.788 116.097 127.87 116.005 127.87 115.902V114.782C127.87 114.68 127.788 114.587 127.675 114.587H124.831V113.201H127.172C127.275 113.201 127.367 113.119 127.367 113.006V111.887C127.367 111.784 127.275 111.691 127.172 111.691H124.831V110.418H127.675C127.788 110.418 127.87 110.326 127.87 110.223V109.104C127.87 109.001 127.788 108.909 127.675 108.909H123.424C123.311 108.909 123.229 109.001 123.229 109.104V115.902ZM129.246 115.902C129.246 116.005 129.328 116.097 129.431 116.097H131.936C133.918 116.097 135.541 114.485 135.541 112.492C135.541 110.521 133.918 108.909 131.936 108.909H129.431C129.328 108.909 129.246 109.001 129.246 109.104V115.902ZM130.848 114.577V110.418H131.834C132.994 110.418 133.836 111.332 133.836 112.492C133.836 113.663 132.994 114.577 131.834 114.577H130.848Z" fill="#FFEECC"/>
<rect x="182.815" y="104.751" width="28.7536" height="13.6922" rx="3.42305" fill="black" fill-opacity="0.2"/>
<path d="M191.166 113.581L191.369 114.12C191.404 114.218 191.481 114.26 191.586 114.232C192.23 114.043 193.938 113.21 193.938 111.152C193.938 110.06 193.336 109.248 192.251 109.248C191.376 109.248 190.648 109.969 190.648 110.851C190.648 111.887 191.383 112.37 192.041 112.37C192.23 112.37 192.524 112.307 192.706 112.23C192.559 112.951 191.628 113.273 191.299 113.378C191.159 113.42 191.138 113.497 191.166 113.581ZM192.265 111.565C191.894 111.565 191.593 111.257 191.593 110.886C191.593 110.522 191.894 110.214 192.265 110.214C192.636 110.214 192.937 110.522 192.937 110.886C192.937 111.257 192.636 111.565 192.265 111.565ZM195.108 112.363C195.416 112.363 195.668 112.118 195.668 111.81C195.668 111.502 195.416 111.25 195.108 111.25C194.8 111.25 194.555 111.502 194.555 111.81C194.555 112.118 194.8 112.363 195.108 112.363ZM194.555 113.637C194.555 113.945 194.8 114.19 195.108 114.19C195.416 114.19 195.668 113.945 195.668 113.637C195.668 113.329 195.416 113.077 195.108 113.077C194.8 113.077 194.555 113.329 194.555 113.637ZM198.2 114.19C199.341 114.19 199.992 113.273 199.992 111.74C199.992 110.207 199.341 109.29 198.2 109.29C197.059 109.29 196.408 110.207 196.408 111.74C196.408 113.273 197.059 114.19 198.2 114.19ZM198.2 113.175C197.773 113.175 197.535 112.664 197.535 111.74C197.535 110.823 197.773 110.305 198.2 110.305C198.627 110.305 198.865 110.823 198.865 111.74C198.865 112.664 198.627 113.175 198.2 113.175ZM200.511 113.987C200.511 114.057 200.567 114.12 200.644 114.12H203.444C203.514 114.12 203.577 114.057 203.577 113.987V113.357C203.577 113.287 203.514 113.224 203.444 113.224H202.212C202.541 112.762 203.115 112.013 203.339 111.614C203.507 111.285 203.612 111.075 203.612 110.704C203.612 109.927 203.024 109.29 202.023 109.29C201.19 109.29 200.623 109.976 200.623 109.976C200.574 110.032 200.581 110.116 200.63 110.158L201.057 110.592C201.113 110.648 201.197 110.648 201.253 110.592C201.386 110.445 201.645 110.242 201.932 110.242C202.324 110.242 202.548 110.48 202.548 110.746C202.548 110.942 202.457 111.138 202.366 111.278C201.953 111.908 200.917 113.315 200.511 113.847V113.987Z" fill="#FFEECC"/>
</g>
<rect x="56.3383" y="123.92" width="123.23" height="3.42305" rx="1.71153" fill="black" fill-opacity="0.2"/>
<rect x="57.0228" y="124.604" width="8.21532" height="2.05383" rx="1.02692" fill="#E7AA27"/>
<rect x="56.3381" y="132.82" width="105" height="3" rx="1.5" fill="#FFEECC" fill-opacity="0.3"/>
<rect x="56.3381" y="141.297" width="66" height="3" rx="1.5" fill="#FFEECC" fill-opacity="0.3"/>
<rect x="56.3381" y="149.773" width="66" height="3" rx="1.5" fill="#FFEECC" fill-opacity="0.3"/>
</g>
</g>
<g clip-path="url(#clip7_2084:550)">
<circle cx="30.323" cy="185.096" r="12.323" fill="black" fill-opacity="0.2"/>
<path d="M28.9019 187.22C29.0489 187.409 29.4969 187.843 30.3789 187.843C31.3449 187.843 32.0099 187.269 32.0099 186.506C32.0099 185.904 31.4919 185.47 31.1629 185.33V185.309C31.4779 185.162 31.8839 184.763 31.8839 184.224C31.8839 183.44 31.1839 182.943 30.3719 182.943C29.6089 182.943 29.0349 183.559 29.0349 183.559C28.9859 183.608 28.9789 183.692 29.0349 183.741L29.4619 184.161C29.5179 184.21 29.6019 184.21 29.6509 184.154C29.7559 184.035 29.9519 183.874 30.2599 183.874C30.5609 183.874 30.8199 184.098 30.8199 184.399C30.8199 184.7 30.5609 184.938 30.0709 184.938H29.6789C29.6089 184.938 29.5459 184.994 29.5459 185.071V185.652C29.5459 185.722 29.6089 185.785 29.6789 185.785H30.0709C30.5889 185.785 30.9039 186.044 30.9039 186.352C30.9039 186.66 30.5959 186.912 30.2949 186.912C29.9589 186.912 29.5249 186.59 29.5249 186.59C29.4689 186.548 29.3989 186.555 29.3499 186.604L28.9089 187.045C28.8669 187.094 28.8599 187.171 28.9019 187.22Z" fill="#FFEECC"/>
<g clip-path="url(#clip8_2084:550)">
<g clip-path="url(#clip9_2084:550)">
<path d="M57.2213 183.925C57.2213 184.027 57.3034 184.12 57.4164 184.12H58.6282C58.7308 184.12 58.8233 184.027 58.8233 183.925V181.511H59.9015C61.1544 181.511 62.1916 180.474 62.1916 179.201C62.1916 177.958 61.1544 176.931 59.8913 176.931H57.4164C57.3034 176.931 57.2213 177.024 57.2213 177.126V183.925ZM58.8233 180.012V178.441H59.7988C60.2404 178.441 60.6101 178.769 60.6101 179.201C60.6101 179.663 60.2404 180.012 59.7988 180.012H58.8233ZM62.1076 184.12H63.2372C63.4426 184.12 63.5556 183.996 63.6069 183.873L63.9766 183.052H66.7698L67.1395 183.863C67.2319 184.058 67.3141 184.12 67.4989 184.12H68.6388C68.7929 184.12 68.875 183.986 68.8134 183.853L65.5991 176.941C65.5683 176.88 65.4965 176.829 65.4246 176.829H65.3219C65.25 176.829 65.1781 176.88 65.1473 176.941L61.9331 183.853C61.8714 183.986 61.9536 184.12 62.1076 184.12ZM64.5928 181.655L65.363 179.961H65.3732L66.1537 181.655H64.5928ZM69.6566 183.925C69.6566 184.027 69.7387 184.12 69.8517 184.12H71.0737C71.1764 184.12 71.2688 184.027 71.2688 183.925V181.306H71.9774L73.3432 184.027C73.3637 184.068 73.4254 184.12 73.5075 184.12H74.8733C75.0479 184.12 75.1198 183.955 75.0479 183.822L73.641 181.213C74.5344 180.854 75.1608 180.094 75.1608 179.149C75.1608 177.927 74.1545 176.931 72.9222 176.931H69.8517C69.7387 176.931 69.6566 177.024 69.6566 177.126V183.925ZM71.2688 180.002V178.4H72.7887C73.2097 178.4 73.5691 178.749 73.5691 179.18C73.5691 179.611 73.2097 180.002 72.7887 180.002H71.2688ZM76.5361 183.873C76.5361 184.007 76.6388 184.12 76.7826 184.12H77.9841C78.1176 184.12 78.2305 184.007 78.2305 183.873V180.813L80.6027 184.037C80.6232 184.068 80.7157 184.109 80.7875 184.109H82.2047C82.3998 184.109 82.5128 183.883 82.3998 183.729L79.7812 180.32L82.1841 177.311C82.2971 177.157 82.1944 176.931 81.9993 176.931H80.7054C80.6438 176.931 80.5514 176.983 80.5103 177.034L78.2305 179.878V177.178C78.2305 177.044 78.1176 176.931 77.9841 176.931H76.7826C76.6388 176.931 76.5361 177.044 76.5361 177.178V183.873ZM85.6095 181.367C85.6095 182.928 86.9137 184.222 88.5259 184.222C90.1484 184.222 91.4629 182.928 91.4629 181.367V177.126C91.4629 177.024 91.3705 176.931 91.2678 176.931H90.0047C89.8917 176.931 89.8096 177.024 89.8096 177.126V181.285C89.8096 182.004 89.2653 182.579 88.5259 182.579C87.7968 182.579 87.2628 182.004 87.2628 181.285V177.126C87.2628 177.024 87.1806 176.931 87.0677 176.931H85.8046C85.7019 176.931 85.6095 177.024 85.6095 177.126V181.367ZM93.1132 183.925C93.1132 184.027 93.1953 184.12 93.3083 184.12H94.52C94.6227 184.12 94.7152 184.027 94.7152 183.925V181.511H95.7934C97.0463 181.511 98.0834 180.474 98.0834 179.201C98.0834 177.958 97.0463 176.931 95.7831 176.931H93.3083C93.1953 176.931 93.1132 177.024 93.1132 177.126V183.925ZM94.7152 180.012V178.441H95.6907C96.1323 178.441 96.502 178.769 96.502 179.201C96.502 179.663 96.1323 180.012 95.6907 180.012H94.7152ZM99.1303 183.925C99.1303 184.027 99.2124 184.12 99.3151 184.12H101.821C103.803 184.12 105.425 182.507 105.425 180.515C105.425 178.543 103.803 176.931 101.821 176.931H99.3151C99.2124 176.931 99.1303 177.024 99.1303 177.126V183.925ZM100.732 182.6V178.441H101.718C102.878 178.441 103.721 179.355 103.721 180.515C103.721 181.686 102.878 182.6 101.718 182.6H100.732ZM105.862 184.12H106.991C107.197 184.12 107.31 183.996 107.361 183.873L107.731 183.052H110.524L110.894 183.863C110.986 184.058 111.068 184.12 111.253 184.12H112.393C112.547 184.12 112.629 183.986 112.568 183.853L109.353 176.941C109.323 176.88 109.251 176.829 109.179 176.829H109.076C109.004 176.829 108.932 176.88 108.902 176.941L105.687 183.853C105.626 183.986 105.708 184.12 105.862 184.12ZM108.347 181.655L109.117 179.961H109.127L109.908 181.655H108.347ZM113.964 183.925C113.964 184.027 114.056 184.12 114.159 184.12H115.391C115.494 184.12 115.586 184.027 115.586 183.925V178.441H117.055C117.168 178.441 117.25 178.348 117.25 178.246V177.126C117.25 177.024 117.168 176.931 117.055 176.931H112.495C112.383 176.931 112.3 177.024 112.3 177.126V178.246C112.3 178.348 112.383 178.441 112.495 178.441H113.964V183.925ZM118.275 183.925C118.275 184.027 118.357 184.12 118.47 184.12H122.721C122.834 184.12 122.916 184.027 122.916 183.925V182.805C122.916 182.702 122.834 182.61 122.721 182.61H119.877V181.224H122.218C122.321 181.224 122.413 181.142 122.413 181.029V179.909C122.413 179.807 122.321 179.714 122.218 179.714H119.877V178.441H122.721C122.834 178.441 122.916 178.348 122.916 178.246V177.126C122.916 177.024 122.834 176.931 122.721 176.931H118.47C118.357 176.931 118.275 177.024 118.275 177.126V183.925ZM124.292 183.925C124.292 184.027 124.374 184.12 124.477 184.12H126.982C128.964 184.12 130.587 182.507 130.587 180.515C130.587 178.543 128.964 176.931 126.982 176.931H124.477C124.374 176.931 124.292 177.024 124.292 177.126V183.925ZM125.894 182.6V178.441H126.88C128.04 178.441 128.882 179.355 128.882 180.515C128.882 181.686 128.04 182.6 126.88 182.6H125.894Z" fill="#FFEECC"/>
<rect x="182.815" y="172.773" width="27.3844" height="13.6922" rx="3.42305" fill="black" fill-opacity="0.2"/>
<path d="M191.329 181.604L191.532 182.143C191.567 182.241 191.644 182.283 191.749 182.255C192.393 182.066 194.101 181.233 194.101 179.175C194.101 178.083 193.499 177.271 192.414 177.271C191.539 177.271 190.811 177.992 190.811 178.874C190.811 179.91 191.546 180.393 192.204 180.393C192.393 180.393 192.687 180.33 192.869 180.253C192.722 180.974 191.791 181.296 191.462 181.401C191.322 181.443 191.301 181.52 191.329 181.604ZM192.428 179.588C192.057 179.588 191.756 179.28 191.756 178.909C191.756 178.545 192.057 178.237 192.428 178.237C192.799 178.237 193.1 178.545 193.1 178.909C193.1 179.28 192.799 179.588 192.428 179.588ZM195.271 180.386C195.579 180.386 195.831 180.141 195.831 179.833C195.831 179.525 195.579 179.273 195.271 179.273C194.963 179.273 194.718 179.525 194.718 179.833C194.718 180.141 194.963 180.386 195.271 180.386ZM194.718 181.66C194.718 181.968 194.963 182.213 195.271 182.213C195.579 182.213 195.831 181.968 195.831 181.66C195.831 181.352 195.579 181.1 195.271 181.1C194.963 181.1 194.718 181.352 194.718 181.66ZM196.389 181.59C196.536 181.779 196.984 182.213 197.866 182.213C198.832 182.213 199.497 181.639 199.497 180.876C199.497 180.274 198.979 179.84 198.65 179.7V179.679C198.965 179.532 199.371 179.133 199.371 178.594C199.371 177.81 198.671 177.313 197.859 177.313C197.096 177.313 196.522 177.929 196.522 177.929C196.473 177.978 196.466 178.062 196.522 178.111L196.949 178.531C197.005 178.58 197.089 178.58 197.138 178.524C197.243 178.405 197.439 178.244 197.747 178.244C198.048 178.244 198.307 178.468 198.307 178.769C198.307 179.07 198.048 179.308 197.558 179.308H197.166C197.096 179.308 197.033 179.364 197.033 179.441V180.022C197.033 180.092 197.096 180.155 197.166 180.155H197.558C198.076 180.155 198.391 180.414 198.391 180.722C198.391 181.03 198.083 181.282 197.782 181.282C197.446 181.282 197.012 180.96 197.012 180.96C196.956 180.918 196.886 180.925 196.837 180.974L196.396 181.415C196.354 181.464 196.347 181.541 196.389 181.59ZM200.768 182.01C200.768 182.08 200.824 182.143 200.901 182.143H201.678C201.748 182.143 201.804 182.08 201.804 182.01V177.516C201.804 177.446 201.748 177.383 201.678 177.383H201.034L200.012 178.181C199.991 178.202 199.97 178.258 199.97 178.286V178.727C199.97 178.797 200.026 178.86 200.096 178.86H200.768V182.01Z" fill="#FFEECC"/>
</g>
<rect x="56.3383" y="191.943" width="123.23" height="3.42305" rx="1.71153" fill="black" fill-opacity="0.2"/>
<rect x="57.0228" y="192.627" width="49.2919" height="2.05383" rx="1.02692" fill="#E7AA27"/>
<rect x="56.3381" y="200.843" width="95.9614" height="2.78149" rx="1.39075" fill="#FFEECC" fill-opacity="0.3"/>
<rect x="56.3381" y="209.101" width="111" height="3" rx="1.5" fill="#FFEECC" fill-opacity="0.3"/>
<rect x="56.3381" y="217.578" width="61" height="3" rx="1.5" fill="#FFEECC" fill-opacity="0.3"/>
</g>
</g>
</g>
<g clip-path="url(#clip10_2084:550)">
<rect x="220.953" y="13.6921" width="164.306" height="246.46" rx="6.8461" fill="#FFEECC"/>
<rect x="220.953" y="13.6921" width="164.306" height="246.46" rx="6.8461" fill="#330066"/>
<path opacity="0.43" d="M251.419 87.7725C246.638 92.357 242.881 100.521 245.714 105.178C247.321 107.82 250.577 108.556 261.7 109.143C282.232 110.226 297.819 109.123 299.252 109.017C313.646 107.95 311.397 107.498 321.31 107.01C332.522 106.458 337.641 106.926 346.28 104.84C353.222 103.164 357.231 102.196 361.216 98.7299C370.077 91.021 369.864 78.7468 369.828 76.7197C369.78 73.9378 369.239 64.3628 362.173 56.6235C351.528 44.9654 331.596 43.5163 321.023 51.3602C308.643 60.5453 316.158 77.234 304.994 83.1792C295.138 88.4284 285.456 77.4555 263.553 81.9262C260.297 82.5909 255.504 83.8554 251.419 87.7725Z" fill="#491EB8"/>
<path opacity="0.2" d="M244.739 120.905C243.25 120.905 242.044 120.546 241.231 119.622C238.915 116.988 240.445 110.437 244.206 106.877C248.278 103.025 253.996 103.844 263.468 105.203C266.751 105.674 270.472 106.207 274.728 106.632C284.012 107.558 293.638 107.715 303.338 107.098C303.389 107.095 303.431 107.133 303.434 107.183C303.437 107.232 303.399 107.275 303.35 107.278C293.64 107.895 284.004 107.738 274.71 106.811C270.45 106.386 266.727 105.852 263.443 105.381C254.024 104.031 248.338 103.215 244.33 107.008C240.63 110.509 239.106 116.932 241.367 119.503C243.378 121.791 248.003 120.447 253.359 118.891C254.819 118.467 256.328 118.028 257.855 117.643C269.347 114.743 276.044 116.394 282.52 117.991C288.326 119.422 294.331 120.902 303.853 119.248C313.587 117.556 319.742 113.922 325.172 110.715C331.476 106.993 336.455 104.053 344.323 106.055C348.442 107.103 351.484 109.061 353.929 110.634C356.969 112.589 359.37 114.133 362.26 113.03C365.045 111.967 367.226 108.838 368.401 104.219C369.46 100.059 369.592 94.9686 368.755 90.6025C366.29 77.7467 353.701 69.3551 343.108 67.9864C336.78 67.1683 333.123 69.0535 328.889 71.2361C324.913 73.2854 320.406 75.6083 312.766 75.9759C304.817 76.3588 300.037 74.3589 294.973 72.2424C290.524 70.3832 285.925 68.4605 278.884 68.1469C278.835 68.1445 278.796 68.1026 278.799 68.0528C278.801 68.0044 278.84 67.9667 278.888 67.9667C278.89 67.9667 278.891 67.9667 278.893 67.9669C285.965 68.282 290.579 70.2109 295.042 72.0761C300.087 74.1845 304.852 76.175 312.757 75.7961C320.358 75.4301 324.846 73.1168 328.806 71.0759C333.067 68.8798 336.748 66.9833 343.131 67.8075C353.787 69.1844 366.451 77.6295 368.932 90.5688C369.774 94.9595 369.64 100.079 368.576 104.263C367.386 108.941 365.166 112.114 362.325 113.198C359.348 114.335 356.914 112.768 353.832 110.785C351.271 109.138 348.369 107.271 344.279 106.23C336.482 104.246 331.531 107.169 325.264 110.871C319.82 114.085 313.65 117.728 303.884 119.425C294.325 121.087 288.301 119.602 282.477 118.166C275.724 116.501 269.347 114.929 257.899 117.818C256.376 118.202 254.868 118.64 253.41 119.064C250.104 120.024 247.073 120.905 244.739 120.905Z" fill="#76F7FF"/>
<path d="M330.985 98.9291C339.74 98.9291 346.837 91.8321 346.837 83.0773C346.837 74.3225 339.74 67.2253 330.985 67.2253C322.23 67.2253 315.133 74.3225 315.133 83.0773C315.133 91.8321 322.23 98.9291 330.985 98.9291Z" fill="#B3CAF8"/>
<path d="M340.796 97.8105H316.93V114.525H340.796V97.8105Z" fill="#76F7FF"/>
<path opacity="0.43" d="M293.265 71.8172C298.339 71.8172 302.453 67.7036 302.453 62.6291C302.453 57.5546 298.339 53.4409 293.265 53.4409C288.19 53.4409 284.076 57.5546 284.076 62.6291C284.076 67.7036 288.19 71.8172 293.265 71.8172Z" fill="#76F7FF"/>
<path d="M300.07 115.351C298.486 115.351 297.198 114.073 297.187 112.487C297.176 110.895 298.458 109.595 300.05 109.584L310.758 109.512L311.499 96.7376C311.591 95.1478 312.951 93.9319 314.545 94.0264C316.134 94.1186 317.348 95.482 317.256 97.0719L316.455 110.862C316.313 113.318 314.275 115.254 311.815 115.271L300.09 115.351C300.083 115.351 300.076 115.351 300.07 115.351Z" fill="#B3825D"/>
<path d="M329.326 115.254C327.787 115.254 326.51 114.038 326.448 112.486C326.384 110.894 327.622 109.553 329.213 109.489L339.516 109.077V96.9045C339.516 95.3121 340.806 94.0212 342.399 94.0212C343.991 94.0212 345.282 95.3121 345.282 96.9045V109.774C345.282 112.49 343.156 114.702 340.442 114.811L329.444 115.251C329.405 115.253 329.366 115.254 329.326 115.254Z" fill="#B3825D"/>
<path d="M363.359 118.12H247.876C247.03 118.12 246.344 117.434 246.344 116.588C246.344 115.742 247.03 115.056 247.876 115.056H363.359C364.205 115.056 364.891 115.742 364.891 116.588C364.891 117.434 364.205 118.12 363.359 118.12Z" fill="#18204D"/>
<path d="M310.82 100.366C310.82 89.9124 318.217 85.3503 327.856 85.3503C337.495 85.3503 345.725 89.9124 345.725 100.366" fill="#76F7FF"/>
<path d="M324.024 72.4354C324.78 72.4354 325.393 71.8223 325.393 71.066C325.393 70.3098 324.78 69.6968 324.024 69.6968C323.268 69.6968 322.655 70.3098 322.655 71.066C322.655 71.8223 323.268 72.4354 324.024 72.4354Z" fill="#F05936"/>
<path d="M331.661 72.4354C332.417 72.4354 333.03 71.8223 333.03 71.066C333.03 70.3098 332.417 69.6968 331.661 69.6968C330.905 69.6968 330.292 70.3098 330.292 71.066C330.292 71.8223 330.905 72.4354 331.661 72.4354Z" fill="#F05936"/>
<path d="M331.66 76.2125V87.7179C331.66 89.803 329.969 91.4933 327.884 91.4933C325.799 91.4933 324.108 89.803 324.108 87.7179V76.2125C324.108 75.432 324.344 74.7072 324.75 74.1056C325.428 73.0987 326.579 72.4365 327.884 72.4365C328.927 72.4365 329.87 72.8591 330.554 73.5425C331.237 74.2259 331.66 75.1697 331.66 76.2125Z" fill="#B3825D"/>
<path d="M331.659 74.5091L331.039 78.6572C331.039 80.717 330.228 83.4599 328.234 83.6452C324.556 83.9872 324.108 81.9549 324.108 79.8696V72.4022C324.849 71.3953 326.106 70.7332 327.533 70.7332C328.673 70.7332 329.704 71.1557 330.451 71.8391C331.197 72.5226 331.659 73.4663 331.659 74.5091Z" fill="#303030"/>
<path d="M328.097 82.8949H327.67C325.703 82.8949 324.108 81.2999 324.108 79.3325V69.4923C324.108 67.5249 325.703 65.9299 327.67 65.9299H328.097C330.064 65.9299 331.659 67.5249 331.659 69.4923V79.3325C331.659 81.2999 330.064 82.8949 328.097 82.8949Z" fill="#B3825D"/>
<path d="M324.646 68.4523L331.156 68.4285C332.529 68.4229 332.643 63.69 330.362 64.2574L329.933 64.5238C329.408 64.1524 328.78 63.9541 328.138 63.9568L324.628 63.9786C323.602 63.9828 322.774 64.8177 322.778 65.8436C322.782 66.8695 323.62 68.4564 324.646 68.4523Z" fill="#76F7FF"/>
<path d="M325.574 71.7824C325.772 71.7824 325.933 71.622 325.933 71.4241C325.933 71.2263 325.772 71.0659 325.574 71.0659C325.377 71.0659 325.216 71.2263 325.216 71.4241C325.216 71.622 325.377 71.7824 325.574 71.7824Z" fill="#303030"/>
<path d="M328.766 71.7824C328.964 71.7824 329.124 71.622 329.124 71.4241C329.124 71.2263 328.964 71.0659 328.766 71.0659C328.568 71.0659 328.408 71.2263 328.408 71.4241C328.408 71.622 328.568 71.7824 328.766 71.7824Z" fill="#303030"/>
<path d="M326.997 76.6159C326.879 76.6159 326.759 76.5749 326.654 76.4958C326.478 76.3643 326.356 76.1448 326.335 75.9224C326.304 75.5972 326.427 75.2933 326.547 74.9994L326.58 74.9169C326.907 74.1003 327.098 73.2411 327.148 72.3628L327.327 72.3729C327.277 73.2706 327.082 74.1491 326.747 74.9837L326.714 75.0672C326.602 75.341 326.487 75.6239 326.514 75.9055C326.53 76.0759 326.627 76.2512 326.761 76.3515C326.828 76.401 326.933 76.454 327.06 76.4297L327.095 76.6065C327.063 76.6129 327.03 76.6159 326.997 76.6159Z" fill="#303030"/>
<path d="M326.952 78.7468C326.738 78.7468 326.585 78.7119 326.572 78.7085L326.613 78.5332C326.619 78.5346 327.277 78.6831 327.748 78.3278C328.049 78.1012 328.214 77.7161 328.239 77.1838L328.419 77.1922C328.391 77.7815 328.201 78.2123 327.856 78.4726C327.56 78.6951 327.211 78.7468 326.952 78.7468Z" fill="#303030"/>
<path d="M327.953 92.3818C327.833 92.3818 327.758 92.3771 327.743 92.3761C327.634 92.3686 327.552 92.2741 327.559 92.1649C327.567 92.0559 327.658 91.9727 327.77 91.9809C327.79 91.9816 329.81 92.1028 331.19 90.8123C332.062 89.9978 332.504 88.7937 332.504 87.2337C332.504 87.1241 332.592 87.0356 332.702 87.0356C332.811 87.0356 332.9 87.1241 332.9 87.2337C332.9 88.9096 332.415 90.2119 331.458 91.1044C330.207 92.2717 328.537 92.3818 327.953 92.3818Z" fill="#B3CAF8"/>
<path d="M362.558 113.239L351.236 113.223L351.234 114.941L362.556 114.956L362.558 113.239Z" fill="#B3CAF8"/>
<path d="M361.228 111.519L349.907 111.503L349.905 113.221L361.226 113.236L361.228 111.519Z" fill="#18204D"/>
<path d="M362.942 109.803L351.621 109.788L351.619 111.505L362.94 111.521L362.942 109.803Z" fill="#76F7FF"/>
<path d="M298.33 114.798H291.415C291.415 113.661 292.336 112.74 293.473 112.74H296.272C297.409 112.74 298.33 113.661 298.33 114.798Z" fill="#76F7FF"/>
<path d="M356.421 119.07H260.066C259.835 119.07 259.647 118.883 259.647 118.651C259.647 118.42 259.835 118.233 260.066 118.233H356.421C356.652 118.233 356.84 118.42 356.84 118.651C356.84 118.883 356.652 119.07 356.421 119.07Z" fill="#B3CAF8"/>
<path d="M347.1 69.7456C349.698 69.7456 351.803 67.6402 351.803 65.043C351.803 62.4459 349.698 60.3406 347.1 60.3406C344.503 60.3406 342.398 62.4459 342.398 65.043C342.398 67.6402 344.503 69.7456 347.1 69.7456Z" fill="#76F7FF"/>
<path d="M325.928 70.1819L324.002 70.6459L324.044 70.8211L325.97 70.3571L325.928 70.1819Z" fill="#303030"/>
<path d="M328.325 70.1819L328.283 70.3571L330.209 70.8205L330.251 70.6452L328.325 70.1819Z" fill="#303030"/>
<path d="M330.236 69.1838C330.286 69.1838 330.326 69.1436 330.326 69.0939C330.326 69.0441 330.286 69.0039 330.236 69.0039C330.187 69.0039 330.146 69.0441 330.146 69.0939C330.146 69.1436 330.187 69.1838 330.236 69.1838Z" fill="#76F7FF"/>
<path d="M330.146 68.7908C330.196 68.7908 330.237 68.7506 330.237 68.7008C330.237 68.6511 330.196 68.6108 330.146 68.6108C330.097 68.6108 330.057 68.6511 330.057 68.7008C330.057 68.7506 330.097 68.7908 330.146 68.7908Z" fill="#76F7FF"/>
<path d="M329.472 68.7908C329.521 68.7908 329.562 68.7506 329.562 68.7008C329.562 68.6511 329.521 68.6108 329.472 68.6108C329.422 68.6108 329.382 68.6511 329.382 68.7008C329.382 68.7506 329.422 68.7908 329.472 68.7908Z" fill="#76F7FF"/>
<path d="M329.806 68.7908C329.855 68.7908 329.896 68.7506 329.896 68.7008C329.896 68.6511 329.855 68.6108 329.806 68.6108C329.756 68.6108 329.716 68.6511 329.716 68.7008C329.716 68.7506 329.756 68.7908 329.806 68.7908Z" fill="#76F7FF"/>
<path d="M331.207 68.7908C331.257 68.7908 331.297 68.7506 331.297 68.7008C331.297 68.6511 331.257 68.6108 331.207 68.6108C331.158 68.6108 331.117 68.6511 331.117 68.7008C331.117 68.7506 331.158 68.7908 331.207 68.7908Z" fill="#76F7FF"/>
<path d="M330.536 68.7908C330.586 68.7908 330.626 68.7506 330.626 68.7008C330.626 68.6511 330.586 68.6108 330.536 68.6108C330.487 68.6108 330.446 68.6511 330.446 68.7008C330.446 68.7506 330.487 68.7908 330.536 68.7908Z" fill="#76F7FF"/>
<path d="M330.87 68.7908C330.92 68.7908 330.961 68.7506 330.961 68.7008C330.961 68.6511 330.92 68.6108 330.87 68.6108C330.821 68.6108 330.781 68.6511 330.781 68.7008C330.781 68.7506 330.821 68.7908 330.87 68.7908Z" fill="#76F7FF"/>
<path d="M331.316 69.1012C331.366 69.1012 331.406 69.0609 331.406 69.0113C331.406 68.9615 331.366 68.9211 331.316 68.9211C331.266 68.9211 331.226 68.9615 331.226 69.0113C331.226 69.0609 331.266 69.1012 331.316 69.1012Z" fill="#76F7FF"/>
<path d="M330.61 69.1811C330.659 69.1811 330.7 69.1407 330.7 69.0909C330.7 69.0414 330.659 69.001 330.61 69.001C330.56 69.001 330.52 69.0414 330.52 69.0909C330.52 69.1407 330.56 69.1811 330.61 69.1811Z" fill="#76F7FF"/>
<path d="M330.983 69.1838C331.033 69.1838 331.073 69.1436 331.073 69.0939C331.073 69.0441 331.033 69.0039 330.983 69.0039C330.933 69.0039 330.893 69.0441 330.893 69.0939C330.893 69.1436 330.933 69.1838 330.983 69.1838Z" fill="#76F7FF"/>
<path d="M331.363 69.4338C331.413 69.4338 331.453 69.3936 331.453 69.3439C331.453 69.2941 331.413 69.2539 331.363 69.2539C331.314 69.2539 331.273 69.2941 331.273 69.3439C331.273 69.3936 331.314 69.4338 331.363 69.4338Z" fill="#76F7FF"/>
<path d="M330.623 69.5244C330.673 69.5244 330.713 69.4842 330.713 69.4344C330.713 69.3847 330.673 69.3445 330.623 69.3445C330.574 69.3445 330.533 69.3847 330.533 69.4344C330.533 69.4842 330.574 69.5244 330.623 69.5244Z" fill="#76F7FF"/>
<path d="M331.033 69.5168C331.083 69.5168 331.124 69.4766 331.124 69.4269C331.124 69.3771 331.083 69.3369 331.033 69.3369C330.984 69.3369 330.943 69.3771 330.943 69.4269C330.943 69.4766 330.984 69.5168 331.033 69.5168Z" fill="#76F7FF"/>
<path d="M331.386 69.7759C331.436 69.7759 331.477 69.7357 331.477 69.6859C331.477 69.6362 331.436 69.5959 331.386 69.5959C331.337 69.5959 331.297 69.6362 331.297 69.6859C331.297 69.7357 331.337 69.7759 331.386 69.7759Z" fill="#76F7FF"/>
<path d="M331.059 69.8601C331.109 69.8601 331.149 69.8199 331.149 69.7701C331.149 69.7204 331.109 69.6802 331.059 69.6802C331.01 69.6802 330.969 69.7204 330.969 69.7701C330.969 69.8199 331.01 69.8601 331.059 69.8601Z" fill="#76F7FF"/>
<path d="M331.418 70.1191C331.467 70.1191 331.508 70.0788 331.508 70.0292C331.508 69.9794 331.467 69.9392 331.418 69.9392C331.368 69.9392 331.328 69.9794 331.328 70.0292C331.328 70.0788 331.368 70.1191 331.418 70.1191Z" fill="#76F7FF"/>
<path d="M331.084 70.2036C331.133 70.2036 331.174 70.1634 331.174 70.1136C331.174 70.0639 331.133 70.0237 331.084 70.0237C331.034 70.0237 330.994 70.0639 330.994 70.1136C330.994 70.1634 331.034 70.2036 331.084 70.2036Z" fill="#76F7FF"/>
<path d="M331.418 70.4643C331.467 70.4643 331.508 70.4239 331.508 70.3741C331.508 70.3246 331.467 70.2842 331.418 70.2842C331.368 70.2842 331.328 70.3246 331.328 70.3741C331.328 70.4239 331.368 70.4643 331.418 70.4643Z" fill="#76F7FF"/>
<path d="M331.084 70.5469C331.133 70.5469 331.174 70.5065 331.174 70.4569C331.174 70.4072 331.133 70.3669 331.084 70.3669C331.034 70.3669 330.994 70.4072 330.994 70.4569C330.994 70.5065 331.034 70.5469 331.084 70.5469Z" fill="#76F7FF"/>
<path d="M331.418 70.8076C331.467 70.8076 331.508 70.7674 331.508 70.7177C331.508 70.6679 331.467 70.6277 331.418 70.6277C331.368 70.6277 331.328 70.6679 331.328 70.7177C331.328 70.7674 331.368 70.8076 331.418 70.8076Z" fill="#76F7FF"/>
<path d="M331.084 70.8996C331.133 70.8996 331.174 70.8592 331.174 70.8096C331.174 70.7599 331.133 70.7195 331.084 70.7195C331.034 70.7195 330.994 70.7599 330.994 70.8096C330.994 70.8592 331.034 70.8996 331.084 70.8996Z" fill="#76F7FF"/>
<path d="M331.418 71.1584C331.467 71.1584 331.508 71.1182 331.508 71.0685C331.508 71.0187 331.467 70.9785 331.418 70.9785C331.368 70.9785 331.328 71.0187 331.328 71.0685C331.328 71.1182 331.368 71.1584 331.418 71.1584Z" fill="#76F7FF"/>
<path d="M331.084 71.2505C331.133 71.2505 331.174 71.2103 331.174 71.1605C331.174 71.1109 331.133 71.0706 331.084 71.0706C331.034 71.0706 330.994 71.1109 330.994 71.1605C330.994 71.2103 331.034 71.2505 331.084 71.2505Z" fill="#76F7FF"/>
<path d="M245.925 71.2585L285.186 72.6295C285.633 72.645 286.273 73.1265 286.613 73.7035L288.229 76.4412L288.384 76.4467L286.769 73.7088C286.364 73.0224 285.601 72.4486 285.068 72.4299L245.807 71.0588C245.275 71.0403 245.172 71.5841 245.577 72.2704L247.192 75.0082L247.347 75.0135L245.732 72.2759C245.391 71.6989 245.479 71.243 245.925 71.2585Z" fill="#B3CAF8"/>
<path fill-rule="evenodd" clip-rule="evenodd" d="M285.228 72.4513C285.171 72.4392 285.117 72.432 285.064 72.4301L245.803 71.059C245.438 71.0463 245.275 71.2991 245.34 71.6811C245.37 71.8552 245.447 72.0558 245.573 72.2706L247.189 75.0083L247.343 75.0136L245.728 72.276C245.713 72.2516 245.7 72.2274 245.687 72.2035C245.578 72.0003 245.523 71.8148 245.52 71.6628C245.515 71.4092 245.654 71.2493 245.921 71.2587L285.182 72.6296C285.188 72.63 285.195 72.6303 285.201 72.6307C285.647 72.6591 286.274 73.1349 286.61 73.7036L288.225 76.4414L288.381 76.4469L286.765 73.7091C286.751 73.685 286.736 73.6612 286.721 73.6376C286.349 73.0498 285.724 72.5583 285.228 72.4513ZM245.915 71.4394L285.176 72.8104C285.346 72.8164 285.582 72.916 285.827 73.1007C286.068 73.2819 286.296 73.5291 286.454 73.7955L288.119 76.6187L288.704 76.6391L286.921 73.6172C286.705 73.2518 286.397 72.9194 286.071 72.6747C285.751 72.4333 285.391 72.2605 285.071 72.2493L245.81 70.8782C245.646 70.8726 245.496 70.9097 245.377 70.9998C245.257 71.0905 245.187 71.2211 245.159 71.3667C245.106 71.6486 245.205 72.0027 245.417 72.3625L247.083 75.1856L247.667 75.2058L245.884 72.1841C245.884 72.1841 245.884 72.1841 245.884 72.1841C245.723 71.9122 245.684 71.7008 245.707 71.5791C245.718 71.523 245.74 71.4922 245.764 71.4744C245.789 71.4555 245.834 71.4367 245.915 71.4394Z" fill="#B3CAF8"/>
<path d="M304.669 104.05L303.628 102.286L292.654 83.6883L290.639 80.2733L290.484 80.2678L292.499 83.6828L303.472 102.28L304.513 104.044C304.853 104.62 304.767 105.077 304.32 105.062L265.059 103.691C264.613 103.675 263.971 103.192 263.632 102.617L263.104 101.722L259.776 96.0816L259.143 95.009L255.815 89.37L254.945 87.8955L251.617 82.2552L249.602 78.8402L249.448 78.8347L251.463 82.2497L254.791 87.8901L255.661 89.3645L258.988 95.0035L259.621 96.0761L262.949 101.716L263.477 102.611C263.882 103.298 264.645 103.872 265.177 103.89L304.438 105.261C304.971 105.28 305.074 104.736 304.669 104.05Z" fill="#B3CAF8"/>
<path fill-rule="evenodd" clip-rule="evenodd" d="M290.745 80.0954L292.811 83.5959L304.825 103.958C305.037 104.317 305.137 104.671 305.083 104.953C305.055 105.099 304.985 105.23 304.865 105.32C304.746 105.41 304.595 105.447 304.432 105.442L265.171 104.071C264.851 104.06 264.492 103.887 264.171 103.645C263.846 103.401 263.537 103.068 263.322 102.703L259.465 96.1675L251.307 82.3413L249.124 78.6418L249.708 78.6624L255.101 87.8031L259.299 94.9166L263.26 101.63L263.788 102.524C263.945 102.79 264.173 103.037 264.415 103.219C264.66 103.404 264.896 103.504 265.066 103.509L304.327 104.881C304.408 104.883 304.453 104.864 304.478 104.846C304.501 104.828 304.524 104.797 304.534 104.741C304.557 104.619 304.518 104.407 304.358 104.136L290.161 80.0749L290.745 80.0954ZM304.513 104.044C304.528 104.069 304.542 104.093 304.555 104.117C304.662 104.317 304.716 104.5 304.721 104.651C304.728 104.908 304.59 105.071 304.32 105.061L265.059 103.69C265.053 103.69 265.047 103.69 265.041 103.689C264.596 103.661 263.967 103.184 263.632 102.616L249.603 78.8397L249.448 78.8342L263.477 102.611C263.491 102.635 263.506 102.658 263.521 102.682C263.893 103.27 264.519 103.762 265.015 103.869C265.071 103.881 265.125 103.888 265.177 103.89L304.438 105.261C304.807 105.274 304.97 105.017 304.901 104.631C304.871 104.459 304.794 104.261 304.669 104.049L290.64 80.2728L290.484 80.2673L304.513 104.044Z" fill="#B3CAF8"/>
<path d="M331.418 71.511C331.467 71.511 331.508 71.4706 331.508 71.421C331.508 71.3713 331.467 71.3311 331.418 71.3311C331.368 71.3311 331.328 71.3713 331.328 71.421C331.328 71.4706 331.368 71.511 331.418 71.511Z" fill="#76F7FF"/>
<path d="M330.701 69.8677C330.75 69.8677 330.791 69.8275 330.791 69.7777C330.791 69.728 330.75 69.6877 330.701 69.6877C330.651 69.6877 330.611 69.728 330.611 69.7777C330.611 69.8275 330.651 69.8677 330.701 69.8677Z" fill="#76F7FF"/>
<path d="M290.295 115.077H284.6L280.289 107.278L285.983 107.522L290.295 115.077Z" fill="#B3CAF8"/>
<path opacity="0.2" d="M289.645 114.025L284.094 114.066L283.188 112.508L288.739 112.467L289.645 114.025Z" fill="#303030"/>
<path d="M299.462 115.077H275.32V114.944C275.32 114.459 275.713 114.067 276.197 114.067H298.585C299.069 114.067 299.462 114.459 299.462 114.944V115.077Z" fill="#B3CAF8"/>
<path d="M240.192 74.7627L247.191 75.0071L247.345 75.0126L248.156 75.0408L287.417 76.4119L288.227 76.4401L288.383 76.4456L290.976 76.5362C291.794 76.5647 292.964 77.4443 293.588 78.5015C294.211 79.5575 294.052 80.3919 293.234 80.3633L290.641 80.2728L290.485 80.2673L289.675 80.239L250.414 78.8679L249.603 78.8397L249.449 78.8342L242.45 78.5898C241.631 78.5612 240.461 77.6805 239.838 76.6245C239.215 75.5673 239.373 74.7341 240.192 74.7627Z" fill="#76F7FF"/>
<path d="M291.69 83.6559L275.125 83.0774L286.098 101.675L302.664 102.253L303.474 102.282L292.501 83.6841L291.69 83.6559Z" fill="#76F7FF"/>
<path d="M296.733 83.8305L292.464 83.6814L303.438 102.279L307.706 102.428L296.733 83.8305Z" fill="#76F7FF"/>
<path d="M242.878 81.9976L246.206 87.6379L256.021 87.934L252.693 82.2937L242.878 81.9976Z" fill="#76F7FF"/>
<path d="M272.063 82.9692L252.426 82.2834L251.615 82.2551L254.943 87.8953L255.754 87.9237L275.392 88.6095L272.063 82.9692Z" fill="#76F7FF"/>
<path d="M333.635 115.295H308.243V114.76C308.243 114.205 308.693 113.755 309.248 113.755H332.63C333.185 113.755 333.635 114.205 333.635 114.76V115.295Z" fill="#76F7FF"/>
<path d="M316.634 138.381H251.677C249.955 138.381 248.559 136.986 248.559 135.264V123.832C248.559 122.11 249.955 120.715 251.677 120.715H316.634C318.356 120.715 319.751 122.11 319.751 123.832V135.264C319.751 136.986 318.356 138.381 316.634 138.381Z" fill="#B3CAF8"/>
<path d="M363.036 138.381H325.109C323.388 138.381 321.992 136.986 321.992 135.264V123.832C321.992 122.11 323.388 120.715 325.109 120.715H363.036C364.757 120.715 366.153 122.11 366.153 123.832V135.264C366.153 136.986 364.757 138.381 363.036 138.381Z" fill="#B3CAF8"/>
<path d="M368.575 129.74H247.26C246.553 129.74 245.978 129.165 245.978 128.457C245.978 127.75 246.553 127.175 247.26 127.175H368.575C369.282 127.175 369.858 127.75 369.858 128.457C369.858 129.165 369.282 129.74 368.575 129.74ZM247.26 127.56C246.766 127.56 246.363 127.963 246.363 128.457C246.363 128.952 246.766 129.354 247.26 129.354H368.575C369.07 129.354 369.472 128.952 369.472 128.457C369.472 127.963 369.07 127.56 368.575 127.56H247.26Z" fill="#76F7FF"/>
<path d="M274.598 85.4396C274.564 85.4396 274.531 85.4203 274.516 85.3872L274.328 84.9778C274.307 84.9326 274.327 84.8791 274.372 84.8584C274.417 84.8376 274.471 84.8572 274.491 84.9025L274.68 85.3117C274.7 85.3571 274.681 85.4105 274.635 85.4314C274.623 85.437 274.61 85.4396 274.598 85.4396Z" fill="#303030"/>
<path d="M274.037 84.2175C274.004 84.2175 273.971 84.1982 273.956 84.165L273.582 83.3532C273.561 83.308 273.581 83.2544 273.626 83.2337C273.671 83.213 273.725 83.2325 273.746 83.2779L274.119 84.0897C274.14 84.135 274.12 84.1884 274.075 84.2091C274.063 84.2148 274.05 84.2175 274.037 84.2175ZM273.291 82.5938C273.257 82.5938 273.224 82.5745 273.209 82.5414L272.835 81.7296C272.815 81.6843 272.834 81.6309 272.88 81.6102C272.924 81.5891 272.978 81.609 272.999 81.6543L273.373 82.4661C273.393 82.5113 273.374 82.5649 273.328 82.5856C273.316 82.5912 273.303 82.5938 273.291 82.5938ZM272.544 80.9702C272.51 80.9702 272.477 80.9509 272.462 80.9177L272.089 80.1059C272.068 80.0607 272.088 80.0072 272.133 79.9865C272.178 79.9661 272.231 79.9853 272.252 80.0306L272.626 80.8424C272.646 80.8877 272.627 80.9411 272.582 80.962C272.569 80.9675 272.557 80.9702 272.544 80.9702ZM271.797 79.3465C271.763 79.3465 271.73 79.3272 271.715 79.2941L271.342 78.4824C271.321 78.4372 271.341 78.3836 271.386 78.3629C271.431 78.342 271.485 78.3615 271.506 78.4071L271.879 79.2188C271.9 79.264 271.88 79.3176 271.835 79.3383C271.823 79.3439 271.81 79.3465 271.797 79.3465ZM271.05 77.7228C271.016 77.7228 270.984 77.7034 270.969 77.6704L270.595 76.8585C270.575 76.8133 270.594 76.7597 270.639 76.739C270.684 76.718 270.738 76.7378 270.759 76.7832L271.132 77.5949C271.153 77.6403 271.133 77.6937 271.088 77.7146C271.076 77.7202 271.063 77.7228 271.05 77.7228ZM270.304 76.0991C270.27 76.0991 270.237 76.0797 270.222 76.0467L269.848 75.2349C269.828 75.1897 269.847 75.1362 269.892 75.1155C269.937 75.0944 269.991 75.1143 270.012 75.1596L270.385 75.9714C270.406 76.0166 270.386 76.0701 270.341 76.0909C270.329 76.0965 270.316 76.0991 270.304 76.0991ZM269.557 74.4755C269.523 74.4755 269.49 74.4562 269.475 74.4231L269.102 73.6112C269.081 73.566 269.101 73.5126 269.146 73.4917C269.19 73.4714 269.244 73.4905 269.265 73.5359L269.639 74.3478C269.66 74.393 269.64 74.4464 269.595 74.4673C269.582 74.4729 269.57 74.4755 269.557 74.4755ZM268.81 72.852C268.776 72.852 268.743 72.8325 268.728 72.7994L268.355 71.9876C268.334 71.9425 268.354 71.8889 268.399 71.8682C268.444 71.8473 268.497 71.867 268.518 71.9123L268.892 72.7241C268.913 72.7693 268.893 72.8229 268.848 72.8436C268.836 72.8492 268.823 72.852 268.81 72.852ZM268.063 71.2282C268.029 71.2282 267.997 71.2089 267.982 71.1759L267.608 70.3639C267.587 70.3187 267.607 70.2653 267.652 70.2445C267.697 70.2236 267.751 70.2433 267.772 70.2886L268.145 71.1006C268.166 71.1457 268.146 71.1991 268.101 71.22C268.089 71.2257 268.076 71.2282 268.063 71.2282ZM267.316 69.6047C267.282 69.6047 267.25 69.5853 267.235 69.5521L266.861 68.7404C266.841 68.6952 266.86 68.6416 266.906 68.6209C266.951 68.6005 267.004 68.6197 267.025 68.6651L267.398 69.4768C267.419 69.522 267.399 69.5756 267.354 69.5963C267.342 69.6019 267.329 69.6047 267.316 69.6047ZM266.57 67.981C266.536 67.981 266.503 67.9616 266.488 67.9286L266.114 67.1168C266.094 67.0715 266.113 67.0181 266.159 66.9972C266.203 66.9766 266.257 66.996 266.278 67.0415L266.652 67.8533C266.672 67.8985 266.653 67.952 266.607 67.9727C266.595 67.9784 266.582 67.981 266.57 67.981ZM265.823 66.3574C265.789 66.3574 265.756 66.3381 265.741 66.3049L265.368 65.4929C265.347 65.4477 265.367 65.3942 265.412 65.3735C265.457 65.3526 265.511 65.3723 265.532 65.4176L265.905 66.2296C265.926 66.2749 265.906 66.3283 265.86 66.349C265.848 66.3547 265.835 66.3574 265.823 66.3574ZM265.076 64.7335C265.042 64.7335 265.01 64.7142 264.994 64.6811L264.621 63.8694C264.6 63.824 264.62 63.7706 264.665 63.7497C264.71 63.7289 264.764 63.7485 264.785 63.7941L265.158 64.6058C265.179 64.651 265.159 64.7046 265.114 64.7253C265.102 64.7309 265.089 64.7335 265.076 64.7335ZM264.33 63.11C264.295 63.11 264.263 63.0906 264.248 63.0574L264.082 62.6973C264.006 62.5325 263.965 62.3589 263.961 62.1815C263.959 62.1317 263.999 62.0902 264.049 62.089C264.098 62.0949 264.14 62.1272 264.141 62.1768C264.145 62.3298 264.18 62.4796 264.245 62.622L264.411 62.9821C264.432 63.0275 264.412 63.0809 264.367 63.1017C264.355 63.1072 264.342 63.11 264.33 63.11ZM264.345 61.4462C264.324 61.4462 264.303 61.4392 264.286 61.4248C264.249 61.3923 264.244 61.3355 264.276 61.2976C264.487 61.05 264.78 60.8911 265.101 60.8499C265.149 60.842 265.195 60.8783 265.201 60.9279C265.208 60.9772 265.173 61.0224 265.123 61.0287C264.847 61.0642 264.595 61.2013 264.413 61.4145C264.396 61.4354 264.37 61.4462 264.345 61.4462ZM291.919 61.0192H291.025C290.975 61.0192 290.935 60.9789 290.935 60.9291C290.935 60.8793 290.975 60.8391 291.025 60.8391H291.919C291.969 60.8391 292.009 60.8793 292.009 60.9291C292.009 60.9789 291.969 61.0192 291.919 61.0192ZM290.132 61.0192H289.238C289.188 61.0192 289.148 60.9789 289.148 60.9291C289.148 60.8793 289.188 60.8391 289.238 60.8391H290.132C290.181 60.8391 290.222 60.8793 290.222 60.9291C290.222 60.9789 290.181 61.0192 290.132 61.0192ZM288.344 61.0192H287.451C287.401 61.0192 287.361 60.9789 287.361 60.9291C287.361 60.8793 287.401 60.8391 287.451 60.8391H288.344C288.394 60.8391 288.435 60.8793 288.435 60.9291C288.435 60.9789 288.394 61.0192 288.344 61.0192ZM286.557 61.0192H285.664C285.614 61.0192 285.574 60.9789 285.574 60.9291C285.574 60.8793 285.614 60.8391 285.664 60.8391H286.557C286.607 60.8391 286.647 60.8793 286.647 60.9291C286.647 60.9789 286.607 61.0192 286.557 61.0192ZM284.77 61.0192H283.876C283.827 61.0192 283.786 60.9789 283.786 60.9291C283.786 60.8793 283.827 60.8391 283.876 60.8391H284.77C284.82 60.8391 284.86 60.8793 284.86 60.9291C284.86 60.9789 284.82 61.0192 284.77 61.0192ZM282.983 61.0192H282.089C282.04 61.0192 281.999 60.9789 281.999 60.9291C281.999 60.8793 282.04 60.8391 282.089 60.8391H282.983C283.033 60.8391 283.073 60.8793 283.073 60.9291C283.073 60.9789 283.033 61.0192 282.983 61.0192ZM281.196 61.0192H280.302C280.252 61.0192 280.212 60.9789 280.212 60.9291C280.212 60.8793 280.252 60.8391 280.302 60.8391H281.196C281.246 60.8391 281.286 60.8793 281.286 60.9291C281.286 60.9789 281.246 61.0192 281.196 61.0192ZM279.409 61.0192H278.515C278.465 61.0192 278.425 60.9789 278.425 60.9291C278.425 60.8793 278.465 60.8391 278.515 60.8391H279.409C279.459 60.8391 279.499 60.8793 279.499 60.9291C279.499 60.9789 279.459 61.0192 279.409 61.0192ZM277.622 61.0192H276.728C276.678 61.0192 276.638 60.9789 276.638 60.9291C276.638 60.8793 276.678 60.8391 276.728 60.8391H277.622C277.671 60.8391 277.712 60.8793 277.712 60.9291C277.712 60.9789 277.671 61.0192 277.622 61.0192ZM275.834 61.0192H274.941C274.891 61.0192 274.851 60.9789 274.851 60.9291C274.851 60.8793 274.891 60.8391 274.941 60.8391H275.834C275.884 60.8391 275.924 60.8793 275.924 60.9291C275.924 60.9789 275.884 61.0192 275.834 61.0192ZM274.047 61.0192H273.154C273.104 61.0192 273.064 60.9789 273.064 60.9291C273.064 60.8793 273.104 60.8391 273.154 60.8391H274.047C274.097 60.8391 274.137 60.8793 274.137 60.9291C274.137 60.9789 274.097 61.0192 274.047 61.0192ZM272.26 61.0192H271.366C271.317 61.0192 271.276 60.9789 271.276 60.9291C271.276 60.8793 271.317 60.8391 271.366 60.8391H272.26C272.31 60.8391 272.35 60.8793 272.35 60.9291C272.35 60.9789 272.31 61.0192 272.26 61.0192ZM270.473 61.0192H269.579C269.529 61.0192 269.489 60.9789 269.489 60.9291C269.489 60.8793 269.529 60.8391 269.579 60.8391H270.473C270.523 60.8391 270.563 60.8793 270.563 60.9291C270.563 60.9789 270.523 61.0192 270.473 61.0192ZM268.686 61.0192H267.792C267.742 61.0192 267.702 60.9789 267.702 60.9291C267.702 60.8793 267.742 60.8391 267.792 60.8391H268.686C268.736 60.8391 268.776 60.8793 268.776 60.9291C268.776 60.9789 268.736 61.0192 268.686 61.0192ZM266.899 61.0192H266.005C265.955 61.0192 265.915 60.9789 265.915 60.9291C265.915 60.8793 265.955 60.8391 266.005 60.8391H266.899C266.948 60.8391 266.989 60.8793 266.989 60.9291C266.989 60.9789 266.948 61.0192 266.899 61.0192Z" fill="#303030"/>
<path d="M293.266 61.0192H292.815C292.765 61.0192 292.725 60.9789 292.725 60.9291C292.725 60.8793 292.765 60.8391 292.815 60.8391H293.266C293.316 60.8391 293.356 60.8793 293.356 60.9291C293.356 60.9789 293.316 61.0192 293.266 61.0192Z" fill="#303030"/>
<path d="M276.728 86.6718C276.953 86.1077 276.441 85.3729 275.583 85.031C274.725 84.6889 273.848 84.8689 273.623 85.4332C273.398 85.9973 273.911 86.7321 274.768 87.074C275.626 87.4162 276.503 87.2361 276.728 86.6718Z" fill="#303030"/>
<path d="M293.786 62.4719C292.889 62.4719 292.14 61.7811 292.117 60.932C292.107 60.5353 292.255 60.1581 292.535 59.87C292.838 59.5587 293.254 59.3872 293.707 59.3872C294.604 59.3872 295.352 60.078 295.375 60.9271C295.386 61.324 295.238 61.701 294.957 61.9892C294.654 62.3006 294.238 62.4719 293.786 62.4719ZM293.707 59.5674C293.303 59.5674 292.933 59.7194 292.665 59.9957C292.418 60.2486 292.288 60.5793 292.297 60.9271C292.318 61.6796 292.986 62.2917 293.786 62.2917C294.189 62.2917 294.56 62.1397 294.828 61.8634C295.074 61.6106 295.205 61.2798 295.195 60.932C295.175 60.1795 294.507 59.5674 293.707 59.5674Z" fill="#303030"/>
<path d="M293.747 61.6401C294.14 61.6401 294.457 61.3223 294.457 60.9302C294.457 60.5382 294.14 60.2202 293.747 60.2202C293.355 60.2202 293.037 60.5382 293.037 60.9302C293.037 61.3223 293.355 61.6401 293.747 61.6401Z" fill="#76F7FF"/>
<path d="M295.244 64.3074H286.584C286.5 64.3074 286.433 64.2398 286.433 64.1563C286.433 64.0727 286.5 64.0051 286.584 64.0051H295.244C295.327 64.0051 295.395 64.0727 295.395 64.1563C295.395 64.2398 295.327 64.3074 295.244 64.3074Z" fill="#76F7FF"/>
<path d="M295.244 65.1931H286.584C286.5 65.1931 286.433 65.1254 286.433 65.0419C286.433 64.9582 286.5 64.8906 286.584 64.8906H295.244C295.327 64.8906 295.395 64.9582 295.395 65.0419C295.395 65.1254 295.327 65.1931 295.244 65.1931Z" fill="#76F7FF"/>
<path d="M249.066 53.5926H240.407C240.323 53.5926 240.256 53.5251 240.256 53.4415C240.256 53.3579 240.323 53.2903 240.407 53.2903H249.066C249.15 53.2903 249.218 53.3579 249.218 53.4415C249.218 53.5251 249.15 53.5926 249.066 53.5926Z" fill="#76F7FF"/>
<path d="M249.066 54.8609H240.407C240.323 54.8609 240.256 54.7933 240.256 54.7098C240.256 54.6262 240.323 54.5586 240.407 54.5586H249.066C249.15 54.5586 249.218 54.6262 249.218 54.7098C249.218 54.7933 249.15 54.8609 249.066 54.8609Z" fill="#76F7FF"/>
<path d="M259.896 95.0035L256.568 89.3645L254.659 89.3296L257.986 94.9686L259.896 95.0035Z" fill="#18204D"/>
<path d="M259.956 95.0373L264.64 95.2009L261.313 89.562L256.629 89.3984L255.819 89.3701L259.146 95.0091L259.956 95.0373Z" fill="#18204D"/>
<path d="M258.617 96.041L261.945 101.681L263.468 101.716L260.14 96.0761L258.617 96.041Z" fill="#18204D"/>
<path d="M279.591 95.7234L276.264 90.0845L269.612 89.8521L272.939 95.491L279.591 95.7234Z" fill="#18204D"/>
<path d="M272.114 95.4615L268.786 89.8223L262.134 89.5901L265.462 95.2292L272.114 95.4615Z" fill="#18204D"/>
<path d="M253.831 89.3013L247.178 89.0688L250.505 94.708L257.159 94.9402L253.831 89.3013Z" fill="#18204D"/>
<path d="M280.225 96.7957L273.573 96.5635L276.9 102.204L283.553 102.436L280.225 96.7957Z" fill="#18204D"/>
<path d="M266.096 96.303L269.424 101.943L276.076 102.176L272.748 96.5352L266.096 96.303Z" fill="#18204D"/>
<path d="M260.591 96.1098L259.781 96.0815L263.109 101.722L263.919 101.75L268.603 101.914L265.275 96.2732L260.591 96.1098Z" fill="#18204D"/>
<path d="M251.14 95.7803L254.468 101.421L261.121 101.653L257.793 96.0127L251.14 95.7803Z" fill="#18204D"/>
<path opacity="0.160784" d="M302.795 103.283L302.141 102.175L286.895 76.3359L285.667 74.255C285.31 73.6498 284.64 73.1458 284.171 73.1295L246.61 71.8178C246.141 71.8014 246.049 72.2787 246.406 72.8839L247.634 74.9648L249.892 78.7921H249.892L251.907 82.2071L255.235 87.8474L256.105 89.3219L259.544 95.1503L260.065 96.0335L263.393 101.674L263.534 101.912C263.891 102.517 264.562 103.021 265.031 103.038L302.592 104.349C303.061 104.366 303.152 103.888 302.795 103.283Z" fill="#18204D"/>
<g clip-path="url(#clip11_2084:550)">
<rect x="241.537" y="150.613" width="123" height="5" rx="2.5" fill="#FFEECC" fill-opacity="0.6"/>
<rect x="269.537" y="167.613" width="67" height="5" rx="2.5" fill="#FFEECC" fill-opacity="0.6"/>
<rect x="255.056" y="184.613" width="95.9614" height="2.78149" rx="1.39075" fill="#FFEECC" fill-opacity="0.3"/>
<g clip-path="url(#clip12_2084:550)">
<g filter="url(#filter0_b_2084:550)">
<rect x="277.707" y="199.395" width="21.9075" height="21.9075" rx="10.9538" fill="#280049" fill-opacity="0.7"/>
</g>
<g filter="url(#filter1_b_2084:550)">
<rect x="306.46" y="199.395" width="21.9075" height="21.9075" rx="10.9538" fill="#280049" fill-opacity="0.7"/>
</g>
</g>
</g>
<g clip-path="url(#clip13_2084:550)">
<path d="M357.483 51.1059C357.464 51.1061 357.444 51.1009 357.427 51.0908L349.718 46.6399C349.7 46.63 349.686 46.6158 349.676 46.5987C349.666 46.5815 349.661 46.562 349.661 46.5422V37.6404C349.661 37.6206 349.667 37.6012 349.676 37.584C349.686 37.5669 349.701 37.5526 349.718 37.5427C349.735 37.5328 349.754 37.5276 349.774 37.5276C349.793 37.5276 349.813 37.5328 349.83 37.5427L357.54 42.0044C357.557 42.0143 357.571 42.0285 357.581 42.0455C357.59 42.0626 357.596 42.082 357.596 42.1016V50.9936C357.596 51.0133 357.59 51.0327 357.58 51.0497C357.571 51.0668 357.556 51.081 357.539 51.0908C357.522 51.1008 357.503 51.106 357.483 51.1059V51.1059Z" fill="#6D6E71" fill-opacity="0.333333" stroke="#6D6E71" stroke-width="0.704482" stroke-miterlimit="10"/>
<path d="M364.042 51.0918C364.025 51.0819 364.011 51.0677 364.001 51.0507C363.991 51.0336 363.986 51.0143 363.986 50.9945V42.1016C363.986 42.0819 363.991 42.0625 364.001 42.0454C364.011 42.0284 364.025 42.0142 364.042 42.0044L371.751 37.5427C371.769 37.5328 371.788 37.5276 371.808 37.5276C371.827 37.5276 371.847 37.5328 371.864 37.5427C371.881 37.5526 371.895 37.5669 371.905 37.584C371.915 37.6012 371.92 37.6206 371.92 37.6404V46.5432C371.92 46.563 371.915 46.5824 371.905 46.5996C371.895 46.6168 371.881 46.631 371.864 46.6408L364.154 51.0918C364.137 51.1016 364.118 51.1068 364.098 51.1068C364.078 51.1068 364.059 51.1016 364.042 51.0918V51.0918Z" fill="#6D6E71" fill-opacity="0.333333" stroke="#6D6E71" stroke-width="0.704482" stroke-miterlimit="10"/>
<path d="M360.818 36.5158C360.798 36.5159 360.778 36.5107 360.761 36.5007L353.052 32.039C353.035 32.0291 353.021 32.0149 353.011 31.9978C353.001 31.9807 352.996 31.9613 352.996 31.9416C352.996 31.9218 353.001 31.9024 353.011 31.8853C353.021 31.8682 353.035 31.854 353.052 31.8441L360.769 27.3979C360.786 27.3882 360.805 27.3831 360.825 27.3831C360.845 27.3831 360.864 27.3882 360.881 27.3979L368.583 31.8441C368.6 31.8539 368.615 31.8681 368.625 31.8852C368.635 31.9023 368.64 31.9218 368.64 31.9416C368.64 31.9613 368.635 31.9808 368.625 31.9979C368.615 32.015 368.6 32.0292 368.583 32.039L360.874 36.5007C360.857 36.5108 360.837 36.516 360.818 36.5158Z" fill="#6D6E71" fill-opacity="0.333333" stroke="#6D6E71" stroke-width="0.704482" stroke-miterlimit="10"/>
<path d="M354.452 44.528L360.865 48.1887L367.273 44.5243V37.1702L360.873 33.4885L354.452 37.1775V44.528Z" fill="#231F20"/>
<path d="M360.792 51.9999C360.766 51.9997 360.74 51.9928 360.718 51.9797L350.587 46.156C350.564 46.143 350.545 46.1242 350.532 46.1015C350.519 46.0788 350.512 46.0531 350.512 46.0269V34.3339C350.512 34.3077 350.519 34.2821 350.532 34.2594C350.545 34.2367 350.563 34.2179 350.586 34.2047L360.731 28.334C360.753 28.3209 360.779 28.314 360.805 28.314C360.831 28.314 360.857 28.3209 360.88 28.334L370.989 34.193C371.012 34.2061 371.031 34.225 371.044 34.2477C371.057 34.2703 371.063 34.296 371.063 34.3221V46.0208C371.064 46.0469 371.057 46.0726 371.044 46.0953C371.031 46.118 371.012 46.1368 370.989 46.1499L360.866 51.9797C360.844 51.9928 360.818 51.9998 360.792 51.9999V51.9999ZM350.81 45.9414L360.792 51.6787L370.766 45.9344V34.4067L360.805 28.6346L350.81 34.4175V45.9414Z" fill="#E7AA27" stroke="#E7AA27" stroke-width="0.422689" stroke-miterlimit="10"/>
<path d="M366.314 42.7095C366.294 42.7094 366.274 42.7041 366.257 42.694L361.335 39.8202C361.318 39.8104 361.304 39.7963 361.294 39.7795C361.285 39.7626 361.28 39.7434 361.28 39.7239V34.088C361.28 34.0621 361.289 34.0369 361.305 34.0169C361.322 33.9968 361.345 33.9832 361.37 33.9782L367.32 32.8284C367.343 32.824 367.367 32.8269 367.388 32.8365C367.409 32.8462 367.427 32.8623 367.439 32.8824L370.373 37.982C370.385 38.0021 370.39 38.0253 370.388 38.0485C370.385 38.0716 370.376 38.0935 370.361 38.1111L366.397 42.671C366.387 42.6829 366.374 42.6925 366.36 42.6991C366.345 42.7058 366.33 42.7093 366.314 42.7095V42.7095Z" fill="#1E0638" stroke="#330066" stroke-width="0.281793" stroke-miterlimit="10"/>
<path d="M357.959 49.1492C357.936 49.1492 357.913 49.1418 357.894 49.1283C357.875 49.1147 357.861 49.0956 357.853 49.0736L355.883 43.3514C355.875 43.3272 355.875 43.3008 355.883 43.2766C355.892 43.2524 355.908 43.2318 355.93 43.2184L360.838 40.3536C360.855 40.3436 360.874 40.3384 360.894 40.3384C360.914 40.3384 360.933 40.3436 360.95 40.3536L365.873 43.2274C365.895 43.2408 365.911 43.2615 365.92 43.2857C365.928 43.31 365.928 43.3365 365.92 43.3608L363.947 49.06C363.94 49.082 363.925 49.1011 363.906 49.1146C363.887 49.128 363.865 49.1352 363.842 49.1352L357.956 49.1488L357.959 49.1492Z" fill="#1E0638" stroke="#330066" stroke-width="0.281793" stroke-miterlimit="10"/>
<path d="M360.9 33.4942C360.893 33.4949 360.885 33.4949 360.878 33.4942L354.965 32.3351C354.942 32.3308 354.922 32.3198 354.906 32.3035C354.89 32.2872 354.879 32.2664 354.876 32.244C354.872 32.2215 354.875 32.1984 354.885 32.1778C354.895 32.1572 354.911 32.1401 354.93 32.1289L357.914 30.4076C357.931 30.3977 357.95 30.3925 357.97 30.3926V30.3926L363.858 30.4081C363.877 30.4083 363.896 30.4135 363.913 30.4231L366.904 32.1341C366.924 32.1454 366.94 32.1625 366.95 32.1831C366.959 32.2037 366.963 32.2268 366.959 32.2493C366.955 32.2718 366.945 32.2926 366.929 32.3089C366.913 32.3253 366.892 32.3363 366.87 32.3407L360.921 33.4923C360.914 33.4936 360.907 33.4943 360.9 33.4942Z" fill="#1E0638" stroke="#330066" stroke-width="0.281793" stroke-miterlimit="10"/>
<path d="M357.142 49.2264C357.122 49.2264 357.103 49.221 357.085 49.2109L354.119 47.4765C354.102 47.4666 354.089 47.4527 354.079 47.4361L351.117 42.3338C351.107 42.3167 351.102 42.2972 351.102 42.2774L351.109 38.8489C351.109 38.8262 351.116 38.8041 351.129 38.7855C351.142 38.7668 351.16 38.7526 351.181 38.7446C351.203 38.7367 351.226 38.7354 351.248 38.7409C351.27 38.7465 351.29 38.7586 351.304 38.7757L355.254 43.32C355.264 43.3306 355.271 43.3431 355.275 43.3567L357.248 49.0785C357.255 49.1001 357.256 49.1235 357.25 49.1455C357.244 49.1675 357.231 49.187 357.213 49.2015C357.193 49.2177 357.168 49.2265 357.142 49.2264V49.2264Z" fill="#1E0638" stroke="#330066" stroke-width="0.281793" stroke-miterlimit="10"/>
<path d="M364.717 49.2221C364.699 49.2221 364.681 49.2178 364.665 49.2097C364.649 49.2015 364.636 49.1897 364.625 49.1751C364.615 49.1606 364.608 49.1438 364.606 49.1262C364.603 49.1085 364.605 49.0905 364.611 49.0737L366.583 43.3739C366.588 43.3605 366.596 43.3481 366.605 43.3373L370.568 38.7779C370.583 38.7607 370.603 38.7484 370.625 38.7427C370.647 38.7371 370.67 38.7383 370.692 38.7463C370.713 38.7543 370.731 38.7686 370.744 38.7874C370.757 38.8061 370.764 38.8284 370.764 38.8512L370.759 42.3013C370.759 42.3209 370.754 42.3402 370.744 42.3571L367.801 47.4576C367.792 47.4749 367.777 47.4892 367.76 47.4989L364.772 49.208C364.755 49.2174 364.736 49.2223 364.717 49.2221Z" fill="#1E0638" stroke="#330066" stroke-width="0.281793" stroke-miterlimit="10"/>
<path d="M355.461 42.7165C355.446 42.7165 355.43 42.7131 355.415 42.7066C355.401 42.7 355.388 42.6904 355.377 42.6784L351.428 38.1341C351.412 38.1166 351.403 38.0948 351.401 38.0718C351.398 38.0487 351.403 38.0255 351.415 38.0054L354.358 32.8932C354.369 32.873 354.387 32.857 354.408 32.8473C354.43 32.8376 354.453 32.8348 354.476 32.8392L360.39 33.9964C360.415 34.0014 360.438 34.0151 360.455 34.0352C360.471 34.0552 360.48 34.0804 360.48 34.1063V39.7422C360.48 39.7617 360.475 39.7809 360.465 39.7979C360.456 39.8149 360.442 39.829 360.425 39.8389L355.517 42.7038C355.5 42.7129 355.481 42.7173 355.461 42.7165V42.7165Z" fill="#1E0638" stroke="#330066" stroke-width="0.281793" stroke-miterlimit="10"/>
</g>
</g>
<defs>
<filter id="filter0_b_2084:550" x="264.014" y="185.703" width="49.2919" height="49.2919" filterUnits="userSpaceOnUse" color-interpolation-filters="sRGB">
<feFlood flood-opacity="0" result="BackgroundImageFix"/>
<feGaussianBlur in="BackgroundImage" stdDeviation="6.8461"/>
<feComposite in2="SourceAlpha" operator="in" result="effect1_backgroundBlur_2084:550"/>
<feBlend mode="normal" in="SourceGraphic" in2="effect1_backgroundBlur_2084:550" result="shape"/>
</filter>
<filter id="filter1_b_2084:550" x="292.768" y="185.703" width="49.2919" height="49.2919" filterUnits="userSpaceOnUse" color-interpolation-filters="sRGB">
<feFlood flood-opacity="0" result="BackgroundImageFix"/>
<feGaussianBlur in="BackgroundImage" stdDeviation="6.8461"/>
<feComposite in2="SourceAlpha" operator="in" result="effect1_backgroundBlur_2084:550"/>
<feBlend mode="normal" in="SourceGraphic" in2="effect1_backgroundBlur_2084:550" result="shape"/>
</filter>
<clipPath id="clip0_2084:550">
<rect width="193.569" height="199.578" fill="white" transform="translate(18 21)"/>
</clipPath>
<clipPath id="clip1_2084:550">
<rect width="192.03" height="39.3736" fill="white" transform="translate(18 45.377)"/>
</clipPath>
<clipPath id="clip2_2084:550">
<rect width="153.692" height="39.3736" fill="white" transform="translate(56.3381 45.377)"/>
</clipPath>
<clipPath id="clip3_2084:550">
<rect width="153.692" height="13.7384" fill="white" transform="translate(56.3381 45.377)"/>
</clipPath>
<clipPath id="clip4_2084:550">
<rect width="193.569" height="48.0228" fill="white" transform="translate(18 104.751)"/>
</clipPath>
<clipPath id="clip5_2084:550">
<rect width="155.23" height="48.0228" fill="white" transform="translate(56.3381 104.751)"/>
</clipPath>
<clipPath id="clip6_2084:550">
<rect width="155.23" height="13.6922" fill="white" transform="translate(56.3381 104.751)"/>
</clipPath>
<clipPath id="clip7_2084:550">
<rect width="192.199" height="47.8043" fill="white" transform="translate(18 172.773)"/>
</clipPath>
<clipPath id="clip8_2084:550">
<rect width="153.861" height="47.8043" fill="white" transform="translate(56.3381 172.773)"/>
</clipPath>
<clipPath id="clip9_2084:550">
<rect width="153.861" height="13.6922" fill="white" transform="translate(56.3381 172.773)"/>
</clipPath>
<clipPath id="clip10_2084:550">
<rect x="220.953" y="13.6921" width="164.306" height="246.46" rx="6.8461" fill="white"/>
</clipPath>
<clipPath id="clip11_2084:550">
<rect width="123" height="70.689" fill="white" transform="translate(241.537 150.613)"/>
</clipPath>
<clipPath id="clip12_2084:550">
<rect width="50.6611" height="21.9075" fill="white" transform="translate(277.707 199.395)"/>
</clipPath>
<clipPath id="clip13_2084:550">
<rect width="22.2588" height="53.3706" fill="white" transform="translate(349.661 27.3831)"/>
</clipPath>
</defs>
</svg>
