<svg width="183" height="120" viewBox="0 0 183 120" fill="none" xmlns="http://www.w3.org/2000/svg">
<rect width="183" height="120" rx="16" fill="url(#paint0_radial_4281:1)" fill-opacity="0.6"/>
<path d="M145.515 38.8233C145.493 38.8235 145.472 38.8179 145.453 38.8069L137.061 33.9619C137.043 33.9512 137.027 33.9357 137.016 33.917C137.006 33.8983 137 33.8771 137 33.8556V24.1655C137 24.144 137.006 24.1228 137.016 24.1042C137.027 24.0855 137.043 24.07 137.061 24.0592C137.08 24.0484 137.101 24.0427 137.122 24.0427C137.144 24.0427 137.165 24.0484 137.184 24.0592L145.576 28.916C145.595 28.9267 145.61 28.9422 145.621 28.9607C145.631 28.9793 145.637 29.0004 145.637 29.0218V38.7011C145.637 38.7226 145.631 38.7436 145.62 38.7622C145.61 38.7808 145.594 38.7962 145.576 38.8069C145.557 38.8178 145.536 38.8234 145.515 38.8233V38.8233Z" fill="#6D6E71" fill-opacity="0.333333" stroke="#6D6E71" stroke-width="0.766861" stroke-miterlimit="10"/>
<path d="M152.654 38.808C152.636 38.7972 152.62 38.7818 152.609 38.7632C152.599 38.7447 152.593 38.7236 152.593 38.7021V29.0218C152.593 29.0003 152.598 28.9792 152.609 28.9606C152.62 28.942 152.635 28.9266 152.654 28.916L161.046 24.0592C161.065 24.0484 161.086 24.0427 161.107 24.0427C161.129 24.0427 161.15 24.0484 161.168 24.0592C161.187 24.07 161.202 24.0855 161.213 24.1042C161.224 24.1228 161.23 24.144 161.23 24.1655V33.8566C161.23 33.8781 161.224 33.8993 161.213 33.918C161.203 33.9367 161.187 33.9522 161.168 33.9629L152.776 38.808C152.758 38.8187 152.737 38.8243 152.715 38.8243C152.694 38.8243 152.673 38.8187 152.654 38.808V38.808Z" fill="#6D6E71" fill-opacity="0.333333" stroke="#6D6E71" stroke-width="0.766861" stroke-miterlimit="10"/>
<path d="M149.144 22.9414C149.123 22.9415 149.102 22.9359 149.083 22.925L140.691 18.0682C140.672 18.0574 140.657 18.0419 140.646 18.0233C140.636 18.0047 140.63 17.9836 140.63 17.9621C140.63 17.9407 140.636 17.9196 140.646 17.9009C140.657 17.8823 140.672 17.8668 140.691 17.8561L149.091 13.0161C149.11 13.0056 149.131 13 149.152 13C149.174 13 149.195 13.0056 149.213 13.0161L157.598 17.8561C157.616 17.8667 157.632 17.8822 157.643 17.9008C157.654 17.9194 157.659 17.9406 157.659 17.9621C157.659 17.9837 157.654 18.0048 157.643 18.0235C157.632 18.0421 157.616 18.0575 157.598 18.0682L149.206 22.925C149.187 22.9359 149.166 22.9416 149.144 22.9414Z" fill="#6D6E71" fill-opacity="0.333333" stroke="#6D6E71" stroke-width="0.766861" stroke-miterlimit="10"/>
<path d="M142.215 31.6632L149.196 35.6481L156.171 31.6592V23.6539L149.205 19.6462L142.215 23.6618V31.6632Z" fill="#231F20"/>
<path d="M149.116 39.7967C149.088 39.7965 149.06 39.7889 149.036 39.7747L138.007 33.4353C137.982 33.4211 137.962 33.4006 137.948 33.376C137.933 33.3513 137.926 33.3233 137.926 33.2947V20.5664C137.926 20.5379 137.933 20.51 137.947 20.4853C137.962 20.4606 137.982 20.4401 138.007 20.4258L149.049 14.0353C149.074 14.021 149.102 14.0134 149.131 14.0134C149.159 14.0134 149.187 14.021 149.212 14.0353L160.216 20.413C160.241 20.4273 160.261 20.4478 160.276 20.4725C160.29 20.4972 160.297 20.5252 160.297 20.5536V33.2881C160.297 33.3166 160.29 33.3446 160.276 33.3693C160.261 33.3939 160.241 33.4144 160.216 33.4287L149.197 39.7747C149.173 39.789 149.145 39.7965 149.116 39.7967V39.7967ZM138.25 33.2017L149.116 39.447L159.973 33.194V20.6456L149.13 14.3625L138.25 20.6574V33.2017Z" fill="#E7AA27" stroke="#E7AA27" stroke-width="0.460116" stroke-miterlimit="10"/>
<path d="M155.127 29.6835C155.105 29.6834 155.084 29.6776 155.066 29.6666L149.707 26.5383C149.689 26.5277 149.674 26.5124 149.663 26.494C149.653 26.4756 149.647 26.4547 149.647 26.4335V20.2986C149.647 20.2704 149.657 20.243 149.675 20.2212C149.693 20.1994 149.718 20.1845 149.746 20.179L156.223 18.9275C156.247 18.9227 156.273 18.9258 156.296 18.9363C156.319 18.9469 156.339 18.9643 156.351 18.9863L159.546 24.5373C159.558 24.5592 159.564 24.5846 159.561 24.6098C159.559 24.635 159.549 24.6588 159.532 24.6779L155.218 29.6416C155.207 29.6545 155.193 29.665 155.177 29.6722C155.161 29.6794 155.144 29.6833 155.127 29.6835V29.6835Z" fill="#1E0638" stroke="#330066" stroke-width="0.306744" stroke-miterlimit="10"/>
<path d="M146.032 36.6936C146.007 36.6935 145.982 36.6855 145.962 36.6708C145.941 36.656 145.926 36.6352 145.917 36.6113L143.773 30.3823C143.763 30.356 143.763 30.3272 143.773 30.3009C143.782 30.2745 143.8 30.2522 143.824 30.2376L149.166 27.1191C149.184 27.1082 149.206 27.1025 149.227 27.1025C149.249 27.1025 149.27 27.1082 149.288 27.1191L154.647 30.2473C154.671 30.262 154.689 30.2844 154.698 30.3109C154.707 30.3373 154.707 30.3661 154.698 30.3925L152.551 36.5964C152.542 36.6204 152.527 36.6411 152.506 36.6558C152.486 36.6705 152.461 36.6783 152.436 36.6782L146.029 36.6931L146.032 36.6936Z" fill="#1E0638" stroke="#330066" stroke-width="0.306744" stroke-miterlimit="10"/>
<path d="M149.234 19.6524C149.226 19.6531 149.218 19.6531 149.21 19.6524L142.773 18.3906C142.749 18.386 142.726 18.374 142.709 18.3563C142.692 18.3385 142.68 18.3159 142.676 18.2914C142.672 18.2669 142.675 18.2418 142.686 18.2194C142.697 18.197 142.714 18.1784 142.736 18.1662L145.984 16.2925C146.002 16.2817 146.023 16.2761 146.044 16.2761V16.2761L152.453 16.293C152.475 16.2933 152.495 16.2989 152.514 16.3094L155.77 18.1718C155.791 18.1842 155.808 18.2028 155.819 18.2252C155.83 18.2476 155.833 18.2728 155.829 18.2972C155.825 18.3217 155.814 18.3444 155.796 18.3621C155.779 18.3799 155.757 18.392 155.732 18.3967L149.257 19.6503C149.249 19.6518 149.241 19.6524 149.234 19.6524Z" fill="#1E0638" stroke="#330066" stroke-width="0.306744" stroke-miterlimit="10"/>
<path d="M145.143 36.7775C145.121 36.7774 145.1 36.7716 145.082 36.7606L141.853 34.8726C141.834 34.8619 141.819 34.8468 141.809 34.8286L138.585 29.2745C138.574 29.256 138.568 29.2347 138.568 29.2132L138.576 25.4811C138.576 25.4564 138.583 25.4323 138.597 25.412C138.611 25.3917 138.631 25.3762 138.655 25.3676C138.678 25.3589 138.703 25.3575 138.727 25.3635C138.751 25.3696 138.772 25.3828 138.789 25.4014L143.088 30.3481C143.099 30.3597 143.106 30.3732 143.111 30.388L145.258 36.6164C145.267 36.64 145.267 36.6654 145.261 36.6894C145.254 36.7133 145.24 36.7346 145.221 36.7504C145.199 36.768 145.171 36.7775 145.143 36.7775V36.7775Z" fill="#1E0638" stroke="#330066" stroke-width="0.306744" stroke-miterlimit="10"/>
<path d="M153.388 36.7726C153.369 36.7726 153.35 36.768 153.333 36.7591C153.315 36.7502 153.3 36.7373 153.289 36.7215C153.278 36.7057 153.271 36.6874 153.268 36.6682C153.265 36.649 153.267 36.6294 153.273 36.6111L155.421 30.4066C155.426 30.392 155.434 30.3785 155.444 30.3668L159.758 25.4036C159.774 25.3849 159.796 25.3715 159.82 25.3654C159.844 25.3592 159.869 25.3606 159.892 25.3693C159.916 25.3779 159.936 25.3935 159.95 25.4139C159.964 25.4343 159.972 25.4586 159.972 25.4834L159.966 29.239C159.966 29.2603 159.96 29.2813 159.95 29.2998L156.746 34.8519C156.736 34.8707 156.72 34.8863 156.701 34.8969L153.449 36.7573C153.43 36.7675 153.409 36.7728 153.388 36.7726Z" fill="#1E0638" stroke="#330066" stroke-width="0.306744" stroke-miterlimit="10"/>
<path d="M143.314 29.6911C143.297 29.6912 143.28 29.6875 143.264 29.6803C143.248 29.6732 143.234 29.6627 143.223 29.6497L138.923 24.7029C138.906 24.6839 138.896 24.6602 138.894 24.6351C138.891 24.61 138.897 24.5847 138.909 24.5629L142.113 18.998C142.125 18.976 142.145 18.9586 142.168 18.948C142.191 18.9375 142.217 18.9344 142.241 18.9392L148.679 20.1989C148.707 20.2044 148.732 20.2193 148.75 20.2411C148.767 20.2629 148.777 20.2903 148.777 20.3185V26.4534C148.777 26.4747 148.772 26.4956 148.761 26.5141C148.75 26.5326 148.735 26.548 148.717 26.5587L143.375 29.6773C143.356 29.6872 143.335 29.6919 143.314 29.6911V29.6911Z" fill="#1E0638" stroke="#330066" stroke-width="0.306744" stroke-miterlimit="10"/>
<g clip-path="url(#clip0_4281:1)">
<g clip-path="url(#clip1_4281:1)">
<path d="M21 22.3988C20.9996 22.3489 21.0186 22.3007 21.053 22.2646C21.0874 22.2284 21.1345 22.207 21.1844 22.2048H23.4723C25.4433 22.2048 27.0571 23.8084 27.0571 25.7698C27.0558 26.7202 26.6777 27.6312 26.0057 28.3032C25.3337 28.9753 24.4226 29.3533 23.4723 29.3546H21.1844C21.1345 29.3525 21.0874 29.3311 21.053 29.2949C21.0186 29.2587 20.9996 29.2106 21 29.1607V22.3988ZM23.3084 28.6498C24.9836 28.6498 26.1993 27.4546 26.1993 25.7698C26.1993 24.085 24.9836 22.9014 23.3084 22.9014H21.7765V28.6519L23.3084 28.6498Z" fill="#E7AA27" stroke="#E7AA27" stroke-width="0.409768" stroke-miterlimit="10"/>
<path d="M33.0418 22.5845C33.0441 22.5371 33.0645 22.4924 33.0989 22.4598C33.1332 22.4272 33.1787 22.4092 33.2259 22.4097H33.4682L37.8459 27.9006H37.8653V22.693C37.8654 22.6438 37.8849 22.5966 37.9195 22.5619C37.9541 22.5271 38.001 22.5076 38.0499 22.5076H38.3885C38.4369 22.5092 38.4828 22.5293 38.5171 22.5637C38.5514 22.5981 38.5714 22.6443 38.5731 22.693V29.1315C38.5712 29.1793 38.5508 29.2244 38.5163 29.2573C38.4818 29.2901 38.436 29.3081 38.3885 29.3074H38.2137L33.7586 23.8481H33.7486V29.1607C33.7487 29.1851 33.744 29.2093 33.7348 29.2318C33.7255 29.2543 33.712 29.2748 33.6949 29.2921C33.6778 29.3094 33.6574 29.3231 33.6351 29.3324C33.6127 29.3418 33.5887 29.3466 33.5645 29.3466H33.2259C33.1775 29.345 33.1314 29.3249 33.0971 29.2903C33.0628 29.2558 33.0429 29.2095 33.0413 29.1607L33.0418 22.5845Z" fill="#231F20" stroke="#231F20" stroke-width="0.614652" stroke-miterlimit="10"/>
<path d="M29.6285 22.3988C29.6302 22.3479 29.6512 22.2995 29.6872 22.2635C29.7232 22.2275 29.7716 22.2065 29.8225 22.2048H30.2322C30.2828 22.207 30.3306 22.2282 30.3662 22.2642C30.4018 22.3002 30.4225 22.3482 30.4242 22.3988V29.16C30.4224 29.2109 30.4015 29.2592 30.3655 29.2952C30.3294 29.3312 30.2811 29.3522 30.2302 29.3539H29.8204C29.7695 29.3522 29.7212 29.3312 29.6852 29.2952C29.6492 29.2592 29.6282 29.2109 29.6265 29.16L29.6285 22.3988Z" fill="#231F20" stroke="#231F20" stroke-width="0.409768" stroke-miterlimit="10"/>
<path d="M44.8348 22C45.562 21.998 46.2734 22.2116 46.8792 22.614C47.485 23.0163 47.9579 23.5892 48.2381 24.2603C48.5183 24.9313 48.5932 25.6704 48.4533 26.384C48.3135 27.0977 47.9652 27.7538 47.4525 28.2695C46.9397 28.7852 46.2856 29.1373 45.5728 29.2812C44.86 29.4252 44.1205 29.3545 43.4478 29.0782C42.7751 28.8019 42.1995 28.3323 41.7937 27.7288C41.3879 27.1254 41.1702 26.4151 41.168 25.6879C41.1657 25.2048 41.2588 24.7259 41.4419 24.2788C41.6251 23.8316 41.8948 23.4251 42.2355 23.0825C42.5761 22.7398 42.9811 22.4678 43.4272 22.2821C43.8732 22.0963 44.3516 22.0005 44.8348 22V22ZM44.8348 28.6383C45.618 28.6366 46.3689 28.3255 46.9238 27.7726C47.4786 27.2197 47.7924 26.4698 47.7967 25.6866C47.7967 24.0632 46.4588 22.7144 44.8348 22.7144C43.2107 22.7144 41.8831 24.0632 41.8831 25.6866C41.8852 26.4687 42.1969 27.2183 42.75 27.7713C43.3031 28.3244 44.0526 28.6361 44.8348 28.6383V28.6383Z" fill="#231F20" stroke="#231F20" stroke-width="0.409768" stroke-miterlimit="10"/>
<path d="M51.7217 28.2149C51.7984 28.2141 51.8745 28.2286 51.9455 28.2576C52.0165 28.2865 52.081 28.3294 52.1352 28.3837C52.1894 28.438 52.2323 28.5025 52.2612 28.5736C52.2901 28.6446 52.3045 28.7207 52.3036 28.7974C52.3036 28.9518 52.2423 29.0998 52.1332 29.2089C52.024 29.318 51.876 29.3793 51.7217 29.3793C51.5678 29.3777 51.4207 29.3159 51.3118 29.2072C51.2029 29.0984 51.1409 28.9513 51.1392 28.7974C51.1391 28.7209 51.1541 28.6451 51.1833 28.5744C51.2126 28.5037 51.2555 28.4394 51.3096 28.3853C51.3637 28.3312 51.428 28.2883 51.4987 28.259C51.5694 28.2298 51.6452 28.2148 51.7217 28.2149Z" fill="#231F20" stroke="#231F20" stroke-width="0.409768" stroke-miterlimit="10"/>
<path d="M54.8976 22.3988C54.8993 22.3479 54.9202 22.2995 54.9563 22.2635C54.9923 22.2275 55.0406 22.2065 55.0915 22.2048H55.5013C55.5518 22.207 55.5997 22.2282 55.6352 22.2642C55.6708 22.3002 55.6915 22.3482 55.6932 22.3988V29.16C55.6915 29.2109 55.6705 29.2592 55.6345 29.2952C55.5985 29.3312 55.5501 29.3522 55.4992 29.3539H55.0895C55.0386 29.3522 54.9902 29.3312 54.9542 29.2952C54.9182 29.2592 54.8972 29.2109 54.8955 29.16L54.8976 22.3988Z" fill="#330066" stroke="#330066" stroke-width="0.409768" stroke-miterlimit="10"/>
<path d="M61.9771 22C62.7043 21.998 63.4158 22.2116 64.0215 22.614C64.6273 23.0163 65.1002 23.5892 65.3804 24.2603C65.6606 24.9313 65.7355 25.6704 65.5957 26.384C65.4558 27.0977 65.1075 27.7538 64.5948 28.2695C64.0821 28.7852 63.4279 29.1373 62.7151 29.2812C62.0023 29.4252 61.2628 29.3545 60.5901 29.0782C59.9175 28.8019 59.3419 28.3323 58.9361 27.7288C58.5303 27.1254 58.3125 26.4151 58.3103 25.6879C58.308 25.2048 58.4011 24.7259 58.5843 24.2788C58.7675 23.8316 59.0371 23.4251 59.3778 23.0825C59.7185 22.7398 60.1235 22.4678 60.5695 22.2821C61.0156 22.0963 61.4939 22.0005 61.9771 22V22ZM61.9771 28.6383C62.7604 28.6366 63.5113 28.3255 64.0661 27.7726C64.6209 27.2197 64.9347 26.4698 64.939 25.6866C64.939 24.0632 63.6011 22.7144 61.9771 22.7144C60.353 22.7144 59.0254 24.0632 59.0254 25.6866C59.0276 26.4687 59.3392 27.2183 59.8923 27.7713C60.4454 28.3244 61.1949 28.6361 61.9771 28.6383V28.6383Z" fill="#330066" stroke="#330066" stroke-width="0.409768" stroke-miterlimit="10"/>
</g>
<g clip-path="url(#clip2_4281:1)">
<rect x="21" y="41.3193" width="58.9765" height="2.18432" rx="1.09216" fill="#FFEECC" fill-opacity="0.2"/>
<rect x="21" y="47.8723" width="31.6726" height="2.18432" rx="1.09216" fill="#FFEECC" fill-opacity="0.2"/>
<rect x="21" y="54.4253" width="42.5942" height="2.18432" rx="1.09216" fill="#FFEECC" fill-opacity="0.2"/>
<g clip-path="url(#clip3_4281:1)">
<rect x="21" y="60.9783" width="31.6726" height="2.18432" rx="1.09216" fill="#FFEECC" fill-opacity="0.2"/>
<rect x="21" y="76.2686" width="45.3246" height="4.36863" rx="2.18432" fill="#FFEECC" fill-opacity="0.4"/>
</g>
</g>
</g>
<g clip-path="url(#clip4_4281:1)">
<rect x="124.002" y="86.3083" width="37.1463" height="2.18507" rx="1.09254" fill="#FFEECC" fill-opacity="0.3"/>
<rect x="124.002" y="92.8635" width="20.7582" height="2.18507" rx="1.09254" fill="#FFEECC" fill-opacity="0.3"/>
<g clip-path="url(#clip5_4281:1)">
<rect x="124.002" y="99.4187" width="28.9522" height="4.37015" rx="2.18507" fill="#FFEECC" fill-opacity="0.6"/>
</g>
</g>
<defs>
<radialGradient id="paint0_radial_4281:1" cx="0" cy="0" r="1" gradientUnits="userSpaceOnUse" gradientTransform="translate(183 120) rotate(-168.071) scale(408.695 349.103)">
<stop stop-color="#491EB8"/>
<stop offset="0.458333" stop-color="#330066"/>
<stop offset="1" stop-color="#240B77"/>
</radialGradient>
<clipPath id="clip0_4281:1">
<rect width="59" height="60" fill="white" transform="translate(21 22)"/>
</clipPath>
<clipPath id="clip1_4281:1">
<rect width="44.6641" height="7.37928" fill="white" transform="translate(21 22)"/>
</clipPath>
<clipPath id="clip2_4281:1">
<rect width="58.9765" height="39.3177" fill="white" transform="translate(21 41.3193)"/>
</clipPath>
<clipPath id="clip3_4281:1">
<rect width="45.3246" height="19.6588" fill="white" transform="translate(21 60.9783)"/>
</clipPath>
<clipPath id="clip4_4281:1">
<rect width="37.1463" height="17.4806" fill="white" transform="translate(124.002 86.3083)"/>
</clipPath>
<clipPath id="clip5_4281:1">
<rect width="28.9522" height="4.37015" fill="white" transform="translate(124.002 99.4187)"/>
</clipPath>
</defs>
</svg>
