<svg width="183" height="120" viewBox="0 0 183 120" fill="none" xmlns="http://www.w3.org/2000/svg">
<rect width="183" height="120" rx="16" fill="url(#paint0_linear_4281:2)"/>
<path d="M148.515 37.8233C148.493 37.8235 148.472 37.8179 148.453 37.8069L140.061 32.9619C140.043 32.9512 140.027 32.9357 140.016 32.917C140.006 32.8983 140 32.8771 140 32.8556V23.1655C140 23.144 140.006 23.1228 140.016 23.1042C140.027 23.0855 140.043 23.07 140.061 23.0592C140.08 23.0484 140.101 23.0427 140.122 23.0427C140.144 23.0427 140.165 23.0484 140.184 23.0592L148.576 27.916C148.595 27.9267 148.61 27.9422 148.621 27.9607C148.631 27.9793 148.637 28.0004 148.637 28.0218V37.7011C148.637 37.7226 148.631 37.7436 148.62 37.7622C148.61 37.7808 148.594 37.7962 148.576 37.8069C148.557 37.8178 148.536 37.8234 148.515 37.8233V37.8233Z" fill="#6D6E71" fill-opacity="0.333333" stroke="#6D6E71" stroke-width="0.766861" stroke-miterlimit="10"/>
<path d="M155.654 37.808C155.636 37.7972 155.62 37.7818 155.609 37.7632C155.599 37.7447 155.593 37.7236 155.593 37.7021V28.0218C155.593 28.0003 155.598 27.9792 155.609 27.9606C155.62 27.942 155.635 27.9266 155.654 27.916L164.046 23.0592C164.065 23.0484 164.086 23.0427 164.107 23.0427C164.129 23.0427 164.15 23.0484 164.168 23.0592C164.187 23.07 164.202 23.0855 164.213 23.1042C164.224 23.1228 164.23 23.144 164.23 23.1655V32.8566C164.23 32.8781 164.224 32.8993 164.213 32.918C164.203 32.9367 164.187 32.9522 164.168 32.9629L155.776 37.808C155.758 37.8187 155.737 37.8243 155.715 37.8243C155.694 37.8243 155.673 37.8187 155.654 37.808V37.808Z" fill="#6D6E71" fill-opacity="0.333333" stroke="#6D6E71" stroke-width="0.766861" stroke-miterlimit="10"/>
<path d="M152.144 21.9414C152.123 21.9415 152.101 21.9359 152.083 21.925L143.691 17.0682C143.672 17.0574 143.657 17.0419 143.646 17.0233C143.635 17.0047 143.63 16.9836 143.63 16.9621C143.63 16.9407 143.635 16.9196 143.646 16.9009C143.657 16.8823 143.672 16.8668 143.691 16.8561L152.091 12.0161C152.11 12.0056 152.131 12 152.152 12C152.174 12 152.195 12.0056 152.213 12.0161L160.598 16.8561C160.616 16.8667 160.632 16.8822 160.643 16.9008C160.653 16.9194 160.659 16.9406 160.659 16.9621C160.659 16.9837 160.653 17.0048 160.643 17.0235C160.632 17.0421 160.616 17.0575 160.598 17.0682L152.206 21.925C152.187 21.9359 152.166 21.9416 152.144 21.9414Z" fill="#6D6E71" fill-opacity="0.333333" stroke="#6D6E71" stroke-width="0.766861" stroke-miterlimit="10"/>
<path d="M145.215 30.6632L152.196 34.6481L159.172 30.6592V22.6539L152.205 18.6462L145.215 22.6618V30.6632Z" fill="#231F20"/>
<path d="M152.116 38.7967C152.088 38.7965 152.06 38.7889 152.036 38.7747L141.007 32.4353C140.982 32.4211 140.962 32.4006 140.948 32.376C140.933 32.3513 140.926 32.3233 140.926 32.2947V19.5664C140.926 19.5379 140.933 19.51 140.948 19.4853C140.962 19.4606 140.982 19.4401 141.007 19.4258L152.049 13.0353C152.074 13.021 152.102 13.0134 152.131 13.0134C152.159 13.0134 152.187 13.021 152.212 13.0353L163.217 19.413C163.241 19.4273 163.261 19.4478 163.276 19.4725C163.29 19.4972 163.297 19.5252 163.297 19.5536V32.2881C163.297 32.3166 163.29 32.3446 163.276 32.3693C163.262 32.3939 163.241 32.4144 163.217 32.4287L152.197 38.7747C152.173 38.789 152.145 38.7965 152.116 38.7967V38.7967ZM141.25 32.2017L152.116 38.447L162.973 32.194V19.6456L152.13 13.3625L141.25 19.6574V32.2017Z" fill="#E7AA27" stroke="#E7AA27" stroke-width="0.460116" stroke-miterlimit="10"/>
<path d="M158.127 28.6835C158.105 28.6834 158.084 28.6776 158.066 28.6666L152.707 25.5383C152.689 25.5277 152.674 25.5124 152.663 25.494C152.653 25.4756 152.647 25.4547 152.647 25.4335V19.2986C152.647 19.2704 152.657 19.243 152.675 19.2212C152.693 19.1994 152.718 19.1845 152.746 19.179L159.223 17.9275C159.247 17.9227 159.273 17.9258 159.296 17.9363C159.319 17.9469 159.339 17.9643 159.351 17.9863L162.546 23.5373C162.558 23.5592 162.564 23.5846 162.561 23.6098C162.559 23.635 162.549 23.6588 162.532 23.6779L158.218 28.6416C158.207 28.6545 158.193 28.665 158.177 28.6722C158.161 28.6794 158.144 28.6833 158.127 28.6835V28.6835Z" fill="#1E0638" stroke="#330066" stroke-width="0.306744" stroke-miterlimit="10"/>
<path d="M149.033 35.6936C149.007 35.6935 148.983 35.6855 148.962 35.6708C148.941 35.656 148.926 35.6352 148.918 35.6113L146.773 29.3823C146.764 29.356 146.764 29.3272 146.773 29.3009C146.782 29.2745 146.8 29.2522 146.824 29.2376L152.166 26.1191C152.185 26.1082 152.206 26.1025 152.227 26.1025C152.249 26.1025 152.27 26.1082 152.289 26.1191L157.647 29.2473C157.671 29.262 157.689 29.2844 157.698 29.3109C157.708 29.3373 157.708 29.3661 157.698 29.3925L155.551 35.5964C155.543 35.6204 155.527 35.6411 155.507 35.6558C155.486 35.6705 155.461 35.6783 155.436 35.6782L149.03 35.6931L149.033 35.6936Z" fill="#1E0638" stroke="#330066" stroke-width="0.306744" stroke-miterlimit="10"/>
<path d="M152.234 18.6524C152.226 18.6531 152.218 18.6531 152.21 18.6524L145.773 17.3906C145.749 17.386 145.726 17.374 145.709 17.3563C145.692 17.3385 145.68 17.3159 145.676 17.2914C145.672 17.2669 145.676 17.2418 145.686 17.2194C145.697 17.197 145.714 17.1784 145.736 17.1662L148.984 15.2925C149.002 15.2817 149.023 15.2761 149.045 15.2761V15.2761L155.453 15.293C155.475 15.2933 155.495 15.2989 155.514 15.3094L158.77 17.1718C158.791 17.1842 158.809 17.2028 158.819 17.2252C158.83 17.2476 158.833 17.2728 158.829 17.2972C158.825 17.3217 158.814 17.3444 158.797 17.3621C158.779 17.3799 158.757 17.392 158.733 17.3967L152.257 18.6503C152.249 18.6518 152.241 18.6524 152.234 18.6524Z" fill="#1E0638" stroke="#330066" stroke-width="0.306744" stroke-miterlimit="10"/>
<path d="M148.143 35.7775C148.122 35.7774 148.1 35.7716 148.082 35.7606L144.853 33.8726C144.835 33.8619 144.82 33.8468 144.809 33.8286L141.585 28.2745C141.574 28.256 141.568 28.2347 141.569 28.2132L141.576 24.4811C141.576 24.4564 141.583 24.4323 141.598 24.412C141.612 24.3917 141.632 24.3762 141.655 24.3676C141.678 24.3589 141.703 24.3575 141.727 24.3635C141.751 24.3696 141.773 24.3828 141.789 24.4014L146.088 29.3481C146.099 29.3597 146.107 29.3732 146.112 29.388L148.259 35.6164C148.267 35.64 148.268 35.6654 148.261 35.6894C148.254 35.7133 148.24 35.7346 148.221 35.7504C148.199 35.768 148.171 35.7775 148.143 35.7775V35.7775Z" fill="#1E0638" stroke="#330066" stroke-width="0.306744" stroke-miterlimit="10"/>
<path d="M156.388 35.7726C156.369 35.7726 156.35 35.768 156.333 35.7591C156.315 35.7502 156.301 35.7373 156.289 35.7215C156.278 35.7057 156.271 35.6874 156.268 35.6682C156.265 35.649 156.267 35.6294 156.273 35.6111L158.421 29.4066C158.426 29.392 158.434 29.3785 158.444 29.3668L162.758 24.4036C162.774 24.3849 162.796 24.3715 162.82 24.3654C162.844 24.3592 162.869 24.3606 162.893 24.3693C162.916 24.3779 162.936 24.3935 162.95 24.4139C162.964 24.4343 162.972 24.4586 162.972 24.4834L162.966 28.239C162.966 28.2603 162.96 28.2813 162.95 28.2998L159.746 33.8519C159.736 33.8707 159.72 33.8863 159.701 33.8969L156.449 35.7573C156.43 35.7675 156.41 35.7728 156.388 35.7726Z" fill="#1E0638" stroke="#330066" stroke-width="0.306744" stroke-miterlimit="10"/>
<path d="M146.314 28.6911C146.297 28.6912 146.28 28.6875 146.264 28.6803C146.248 28.6732 146.234 28.6627 146.223 28.6497L141.923 23.7029C141.906 23.6839 141.896 23.6602 141.894 23.6351C141.891 23.61 141.897 23.5847 141.909 23.5629L145.113 17.998C145.125 17.976 145.145 17.9586 145.168 17.948C145.191 17.9375 145.217 17.9344 145.242 17.9392L151.679 19.1989C151.707 19.2044 151.732 19.2193 151.75 19.2411C151.768 19.2629 151.777 19.2903 151.777 19.3185V25.4534C151.777 25.4747 151.772 25.4956 151.761 25.5141C151.751 25.5326 151.735 25.548 151.717 25.5587L146.375 28.6773C146.356 28.6872 146.335 28.6919 146.314 28.6911V28.6911Z" fill="#1E0638" stroke="#330066" stroke-width="0.306744" stroke-miterlimit="10"/>
<g clip-path="url(#clip0_4281:2)">
<g clip-path="url(#clip1_4281:2)">
<path d="M24 21.3988C23.9996 21.3489 24.0186 21.3007 24.053 21.2646C24.0874 21.2284 24.1345 21.207 24.1844 21.2048H26.4723C28.4433 21.2048 30.0571 22.8084 30.0571 24.7698C30.0558 25.7202 29.6777 26.6312 29.0057 27.3032C28.3337 27.9753 27.4226 28.3533 26.4723 28.3546H24.1844C24.1345 28.3525 24.0874 28.3311 24.053 28.2949C24.0186 28.2587 23.9996 28.2106 24 28.1607V21.3988ZM26.3084 27.6498C27.9836 27.6498 29.1993 26.4546 29.1993 24.7698C29.1993 23.085 27.9836 21.9014 26.3084 21.9014H24.7765V27.6519L26.3084 27.6498Z" fill="#E7AA27" stroke="#E7AA27" stroke-width="0.409768" stroke-miterlimit="10"/>
<path d="M36.0416 21.5845C36.0439 21.5371 36.0644 21.4924 36.0987 21.4598C36.1331 21.4272 36.1786 21.4092 36.2258 21.4097H36.468L40.8458 26.9006H40.8651V21.693C40.8653 21.6438 40.8848 21.5966 40.9194 21.5619C40.954 21.5271 41.0009 21.5076 41.0498 21.5076H41.3884C41.4367 21.5092 41.4827 21.5293 41.517 21.5637C41.5513 21.5981 41.5713 21.6443 41.573 21.693V28.1315C41.5711 28.1793 41.5507 28.2244 41.5162 28.2573C41.4817 28.2901 41.4358 28.3081 41.3884 28.3074H41.2136L36.7584 22.8481H36.7485V28.1607C36.7486 28.1851 36.7439 28.2093 36.7346 28.2318C36.7254 28.2543 36.7118 28.2748 36.6947 28.2921C36.6776 28.3094 36.6573 28.3231 36.6349 28.3324C36.6126 28.3418 36.5886 28.3466 36.5643 28.3466H36.2258C36.1773 28.345 36.1313 28.3249 36.097 28.2903C36.0627 28.2558 36.0427 28.2095 36.0411 28.1607L36.0416 21.5845Z" fill="#231F20" stroke="#231F20" stroke-width="0.614652" stroke-miterlimit="10"/>
<path d="M32.6284 21.3988C32.6301 21.3479 32.6511 21.2995 32.6871 21.2635C32.7231 21.2275 32.7714 21.2065 32.8223 21.2048H33.2321C33.2827 21.207 33.3305 21.2282 33.3661 21.2642C33.4017 21.3002 33.4224 21.3482 33.424 21.3988V28.16C33.4223 28.2109 33.4013 28.2592 33.3653 28.2952C33.3293 28.3312 33.281 28.3522 33.2301 28.3539H32.8203C32.7694 28.3522 32.7211 28.3312 32.685 28.2952C32.649 28.2592 32.628 28.2109 32.6263 28.16L32.6284 21.3988Z" fill="#231F20" stroke="#231F20" stroke-width="0.409768" stroke-miterlimit="10"/>
<path d="M47.8349 21C48.5621 20.998 49.2736 21.2116 49.8793 21.614C50.4851 22.0163 50.958 22.5892 51.2382 23.2603C51.5184 23.9313 51.5933 24.6704 51.4535 25.384C51.3136 26.0977 50.9653 26.7538 50.4526 27.2695C49.9399 27.7852 49.2857 28.1373 48.5729 28.2812C47.8601 28.4252 47.1206 28.3545 46.4479 28.0782C45.7753 27.8019 45.1996 27.3323 44.7938 26.7288C44.388 26.1254 44.1703 25.4151 44.1681 24.6879C44.1658 24.2048 44.2589 23.7259 44.4421 23.2788C44.6253 22.8316 44.8949 22.4251 45.2356 22.0825C45.5763 21.7398 45.9813 21.4678 46.4273 21.2821C46.8734 21.0963 47.3517 21.0005 47.8349 21V21ZM47.8349 27.6383C48.6182 27.6366 49.3691 27.3255 49.9239 26.7726C50.4787 26.2197 50.7925 25.4698 50.7968 24.6866C50.7968 23.0632 49.4589 21.7144 47.8349 21.7144C46.2108 21.7144 44.8832 23.0632 44.8832 24.6866C44.8853 25.4687 45.197 26.2183 45.7501 26.7713C46.3032 27.3244 47.0527 27.6361 47.8349 27.6383V27.6383Z" fill="#231F20" stroke="#231F20" stroke-width="0.409768" stroke-miterlimit="10"/>
<path d="M54.7218 27.2149C54.7985 27.2141 54.8746 27.2286 54.9456 27.2576C55.0167 27.2865 55.0812 27.3294 55.1354 27.3837C55.1896 27.438 55.2324 27.5025 55.2613 27.5736C55.2902 27.6446 55.3046 27.7207 55.3037 27.7974C55.3037 27.9518 55.2424 28.0998 55.1333 28.2089C55.0242 28.318 54.8762 28.3793 54.7218 28.3793C54.5679 28.3777 54.4208 28.3159 54.3119 28.2072C54.203 28.0984 54.1411 27.9513 54.1393 27.7974C54.1392 27.7209 54.1542 27.6451 54.1834 27.5744C54.2127 27.5037 54.2556 27.4394 54.3097 27.3853C54.3638 27.3312 54.4281 27.2883 54.4988 27.259C54.5695 27.2298 54.6453 27.2148 54.7218 27.2149Z" fill="#231F20" stroke="#231F20" stroke-width="0.409768" stroke-miterlimit="10"/>
<path d="M57.8974 21.3988C57.8991 21.3479 57.9201 21.2995 57.9561 21.2635C57.9921 21.2275 58.0405 21.2065 58.0914 21.2048H58.5012C58.5517 21.207 58.5995 21.2282 58.6351 21.2642C58.6707 21.3002 58.6914 21.3482 58.6931 21.3988V28.16C58.6914 28.2109 58.6704 28.2592 58.6344 28.2952C58.5984 28.3312 58.55 28.3522 58.4991 28.3539H58.0893C58.0384 28.3522 57.9901 28.3312 57.9541 28.2952C57.9181 28.2592 57.8971 28.2109 57.8954 28.16L57.8974 21.3988Z" fill="#330066" stroke="#330066" stroke-width="0.409768" stroke-miterlimit="10"/>
<path d="M64.977 21C65.7042 20.998 66.4156 21.2116 67.0214 21.614C67.6272 22.0163 68.1001 22.5892 68.3803 23.2603C68.6605 23.9313 68.7354 24.6704 68.5956 25.384C68.4557 26.0977 68.1074 26.7538 67.5947 27.2695C67.082 27.7852 66.4278 28.1373 65.715 28.2812C65.0022 28.4252 64.2627 28.3545 63.59 28.0782C62.9174 27.8019 62.3417 27.3323 61.9359 26.7288C61.5301 26.1254 61.3124 25.4151 61.3102 24.6879C61.3079 24.2048 61.401 23.7259 61.5842 23.2788C61.7673 22.8316 62.037 22.4251 62.3777 22.0825C62.7184 21.7398 63.1233 21.4678 63.5694 21.2821C64.0154 21.0963 64.4938 21.0005 64.977 21V21ZM64.977 27.6383C65.7603 27.6366 66.5112 27.3255 67.066 26.7726C67.6208 26.2197 67.9346 25.4698 67.9389 24.6866C67.9389 23.0632 66.601 21.7144 64.977 21.7144C63.3529 21.7144 62.0253 23.0632 62.0253 24.6866C62.0274 25.4687 62.3391 26.2183 62.8922 26.7713C63.4453 27.3244 64.1948 27.6361 64.977 27.6383V27.6383Z" fill="#330066" stroke="#330066" stroke-width="0.409768" stroke-miterlimit="10"/>
</g>
<g clip-path="url(#clip2_4281:2)">
<rect x="24" y="40.3193" width="58.9765" height="2.18432" rx="1.09216" fill="#FFEECC" fill-opacity="0.2"/>
<rect x="24" y="46.8723" width="31.6726" height="2.18432" rx="1.09216" fill="#FFEECC" fill-opacity="0.2"/>
<rect x="24" y="53.4253" width="42.5942" height="2.18432" rx="1.09216" fill="#FFEECC" fill-opacity="0.2"/>
<g clip-path="url(#clip3_4281:2)">
<rect x="24" y="59.9783" width="31.6726" height="2.18432" rx="1.09216" fill="#FFEECC" fill-opacity="0.2"/>
<rect x="24" y="75.2686" width="45.3246" height="4.36863" rx="2.18432" fill="#FFEECC" fill-opacity="0.4"/>
</g>
</g>
</g>
<defs>
<linearGradient id="paint0_linear_4281:2" x1="91.5412" y1="3.76397e-05" x2="61.5792" y2="133.805" gradientUnits="userSpaceOnUse">
<stop stop-color="#491EB8"/>
<stop offset="0.47845" stop-color="#330066"/>
<stop offset="1" stop-color="#280049"/>
</linearGradient>
<clipPath id="clip0_4281:2">
<rect width="59" height="60" fill="white" transform="translate(24 21)"/>
</clipPath>
<clipPath id="clip1_4281:2">
<rect width="44.6641" height="7.37928" fill="white" transform="translate(24 21)"/>
</clipPath>
<clipPath id="clip2_4281:2">
<rect width="58.9765" height="39.3177" fill="white" transform="translate(24 40.3193)"/>
</clipPath>
<clipPath id="clip3_4281:2">
<rect width="45.3246" height="19.6588" fill="white" transform="translate(24 59.9783)"/>
</clipPath>
</defs>
</svg>
