<svg width="20" height="20" viewBox="0 0 20 20" fill="none" xmlns="http://www.w3.org/2000/svg">
<path d="M13.904 11.0506L11.7827 13.1719L17.7789 19.1681L19.9002 17.0468L13.904 11.0506Z" fill="#815B0C"/>
<path d="M15.5001 8.00005C17.4301 8.00005 19.0001 6.43005 19.0001 4.50005C19.0001 3.92005 18.8401 3.38005 18.5901 2.90005L15.8901 5.60005L14.4001 4.11005L17.1001 1.41005C16.6201 1.16005 16.0801 1.00005 15.5001 1.00005C13.5701 1.00005 12.0001 2.57005 12.0001 4.50005C12.0001 4.91005 12.0801 5.30005 12.2101 5.66005L10.3601 7.51005L8.5801 5.73005L9.2901 5.02005L7.8801 3.61005L10.0001 1.49005C8.8301 0.320049 6.9301 0.320049 5.7601 1.49005L2.2201 5.03005L3.6301 6.44005H0.810098L0.100098 7.15005L3.6401 10.69L4.3501 9.98005V7.15005L5.7601 8.56005L6.4701 7.85005L8.2501 9.63005L0.840098 17.0401L2.9601 19.16L14.3401 7.79005C14.7001 7.92005 15.0901 8.00005 15.5001 8.00005Z" fill="#E7AA27"/>
</svg>
