<svg width="490" height="537" viewBox="0 0 490 537" fill="none" xmlns="http://www.w3.org/2000/svg">
<path d="M174.55 513.112C174.128 513.116 173.714 513.005 173.35 512.792L9.20002 418.022C8.83427 417.812 8.5306 417.509 8.31984 417.143C8.10908 416.778 7.99872 416.364 8.00001 415.942V226.402C8.00075 225.98 8.11196 225.567 8.32252 225.202C8.53308 224.837 8.83563 224.533 9.20002 224.322C9.56302 224.111 9.97529 224 10.395 224C10.8148 224 11.227 224.111 11.59 224.322L175.75 319.322C176.112 319.532 176.413 319.834 176.622 320.198C176.831 320.561 176.941 320.973 176.94 321.392V510.722C176.939 511.142 176.827 511.554 176.616 511.917C176.406 512.28 176.104 512.582 175.74 512.792C175.38 513.004 174.968 513.115 174.55 513.112V513.112Z" fill="#F8F3E9" fill-opacity="0.333333" stroke="#231F20" stroke-width="15" stroke-miterlimit="10"/>
<path d="M314.2 512.812C313.836 512.602 313.534 512.3 313.324 511.937C313.113 511.574 313.001 511.162 313 510.742V321.392C312.999 320.971 313.11 320.559 313.321 320.195C313.532 319.831 313.835 319.53 314.2 319.322L478.35 224.322C478.713 224.111 479.125 224 479.545 224C479.965 224 480.377 224.111 480.74 224.322C481.104 224.533 481.407 224.837 481.618 225.202C481.828 225.567 481.939 225.98 481.94 226.402V415.962C481.941 416.383 481.831 416.798 481.62 417.163C481.409 417.529 481.106 417.832 480.74 418.042L316.59 512.812C316.227 513.021 315.815 513.132 315.395 513.132C314.975 513.132 314.563 513.021 314.2 512.812V512.812Z" fill="#F8F3E9" fill-opacity="0.333333" stroke="#231F20" stroke-width="15" stroke-miterlimit="10"/>
<path d="M245.544 202.456C245.123 202.458 244.708 202.348 244.344 202.136L80.194 107.136C79.8308 106.925 79.5294 106.622 79.3198 106.258C79.1103 105.893 79 105.481 79 105.061C79 104.641 79.1103 104.228 79.3198 103.864C79.5294 103.5 79.8308 103.197 80.194 102.986L244.504 8.31567C244.868 8.1088 245.28 8 245.699 8C246.118 8 246.53 8.1088 246.894 8.31567L410.894 102.986C411.26 103.195 411.564 103.497 411.775 103.861C411.987 104.226 412.098 104.639 412.098 105.061C412.098 105.482 411.987 105.896 411.775 106.26C411.564 106.625 411.26 106.927 410.894 107.136L246.744 202.136C246.381 202.349 245.966 202.46 245.544 202.456Z" fill="#F8F3E9" fill-opacity="0.333333" stroke="#231F20" stroke-width="15" stroke-miterlimit="10"/>
<path d="M110 373.054L246.56 451L383 372.977V216.391L246.731 138L110 216.546V373.054Z" fill="#231F20"/>
<path d="M244.999 532.15C244.444 532.146 243.9 531.997 243.419 531.72L27.6994 407.72C27.2159 407.442 26.8142 407.041 26.5351 406.558C26.2559 406.076 26.1091 405.528 26.1094 404.97V156C26.1091 155.443 26.2548 154.896 26.5321 154.414C26.8093 153.931 27.2084 153.53 27.6894 153.25L243.689 28.2499C244.172 27.9698 244.721 27.8223 245.279 27.8223C245.838 27.8223 246.386 27.9698 246.869 28.2499L462.119 153C462.6 153.28 462.999 153.681 463.277 154.164C463.554 154.646 463.7 155.193 463.699 155.75V404.84C463.702 405.397 463.557 405.944 463.279 406.427C463.002 406.91 462.602 407.311 462.119 407.59L246.579 531.72C246.099 531.999 245.555 532.147 244.999 532.15V532.15ZM32.4494 403.15L244.999 525.31L457.359 403V157.55L245.269 34.6498L32.4494 157.78V403.15Z" fill="#E7AA27" stroke="#E7AA27" stroke-width="9" stroke-miterlimit="10"/>
<path d="M362.569 334.33C362.147 334.328 361.733 334.214 361.369 334L256.559 272.81C256.2 272.602 255.902 272.302 255.695 271.943C255.488 271.583 255.379 271.175 255.379 270.76V150.76C255.38 150.207 255.573 149.671 255.925 149.245C256.277 148.818 256.766 148.526 257.309 148.42L383.999 123.94C384.486 123.846 384.991 123.907 385.443 124.113C385.894 124.319 386.27 124.66 386.519 125.09L448.999 233.67C449.247 234.098 449.355 234.594 449.309 235.087C449.262 235.579 449.063 236.046 448.739 236.42L364.349 333.51C364.126 333.764 363.853 333.968 363.546 334.109C363.239 334.25 362.906 334.326 362.569 334.33V334.33Z" fill="#1E0638" stroke="#330066" stroke-width="6" stroke-miterlimit="10"/>
<path d="M184.68 471.45C184.184 471.448 183.702 471.292 183.298 471.003C182.895 470.715 182.592 470.308 182.43 469.84L140.48 348C140.296 347.485 140.296 346.923 140.478 346.407C140.66 345.892 141.014 345.455 141.48 345.17L245.97 284.17C246.335 283.958 246.749 283.847 247.17 283.847C247.592 283.847 248.006 283.958 248.37 284.17L353.18 345.36C353.647 345.647 354.002 346.085 354.184 346.603C354.366 347.12 354.364 347.684 354.18 348.2L312.18 469.55C312.019 470.018 311.716 470.424 311.312 470.711C310.909 470.998 310.425 471.152 309.93 471.15L184.62 471.44L184.68 471.45Z" fill="#1E0638" stroke="#330066" stroke-width="6" stroke-miterlimit="10"/>
<path d="M247.29 138.12C247.137 138.135 246.983 138.135 246.83 138.12L120.92 113.44C120.443 113.35 120.006 113.116 119.666 112.769C119.327 112.422 119.102 111.979 119.022 111.5C118.943 111.021 119.012 110.529 119.221 110.091C119.43 109.653 119.768 109.29 120.19 109.05L183.72 72.4001C184.082 72.1899 184.492 72.0795 184.91 72.0801V72.0801L310.27 72.4101C310.684 72.4157 311.09 72.5258 311.45 72.7301L375.14 109.16C375.561 109.402 375.898 109.766 376.106 110.205C376.314 110.643 376.383 111.135 376.303 111.614C376.224 112.092 376 112.535 375.662 112.883C375.323 113.231 374.887 113.467 374.41 113.56L247.74 138.08C247.592 138.108 247.441 138.122 247.29 138.12Z" fill="#1E0638" stroke="#330066" stroke-width="6" stroke-miterlimit="10"/>
<path d="M167.28 473.09C166.858 473.089 166.443 472.975 166.08 472.76L102.92 435.83C102.565 435.62 102.269 435.324 102.06 434.97L39 326.33C38.7839 325.967 38.673 325.552 38.68 325.13L38.82 252.13C38.8217 251.646 38.9706 251.175 39.2468 250.778C39.5229 250.382 39.9134 250.079 40.3661 249.909C40.8188 249.74 41.3123 249.712 41.781 249.83C42.2498 249.948 42.6714 250.206 42.99 250.57L127.09 347.33C127.293 347.556 127.446 347.821 127.54 348.11L169.54 469.94C169.699 470.4 169.714 470.898 169.582 471.366C169.449 471.835 169.176 472.251 168.8 472.56C168.368 472.904 167.832 473.091 167.28 473.09V473.09Z" fill="#1E0638" stroke="#330066" stroke-width="6" stroke-miterlimit="10"/>
<path d="M328.561 473C328.181 473 327.807 472.909 327.47 472.736C327.132 472.562 326.841 472.31 326.621 472C326.401 471.691 326.258 471.333 326.204 470.958C326.15 470.582 326.187 470.199 326.311 469.84L368.311 348.48C368.415 348.194 368.571 347.929 368.771 347.7L453.151 250.62C453.469 250.253 453.891 249.991 454.362 249.871C454.832 249.751 455.328 249.777 455.783 249.947C456.238 250.117 456.63 250.422 456.907 250.821C457.184 251.22 457.332 251.694 457.331 252.18L457.221 325.64C457.222 326.058 457.111 326.468 456.901 326.83L394.241 435.43C394.033 435.798 393.729 436.102 393.361 436.31L329.741 472.7C329.38 472.9 328.974 473.004 328.561 473Z" fill="#1E0638" stroke="#330066" stroke-width="6" stroke-miterlimit="10"/>
<path d="M131.501 334.48C131.162 334.481 130.826 334.409 130.518 334.269C130.209 334.129 129.934 333.925 129.71 333.67L45.6105 236.91C45.2858 236.538 45.0852 236.074 45.0368 235.583C44.9884 235.092 45.0946 234.598 45.3405 234.17L108 125.32C108.249 124.89 108.625 124.549 109.077 124.343C109.529 124.137 110.033 124.076 110.52 124.17L236.441 148.81C236.982 148.917 237.47 149.209 237.82 149.635C238.171 150.062 238.362 150.598 238.36 151.15V271.15C238.36 271.566 238.251 271.976 238.044 272.337C237.837 272.698 237.54 272.999 237.18 273.21L132.691 334.21C132.325 334.403 131.914 334.496 131.501 334.48V334.48Z" fill="#1E0638" stroke="#330066" stroke-width="6" stroke-miterlimit="10"/>
</svg>
