<svg width="1212" height="537" viewBox="0 0 1212 537" fill="none" xmlns="http://www.w3.org/2000/svg">
<path d="M555 314V394H635V314H555Z" fill="#F8F3E9" fill-opacity="0.333333" stroke="#231F20" stroke-width="10" stroke-linejoin="round"/>
<path d="M661 314V394H741V314H661Z" fill="#F8F3E9" fill-opacity="0.333333" stroke="#231F20" stroke-width="10" stroke-linejoin="round"/>
<path d="M767 314V394H847V314H767Z" fill="#F8F3E9" fill-opacity="0.333333" stroke="#231F20" stroke-width="10" stroke-linejoin="round"/>
<path d="M569 328V408H649V328H569Z" fill="#F8F3E9" fill-opacity="0.333333" stroke="#280049" stroke-width="10" stroke-linejoin="round"/>
<path d="M675 328V408H755V328H675Z" fill="#F8F3E9" fill-opacity="0.333333" stroke="#280049" stroke-width="10" stroke-linejoin="round"/>
<path d="M781 328V408H861V328H781Z" fill="#F8F3E9" fill-opacity="0.333333" stroke="#280049" stroke-width="10" stroke-linejoin="round"/>
<path d="M804.26 371.625L816.74 352.205V352.016H806.04C805.729 352.003 805.436 351.869 805.223 351.643C805.01 351.416 804.894 351.116 804.9 350.805V349.215C804.893 349.061 804.917 348.906 804.971 348.761C805.026 348.616 805.108 348.483 805.214 348.37C805.321 348.257 805.448 348.167 805.59 348.104C805.732 348.042 805.885 348.008 806.04 348.006H822.04C822.25 347.985 822.462 348.023 822.651 348.115C822.841 348.208 823.001 348.351 823.115 348.53C823.228 348.708 823.289 348.914 823.292 349.125C823.294 349.337 823.238 349.544 823.13 349.726L810.97 369.266V369.465H820.77C820.93 369.458 821.089 369.485 821.239 369.542C821.388 369.6 821.524 369.688 821.637 369.801C821.751 369.913 821.84 370.048 821.899 370.197C821.958 370.346 821.985 370.506 821.98 370.666V372.266C821.98 372.586 821.852 372.894 821.625 373.121C821.398 373.348 821.091 373.476 820.77 373.476H805.49C805.173 373.463 804.872 373.332 804.648 373.107C804.424 372.883 804.292 372.582 804.28 372.266L804.26 371.625Z" fill="#E7AA27" stroke="#E7AA27" stroke-width="4.25" stroke-miterlimit="10"/>
<path d="M599.858 361.47L591.778 350.65C591.138 349.82 591.518 349 592.608 349H595.278C595.472 349.005 595.663 349.053 595.836 349.142C596.009 349.23 596.16 349.356 596.278 349.51L602.278 358.16H602.338L608.638 349.51C608.757 349.357 608.908 349.232 609.081 349.143C609.254 349.055 609.444 349.006 609.638 349H612.318C613.398 349 613.778 349.82 613.138 350.65L605.058 361.41L613.208 372.81C613.778 373.63 613.398 374.46 612.378 374.46H610.018C609.829 374.436 609.646 374.373 609.483 374.275C609.319 374.177 609.178 374.046 609.068 373.89L602.318 364.53H602.258L595.728 373.91C595.609 374.063 595.457 374.188 595.284 374.276C595.112 374.364 594.922 374.413 594.728 374.42H592.368C591.288 374.42 590.968 373.59 591.538 372.77L599.858 361.47Z" fill="#E7AA27" stroke="#E7AA27" stroke-width="4.25" stroke-miterlimit="10"/>
<path d="M696.386 349.752C696.056 349.312 696.386 349.002 697.206 349.002H699.606C699.778 348.992 699.95 349.021 700.11 349.087C700.269 349.153 700.411 349.254 700.526 349.382L708.606 359.802H708.656L716.296 349.382C716.415 349.258 716.558 349.16 716.716 349.095C716.875 349.029 717.045 348.998 717.216 349.002H719.296C720.106 349.002 720.496 349.342 720.106 349.792L710.506 362.592L710.436 373.352C710.315 373.476 710.171 373.576 710.011 373.644C709.852 373.713 709.68 373.75 709.506 373.752H707.506C706.686 373.752 706.256 373.382 706.636 372.902L706.546 362.602L696.386 349.752Z" fill="#E7AA27" stroke="#E7AA27" stroke-width="4.25" stroke-miterlimit="10"/>
<path d="M554.69 169.84C554.684 169.109 554.962 168.404 555.466 167.874C555.969 167.345 556.659 167.031 557.39 167H590.89C619.75 167 643.38 190.48 643.38 219.2C643.361 233.116 637.825 246.456 627.985 256.296C618.145 266.135 604.805 271.671 590.89 271.69H557.39C556.659 271.659 555.969 271.345 555.466 270.816C554.962 270.286 554.684 269.581 554.69 268.85V169.84ZM588.49 261.37C613.02 261.37 630.82 243.87 630.82 219.2C630.82 194.53 613.02 177.2 588.49 177.2H566.06V261.4L588.49 261.37Z" fill="#E7AA27" stroke="#E7AA27" stroke-width="6" stroke-miterlimit="10"/>
<path d="M731.007 172.561C731.041 171.866 731.341 171.211 731.843 170.734C732.346 170.257 733.013 169.994 733.704 170H737.251L801.352 250.401H801.635V174.148C801.637 173.428 801.923 172.737 802.43 172.229C802.937 171.72 803.623 171.434 804.339 171.434H809.296C810.005 171.458 810.678 171.751 811.18 172.255C811.681 172.759 811.975 173.435 812 174.148V268.425C811.972 269.124 811.673 269.784 811.168 270.265C810.663 270.746 809.991 271.01 809.296 271H806.738L741.503 191.062H741.358V268.852C741.359 269.209 741.29 269.562 741.154 269.893C741.019 270.223 740.821 270.523 740.57 270.776C740.32 271.028 740.022 271.229 739.695 271.366C739.367 271.503 739.016 271.573 738.661 271.573H733.704C732.994 271.549 732.32 271.255 731.818 270.75C731.316 270.244 731.024 269.566 731 268.852L731.007 172.561Z" fill="#231F20" stroke="#231F20" stroke-width="9" stroke-miterlimit="10"/>
<path d="M681.03 169.84C681.055 169.095 681.362 168.387 681.89 167.859C682.417 167.332 683.125 167.025 683.87 167H689.87C690.61 167.032 691.311 167.343 691.832 167.869C692.353 168.396 692.656 169.1 692.68 169.84V268.84C692.655 269.585 692.348 270.293 691.821 270.821C691.293 271.348 690.585 271.655 689.84 271.68H683.84C683.095 271.655 682.387 271.348 681.859 270.821C681.332 270.293 681.025 269.585 681 268.84L681.03 169.84Z" fill="#231F20" stroke="#231F20" stroke-width="6" stroke-miterlimit="10"/>
<path d="M903.691 164C914.339 163.971 924.756 167.099 933.626 172.99C942.497 178.881 949.421 187.27 953.523 197.096C957.626 206.922 958.723 217.744 956.676 228.193C954.628 238.642 949.528 248.25 942.02 255.801C934.513 263.352 924.935 268.507 914.497 270.615C904.06 272.722 893.232 271.688 883.382 267.642C873.533 263.596 865.104 256.72 859.162 247.884C853.221 239.048 850.032 228.648 850.001 218C849.966 210.925 851.33 203.913 854.012 197.367C856.694 190.82 860.642 184.867 865.631 179.85C870.619 174.833 876.549 170.85 883.08 168.13C889.612 165.41 896.616 164.007 903.691 164ZM903.691 261.2C915.16 261.177 926.155 256.62 934.279 248.524C942.403 240.428 946.997 229.449 947.061 217.98C947.061 194.21 927.471 174.46 903.691 174.46C879.911 174.46 860.471 194.21 860.471 217.98C860.502 229.433 865.066 240.408 873.164 248.506C881.263 256.605 892.238 261.169 903.691 261.2Z" fill="#231F20" stroke="#231F20" stroke-width="6" stroke-miterlimit="10"/>
<path d="M1004.53 255C1005.65 254.988 1006.77 255.201 1007.81 255.625C1008.85 256.05 1009.79 256.678 1010.58 257.473C1011.38 258.267 1012.01 259.212 1012.43 260.253C1012.85 261.293 1013.06 262.407 1013.05 263.53C1013.05 265.79 1012.15 267.957 1010.55 269.555C1008.96 271.153 1006.79 272.05 1004.53 272.05C1002.28 272.027 1000.12 271.122 998.528 269.53C996.933 267.937 996.026 265.784 996 263.53C995.999 262.41 996.218 261.3 996.647 260.265C997.075 259.229 997.703 258.288 998.495 257.496C999.288 256.704 1000.23 256.075 1001.26 255.647C1002.3 255.219 1003.41 254.999 1004.53 255Z" fill="#231F20" stroke="#231F20" stroke-width="6" stroke-miterlimit="10"/>
<path d="M1051.03 169.84C1051.05 169.095 1051.36 168.387 1051.89 167.859C1052.42 167.332 1053.12 167.025 1053.87 167H1059.87C1060.61 167.032 1061.31 167.343 1061.83 167.869C1062.35 168.396 1062.66 169.1 1062.68 169.84V268.84C1062.66 269.585 1062.35 270.293 1061.82 270.821C1061.29 271.348 1060.59 271.655 1059.84 271.68H1053.84C1053.09 271.655 1052.39 271.348 1051.86 270.821C1051.33 270.293 1051.02 269.585 1051 268.84L1051.03 169.84Z" fill="#280049" stroke="#280049" stroke-width="6" stroke-miterlimit="10"/>
<path d="M1154.69 164C1165.34 163.971 1175.76 167.099 1184.63 172.99C1193.5 178.881 1200.42 187.27 1204.52 197.096C1208.63 206.922 1209.72 217.744 1207.68 228.193C1205.63 238.642 1200.53 248.25 1193.02 255.801C1185.51 263.352 1175.93 268.507 1165.5 270.615C1155.06 272.722 1144.23 271.688 1134.38 267.642C1124.53 263.596 1116.1 256.72 1110.16 247.884C1104.22 239.048 1101.03 228.648 1101 218C1100.97 210.925 1102.33 203.913 1105.01 197.367C1107.69 190.82 1111.64 184.867 1116.63 179.85C1121.62 174.833 1127.55 170.85 1134.08 168.13C1140.61 165.41 1147.62 164.007 1154.69 164ZM1154.69 261.2C1166.16 261.177 1177.15 256.62 1185.28 248.524C1193.4 240.428 1198 229.449 1198.06 217.98C1198.06 194.21 1178.47 174.46 1154.69 174.46C1130.91 174.46 1111.47 194.21 1111.47 217.98C1111.5 229.433 1116.07 240.408 1124.16 248.506C1132.26 256.605 1143.24 261.169 1154.69 261.2Z" fill="#280049" stroke="#280049" stroke-width="6" stroke-miterlimit="10"/>
<path d="M174.55 513.112C174.128 513.116 173.714 513.005 173.35 512.792L9.20002 418.022C8.83427 417.812 8.5306 417.509 8.31984 417.143C8.10908 416.778 7.99872 416.364 8.00001 415.942V226.402C8.00075 225.98 8.11196 225.567 8.32252 225.202C8.53308 224.837 8.83563 224.533 9.20002 224.322C9.56302 224.111 9.97529 224 10.395 224C10.8148 224 11.227 224.111 11.59 224.322L175.75 319.322C176.112 319.532 176.413 319.834 176.622 320.198C176.831 320.561 176.941 320.973 176.94 321.392V510.722C176.939 511.142 176.827 511.554 176.616 511.917C176.406 512.28 176.104 512.582 175.74 512.792C175.38 513.004 174.968 513.115 174.55 513.112Z" fill="#F8F3E9" fill-opacity="0.333333" stroke="#231F20" stroke-width="15" stroke-miterlimit="10"/>
<path d="M314.2 512.812C313.836 512.602 313.534 512.3 313.324 511.937C313.113 511.574 313.001 511.162 313 510.742V321.392C312.999 320.971 313.11 320.559 313.321 320.195C313.532 319.831 313.835 319.53 314.2 319.322L478.35 224.322C478.713 224.111 479.125 224 479.545 224C479.965 224 480.377 224.111 480.74 224.322C481.104 224.533 481.407 224.837 481.618 225.202C481.828 225.567 481.939 225.98 481.94 226.402V415.962C481.941 416.383 481.831 416.798 481.62 417.163C481.409 417.529 481.106 417.832 480.74 418.042L316.59 512.812C316.227 513.021 315.815 513.132 315.395 513.132C314.975 513.132 314.563 513.021 314.2 512.812Z" fill="#F8F3E9" fill-opacity="0.333333" stroke="#231F20" stroke-width="15" stroke-miterlimit="10"/>
<path d="M245.544 202.456C245.123 202.458 244.708 202.348 244.344 202.136L80.194 107.136C79.8308 106.925 79.5294 106.622 79.3198 106.258C79.1103 105.893 79 105.481 79 105.061C79 104.641 79.1103 104.228 79.3198 103.864C79.5294 103.5 79.8308 103.197 80.194 102.986L244.504 8.31567C244.868 8.1088 245.28 8 245.699 8C246.118 8 246.53 8.1088 246.894 8.31567L410.894 102.986C411.26 103.195 411.564 103.497 411.775 103.861C411.987 104.226 412.098 104.639 412.098 105.061C412.098 105.482 411.987 105.896 411.775 106.26C411.564 106.625 411.26 106.927 410.894 107.136L246.744 202.136C246.381 202.349 245.966 202.46 245.544 202.456Z" fill="#F8F3E9" fill-opacity="0.333333" stroke="#231F20" stroke-width="15" stroke-miterlimit="10"/>
<path d="M110 373.054L246.56 451L383 372.977V216.391L246.731 138L110 216.546V373.054Z" fill="#231F20"/>
<path d="M244.999 532.15C244.444 532.146 243.9 531.997 243.419 531.72L27.6994 407.72C27.2159 407.442 26.8142 407.041 26.5351 406.558C26.2559 406.076 26.1091 405.528 26.1094 404.97V156C26.1091 155.443 26.2548 154.896 26.5321 154.414C26.8093 153.931 27.2084 153.53 27.6894 153.25L243.689 28.2499C244.172 27.9698 244.721 27.8223 245.279 27.8223C245.838 27.8223 246.386 27.9698 246.869 28.2499L462.119 153C462.6 153.28 462.999 153.681 463.277 154.164C463.554 154.646 463.7 155.193 463.699 155.75V404.84C463.702 405.397 463.557 405.944 463.279 406.427C463.002 406.91 462.602 407.311 462.119 407.59L246.579 531.72C246.099 531.999 245.555 532.147 244.999 532.15ZM32.4494 403.15L244.999 525.31L457.359 403V157.55L245.269 34.6498L32.4494 157.78V403.15Z" fill="#E7AA27" stroke="#E7AA27" stroke-width="9" stroke-miterlimit="10"/>
<path d="M362.569 334.33C362.147 334.328 361.733 334.214 361.369 334L256.559 272.81C256.2 272.602 255.902 272.302 255.695 271.943C255.488 271.583 255.379 271.175 255.379 270.76V150.76C255.38 150.207 255.573 149.671 255.925 149.245C256.277 148.818 256.766 148.526 257.309 148.42L383.999 123.94C384.486 123.846 384.991 123.907 385.443 124.113C385.894 124.319 386.27 124.66 386.519 125.09L448.999 233.67C449.247 234.098 449.355 234.594 449.309 235.087C449.262 235.579 449.063 236.046 448.739 236.42L364.349 333.51C364.126 333.764 363.853 333.968 363.546 334.109C363.239 334.25 362.906 334.326 362.569 334.33Z" fill="#1E0638" stroke="#330066" stroke-width="6" stroke-miterlimit="10"/>
<path d="M184.68 471.45C184.184 471.448 183.702 471.292 183.298 471.003C182.895 470.715 182.592 470.308 182.43 469.84L140.48 348C140.296 347.485 140.296 346.923 140.478 346.407C140.66 345.892 141.014 345.455 141.48 345.17L245.97 284.17C246.335 283.958 246.749 283.847 247.17 283.847C247.592 283.847 248.006 283.958 248.37 284.17L353.18 345.36C353.647 345.647 354.002 346.085 354.184 346.603C354.366 347.12 354.364 347.684 354.18 348.2L312.18 469.55C312.019 470.018 311.716 470.424 311.312 470.711C310.909 470.998 310.425 471.152 309.93 471.15L184.62 471.44L184.68 471.45Z" fill="#1E0638" stroke="#330066" stroke-width="6" stroke-miterlimit="10"/>
<path d="M247.29 138.12C247.137 138.135 246.983 138.135 246.83 138.12L120.92 113.44C120.443 113.35 120.006 113.116 119.666 112.769C119.327 112.422 119.102 111.979 119.022 111.5C118.943 111.021 119.012 110.529 119.221 110.091C119.43 109.653 119.768 109.29 120.19 109.05L183.72 72.4001C184.082 72.1899 184.492 72.0795 184.91 72.0801L310.27 72.4101C310.684 72.4157 311.09 72.5258 311.45 72.7301L375.14 109.16C375.561 109.402 375.898 109.766 376.106 110.205C376.314 110.643 376.383 111.135 376.303 111.614C376.224 112.092 376 112.535 375.662 112.883C375.323 113.231 374.887 113.467 374.41 113.56L247.74 138.08C247.592 138.108 247.441 138.122 247.29 138.12Z" fill="#1E0638" stroke="#330066" stroke-width="6" stroke-miterlimit="10"/>
<path d="M167.28 473.09C166.858 473.089 166.443 472.975 166.08 472.76L102.92 435.83C102.565 435.62 102.269 435.324 102.06 434.97L39 326.33C38.7839 325.967 38.673 325.552 38.68 325.13L38.82 252.13C38.8217 251.646 38.9706 251.175 39.2468 250.778C39.5229 250.382 39.9134 250.079 40.3661 249.909C40.8188 249.74 41.3123 249.712 41.781 249.83C42.2498 249.948 42.6714 250.206 42.99 250.57L127.09 347.33C127.293 347.556 127.446 347.821 127.54 348.11L169.54 469.94C169.699 470.4 169.714 470.898 169.582 471.366C169.449 471.835 169.176 472.251 168.8 472.56C168.368 472.904 167.832 473.091 167.28 473.09Z" fill="#1E0638" stroke="#330066" stroke-width="6" stroke-miterlimit="10"/>
<path d="M328.561 473C328.181 473 327.807 472.909 327.47 472.736C327.132 472.562 326.841 472.31 326.621 472C326.401 471.691 326.258 471.333 326.204 470.958C326.15 470.582 326.187 470.199 326.311 469.84L368.311 348.48C368.415 348.194 368.571 347.929 368.771 347.7L453.151 250.62C453.469 250.253 453.891 249.991 454.362 249.871C454.832 249.751 455.328 249.777 455.783 249.947C456.238 250.117 456.63 250.422 456.907 250.821C457.184 251.22 457.332 251.694 457.331 252.18L457.221 325.64C457.222 326.058 457.111 326.468 456.901 326.83L394.241 435.43C394.033 435.798 393.729 436.102 393.361 436.31L329.741 472.7C329.38 472.9 328.974 473.004 328.561 473Z" fill="#1E0638" stroke="#330066" stroke-width="6" stroke-miterlimit="10"/>
<path d="M131.501 334.48C131.162 334.481 130.826 334.409 130.518 334.269C130.209 334.129 129.934 333.925 129.71 333.67L45.6105 236.91C45.2858 236.538 45.0852 236.074 45.0368 235.583C44.9884 235.092 45.0946 234.598 45.3405 234.17L108 125.32C108.249 124.89 108.625 124.549 109.077 124.343C109.529 124.137 110.033 124.076 110.52 124.17L236.441 148.81C236.982 148.917 237.47 149.209 237.82 149.635C238.171 150.062 238.362 150.598 238.36 151.15V271.15C238.36 271.566 238.251 271.976 238.044 272.337C237.837 272.698 237.54 272.999 237.18 273.21L132.691 334.21C132.325 334.403 131.914 334.496 131.501 334.48Z" fill="#1E0638" stroke="#330066" stroke-width="6" stroke-miterlimit="10"/>
</svg>
