<svg width="661" height="116" viewBox="0 0 661 116" fill="none" xmlns="http://www.w3.org/2000/svg">
<path d="M3.68954 8.84C3.6837 8.10897 3.96208 7.40424 4.46579 6.87442C4.96949 6.3446 5.65923 6.03109 6.38962 6H39.8896C68.7496 6 92.3796 29.48 92.3796 58.2C92.3611 72.1155 86.825 85.4558 76.9852 95.2956C67.1454 105.135 53.8051 110.671 39.8896 110.69H6.38962C5.65923 110.659 4.96949 110.345 4.46579 109.816C3.96208 109.286 3.6837 108.581 3.68954 107.85V8.84ZM37.4896 100.37C62.0196 100.37 79.8195 82.87 79.8195 58.2C79.8195 33.53 62.0196 16.2 37.4896 16.2H15.0597V100.4L37.4896 100.37Z" fill="#E7AA27" stroke="#E7AA27" stroke-width="6" stroke-miterlimit="10"/>
<path d="M180.007 11.5607C180.041 10.8659 180.341 10.2112 180.843 9.73391C181.346 9.25658 182.013 8.99362 182.704 9.00012H186.251L250.352 89.4011H250.635V13.1482C250.637 12.4277 250.923 11.7373 251.43 11.2285C251.937 10.7197 252.623 10.434 253.339 10.434H258.296C259.005 10.4576 259.678 10.751 260.18 11.2548C260.681 11.7585 260.975 12.4352 261 13.1482V107.425C260.972 108.124 260.673 108.784 260.168 109.265C259.663 109.746 258.991 110.01 258.296 110H255.738L190.503 30.0624H190.358V107.852C190.359 108.209 190.29 108.562 190.154 108.893C190.019 109.223 189.821 109.523 189.57 109.776C189.32 110.028 189.022 110.229 188.695 110.366C188.367 110.503 188.016 110.573 187.661 110.573H182.704C181.994 110.549 181.32 110.255 180.818 109.75C180.316 109.244 180.024 108.566 180 107.852L180.007 11.5607Z" fill="#231F20" stroke="#231F20" stroke-width="9" stroke-miterlimit="10"/>
<path d="M130.03 8.84C130.055 8.09471 130.362 7.38676 130.89 6.85947C131.417 6.33217 132.125 6.02495 132.87 6H138.87C139.61 6.03235 140.311 6.34282 140.832 6.86935C141.353 7.39589 141.656 8.09969 141.68 8.84V107.84C141.655 108.585 141.348 109.293 140.821 109.821C140.293 110.348 139.585 110.655 138.84 110.68H132.84C132.095 110.655 131.387 110.348 130.859 109.821C130.332 109.293 130.025 108.585 130 107.84L130.03 8.84Z" fill="#231F20" stroke="#231F20" stroke-width="6" stroke-miterlimit="10"/>
<path d="M352.691 3.00021C363.339 2.97059 373.756 6.09902 382.626 11.9899C391.497 17.8808 398.421 26.2696 402.523 36.0956C406.626 45.9216 407.723 56.7435 405.676 67.1929C403.628 77.6423 398.528 87.2499 391.02 94.8009C383.513 102.352 373.935 107.507 363.497 109.615C353.06 111.722 342.232 110.688 332.382 106.642C322.533 102.596 314.104 95.7199 308.162 86.8839C302.221 78.0478 299.032 67.6483 299.001 57.0002C298.966 49.9253 300.33 42.9133 303.012 36.3665C305.694 29.8197 309.642 23.867 314.631 18.8498C319.619 13.8327 325.549 9.84991 332.08 7.13003C338.612 4.41015 345.616 3.00671 352.691 3.00021V3.00021ZM352.691 100.2C364.16 100.177 375.155 95.6203 383.279 87.5243C391.403 79.4284 395.997 68.4493 396.061 56.9802C396.061 33.2102 376.471 13.4602 352.691 13.4602C328.911 13.4602 309.471 33.2102 309.471 56.9802C309.502 68.4331 314.066 79.4079 322.164 87.5064C330.263 95.6048 341.238 100.169 352.691 100.2V100.2Z" fill="#231F20" stroke="#231F20" stroke-width="6" stroke-miterlimit="10"/>
<path d="M453.53 94.0005C454.653 93.9884 455.767 94.2009 456.807 94.6254C457.847 95.0499 458.791 95.678 459.585 96.4726C460.379 97.2672 461.006 98.2124 461.429 99.2527C461.852 100.293 462.063 101.407 462.05 102.53C462.05 104.79 461.152 106.957 459.555 108.555C457.957 110.153 455.79 111.05 453.53 111.05C451.277 111.027 449.122 110.122 447.528 108.53C445.933 106.937 445.026 104.784 445 102.53C444.999 101.41 445.218 100.3 445.647 99.2646C446.075 98.2291 446.703 97.2883 447.495 96.4959C448.288 95.7036 449.229 95.0753 450.264 94.6471C451.3 94.2189 452.409 93.9992 453.53 94.0005Z" fill="#231F20" stroke="#231F20" stroke-width="6" stroke-miterlimit="10"/>
<path d="M500.03 8.84C500.055 8.09471 500.362 7.38676 500.89 6.85947C501.417 6.33217 502.125 6.02495 502.87 6H508.87C509.61 6.03235 510.311 6.34282 510.832 6.86935C511.353 7.39589 511.656 8.09969 511.68 8.84V107.84C511.655 108.585 511.348 109.293 510.821 109.821C510.293 110.348 509.585 110.655 508.84 110.68H502.84C502.095 110.655 501.387 110.348 500.859 109.821C500.332 109.293 500.025 108.585 500 107.84L500.03 8.84Z" fill="#280049" stroke="#280049" stroke-width="6" stroke-miterlimit="10"/>
<path d="M603.691 3.00021C614.339 2.97059 624.756 6.09902 633.626 11.9899C642.497 17.8808 649.421 26.2696 653.523 36.0956C657.626 45.9216 658.723 56.7435 656.676 67.1929C654.628 77.6423 649.528 87.2499 642.02 94.8009C634.513 102.352 624.935 107.507 614.497 109.615C604.06 111.722 593.232 110.688 583.382 106.642C573.533 102.596 565.104 95.7199 559.162 86.8839C553.221 78.0478 550.032 67.6483 550.001 57.0002C549.966 49.9253 551.33 42.9133 554.012 36.3665C556.694 29.8197 560.642 23.867 565.631 18.8498C570.619 13.8327 576.549 9.84991 583.08 7.13003C589.612 4.41015 596.616 3.00671 603.691 3.00021V3.00021ZM603.691 100.2C615.16 100.177 626.155 95.6203 634.279 87.5243C642.403 79.4284 646.997 68.4493 647.061 56.9802C647.061 33.2102 627.471 13.4602 603.691 13.4602C579.911 13.4602 560.471 33.2102 560.471 56.9802C560.502 68.4331 565.066 79.4079 573.164 87.5064C581.263 95.6048 592.238 100.169 603.691 100.2V100.2Z" fill="#280049" stroke="#280049" stroke-width="6" stroke-miterlimit="10"/>
</svg>
