<svg width="1120" height="113" viewBox="0 0 1120 113" fill="none" xmlns="http://www.w3.org/2000/svg">
<path d="M4.74023 8.71042C4.76363 7.99911 5.05307 7.32338 5.54995 6.82013C6.04683 6.31687 6.71401 6.0237 7.41632 6H13.0642C13.7665 6.0237 14.4336 6.31687 14.9305 6.82013C15.4274 7.32338 15.7168 7.99911 15.7402 8.71042V103.282C15.7169 103.994 15.4277 104.671 14.931 105.175C14.4343 105.68 13.7671 105.974 13.0642 106H7.41632C6.71337 105.974 6.04617 105.68 5.54946 105.175C5.05276 104.671 4.76353 103.994 4.74023 103.282V8.71042Z" fill="#E7AA27" stroke="#E7AA27" stroke-width="9" stroke-miterlimit="10"/>
<path d="M53.7475 7.56066C53.7812 6.86589 54.0809 6.21124 54.5836 5.73391C55.0863 5.25658 55.753 4.99362 56.4441 5.00012H59.9911L124.092 85.4011H124.375V9.1482C124.377 8.42769 124.663 7.73733 125.17 7.22854C125.677 6.71974 126.363 6.43401 127.079 6.43401H132.036C132.745 6.45765 133.418 6.75099 133.92 7.25477C134.422 7.75855 134.715 8.43525 134.74 9.1482V105.425C134.712 106.124 134.413 106.784 133.908 107.265C133.403 107.746 132.732 108.01 132.036 108H129.478L64.2432 26.0624H64.0978V103.852C64.0988 104.209 64.0297 104.562 63.8946 104.893C63.7596 105.223 63.5611 105.523 63.3106 105.776C63.0601 106.028 62.7625 106.229 62.4348 106.366C62.1072 106.503 61.7559 106.573 61.4012 106.573H56.4441C55.7345 106.549 55.0603 106.255 54.5583 105.75C54.0562 105.244 53.7638 104.566 53.7402 103.852L53.7475 7.56066Z" fill="#231F20" stroke="#231F20" stroke-width="9" stroke-miterlimit="10"/>
<path d="M177.74 8.71042C177.74 8.35448 177.81 8.00202 177.946 7.67318C178.081 7.34434 178.28 7.04555 178.531 6.79386C178.781 6.54218 179.079 6.34253 179.406 6.20632C179.734 6.07011 180.085 6 180.439 6H211.871C229.373 6 243.74 20.2826 243.74 37.5678C243.74 55.2841 229.373 69.7128 212.017 69.7128H188.55V103.282C188.526 103.996 188.234 104.673 187.731 105.178C187.229 105.682 186.554 105.976 185.844 106H180.439C180.084 106 179.732 105.93 179.405 105.793C179.077 105.656 178.779 105.456 178.528 105.204C178.277 104.951 178.079 104.651 177.944 104.322C177.808 103.992 177.739 103.639 177.74 103.282V8.71042ZM211.166 59.1195C216.915 59.0886 222.418 56.7711 226.47 52.6743C230.522 48.5776 232.793 43.0353 232.785 37.261C232.785 25.6888 222.827 16.8051 211.166 16.8051H188.55V59.1415L211.166 59.1195Z" fill="#231F20" stroke="#231F20" stroke-width="9" stroke-miterlimit="10"/>
<path d="M274.74 8.7258C274.764 8.01045 275.058 7.33089 275.563 6.82478C276.069 6.31867 276.747 6.02383 277.461 6H282.91C283.632 6 284.325 6.28695 284.837 6.79792C285.348 7.30889 285.636 8.0022 285.638 8.7258V68.6341C285.638 85.0182 295.818 97.8022 312.597 97.8022C329.516 97.8022 339.842 85.3121 339.842 68.928V8.7258C339.844 8.0022 340.132 7.30889 340.644 6.79792C341.155 6.28695 341.848 6 342.57 6H348.019C348.733 6.02383 349.412 6.31867 349.917 6.82478C350.422 7.33089 350.716 8.01045 350.74 8.7258V69.5011C350.74 91.3367 335.259 108 312.605 108C290.09 108 274.748 91.3367 274.748 69.5011L274.74 8.7258Z" fill="#231F20" stroke="#231F20" stroke-width="9" stroke-miterlimit="10"/>
<path d="M406.294 15.5704H381.458C381.101 15.5714 380.747 15.5018 380.417 15.3655C380.087 15.2293 379.787 15.0292 379.534 14.7766C379.282 14.524 379.081 14.2241 378.945 13.8939C378.809 13.5637 378.739 13.2099 378.74 12.8527V8.71043C378.74 8.35388 378.811 8.00082 378.947 7.6715C379.084 7.34218 379.284 7.04307 379.537 6.79129C379.789 6.53951 380.089 6.34001 380.418 6.20423C380.748 6.06845 381.101 5.99905 381.458 6.00001H442.03C442.749 6.00001 443.438 6.28557 443.947 6.79387C444.455 7.30217 444.74 7.99159 444.74 8.71043V12.8527C444.741 13.2093 444.672 13.5625 444.536 13.8922C444.4 14.2219 444.201 14.5215 443.949 14.774C443.697 15.0264 443.398 15.2268 443.069 15.3634C442.74 15.5001 442.387 15.5704 442.03 15.5704H417.193V103.282C417.17 103.994 416.877 104.671 416.374 105.175C415.871 105.68 415.195 105.974 414.483 106H409.056C408.343 105.976 407.665 105.682 407.16 105.178C406.656 104.673 406.362 103.996 406.338 103.282L406.294 15.5704Z" fill="#231F20" stroke="#231F20" stroke-width="9" stroke-miterlimit="10"/>
<path d="M563.094 5.00021C573.28 4.97131 583.246 7.96364 591.731 13.5988C600.217 19.2339 606.84 27.2588 610.765 36.6585C614.689 46.0582 615.738 56.4105 613.778 66.4063C611.819 76.4021 606.94 85.5924 599.757 92.815C592.574 100.038 583.411 104.968 573.427 106.983C563.442 108.997 553.084 108.006 543.663 104.134C534.241 100.261 526.18 93.6822 520.498 85.2282C514.816 76.7743 511.768 66.8252 511.741 56.6392C511.709 49.873 513.014 43.167 515.58 36.9062C518.146 30.6453 521.922 24.9527 526.694 20.155C531.465 15.3573 537.136 11.5488 543.383 8.94821C549.629 6.34757 556.328 5.00591 563.094 5.00021ZM563.094 97.9782C585.838 97.9782 604.572 79.3826 604.572 56.6392C604.572 33.8958 585.838 15.0149 563.094 15.0149C540.351 15.0149 521.756 33.8958 521.756 56.6392C521.784 67.5941 526.149 78.092 533.895 85.8383C541.642 93.5846 552.139 97.9492 563.094 97.9782Z" fill="#E7AA27" stroke="#E7AA27" stroke-width="9" stroke-miterlimit="10"/>
<path d="M648.74 8.72581C648.764 8.01046 649.058 7.3309 649.563 6.82479C650.069 6.31868 650.747 6.02384 651.461 6.00001H656.909C657.267 5.99904 657.622 6.06884 657.953 6.20539C658.284 6.34194 658.584 6.54257 658.838 6.79578C659.091 7.04898 659.292 7.34979 659.429 7.68098C659.566 8.01217 659.637 8.36723 659.637 8.72581V68.6342C659.637 85.0182 669.815 97.8022 686.594 97.8022C703.518 97.8022 713.836 85.3121 713.836 68.928V8.72581C713.838 8.00221 714.126 7.3089 714.637 6.79793C715.149 6.28696 715.842 6.00001 716.564 6.00001H722.012C722.727 6.02374 723.406 6.31834 723.912 6.82427C724.419 7.33021 724.715 8.0098 724.74 8.72581V69.5011C724.74 91.3368 709.253 108 686.608 108C664.096 108 648.755 91.3368 648.755 69.5011L648.74 8.72581Z" fill="#231F20" stroke="#231F20" stroke-width="9" stroke-miterlimit="10"/>
<path d="M779.715 15.5704H754.499C753.767 15.5704 753.066 15.2841 752.548 14.7744C752.031 14.2648 751.74 13.5735 751.74 12.8527V8.71042C751.742 7.9909 752.034 7.30151 752.551 6.79342C753.068 6.28533 753.769 6 754.499 6H815.989C816.718 6 817.418 6.28556 817.934 6.79386C818.45 7.30216 818.74 7.99158 818.74 8.71042V12.8527C818.741 13.2093 818.671 13.5625 818.533 13.8922C818.395 14.2219 818.193 14.5215 817.937 14.774C817.681 15.0264 817.378 15.2268 817.043 15.3634C816.709 15.5001 816.351 15.5704 815.989 15.5704H790.773V103.282C790.749 103.994 790.452 104.671 789.941 105.175C789.43 105.68 788.744 105.974 788.021 106H782.511C781.787 105.976 781.099 105.682 780.587 105.178C780.075 104.673 779.776 103.996 779.752 103.282L779.715 15.5704Z" fill="#231F20" stroke="#231F20" stroke-width="9" stroke-miterlimit="10"/>
<path d="M847.74 8.71042C847.742 7.9909 848.028 7.30151 848.535 6.79342C849.043 6.28533 849.73 6 850.446 6H881.879C899.337 6 913.74 20.2826 913.74 37.5678C913.74 55.2841 899.373 69.7128 882.024 69.7128H858.55V103.282C858.526 103.994 858.235 104.671 857.734 105.175C857.233 105.68 856.56 105.974 855.851 106H850.446C850.091 106 849.739 105.93 849.411 105.793C849.082 105.657 848.784 105.456 848.533 105.204C848.282 104.952 848.082 104.652 847.946 104.322C847.81 103.993 847.74 103.639 847.74 103.282V8.71042ZM881.202 59.1195C886.952 59.0886 892.455 56.7711 896.507 52.6743C900.559 48.5776 902.829 43.0353 902.821 37.261C902.821 25.6888 892.863 16.8051 881.202 16.8051H858.579V59.1415L881.202 59.1195Z" fill="#231F20" stroke="#231F20" stroke-width="9" stroke-miterlimit="10"/>
<path d="M944.74 8.72581C944.766 8.0098 945.062 7.33021 945.568 6.82427C946.074 6.31834 946.753 6.02374 947.468 6.00001H952.917C953.639 6.00001 954.332 6.28696 954.843 6.79793C955.354 7.3089 955.643 8.00221 955.645 8.72581V68.6342C955.645 85.0182 965.823 97.8022 982.601 97.8022C999.518 97.8022 1009.84 85.3121 1009.84 68.928V8.72581C1009.84 8.36723 1009.91 8.01217 1010.05 7.68098C1010.19 7.34979 1010.39 7.04898 1010.64 6.79578C1010.9 6.54257 1011.2 6.34194 1011.53 6.20539C1011.86 6.06884 1012.21 5.99904 1012.57 6.00001H1018.02C1018.73 6.02384 1019.41 6.31868 1019.92 6.82479C1020.42 7.3309 1020.72 8.01046 1020.74 8.72581V69.5011C1020.74 91.3368 1005.25 108 982.608 108C960.096 108 944.748 91.3368 944.748 69.5011L944.74 8.72581Z" fill="#231F20" stroke="#231F20" stroke-width="9" stroke-miterlimit="10"/>
<path d="M1076.29 15.5704H1051.45C1051.09 15.5704 1050.74 15.5001 1050.41 15.3634C1050.08 15.2268 1049.78 15.0264 1049.53 14.774C1049.28 14.5215 1049.08 14.2219 1048.94 13.8922C1048.81 13.5625 1048.74 13.2093 1048.74 12.8527V8.71042C1048.74 7.99158 1049.03 7.30216 1049.53 6.79386C1050.04 6.28556 1050.73 6 1051.45 6H1112.02C1112.74 6 1113.43 6.28533 1113.94 6.79342C1114.45 7.30151 1114.74 7.9909 1114.74 8.71042V12.8527C1114.74 13.5735 1114.45 14.2648 1113.94 14.7744C1113.43 15.2841 1112.74 15.5704 1112.02 15.5704H1087.18V103.282C1087.16 103.996 1086.87 104.673 1086.36 105.178C1085.86 105.682 1085.18 105.976 1084.47 106H1079.04C1078.33 105.974 1077.65 105.68 1077.15 105.175C1076.64 104.671 1076.35 103.994 1076.33 103.282L1076.29 15.5704Z" fill="#231F20" stroke="#231F20" stroke-width="9" stroke-miterlimit="10"/>
</svg>
