<svg width="1714" height="573" viewBox="0 0 1714 573" fill="none" xmlns="http://www.w3.org/2000/svg">
<path d="M1403 307V387H1483V307H1403Z" fill="#F8F3E9" fill-opacity="0.333333" stroke="#231F20" stroke-width="10" stroke-linejoin="round"/>
<path d="M1509 307V387H1589V307H1509Z" fill="#F8F3E9" fill-opacity="0.333333" stroke="#231F20" stroke-width="10" stroke-linejoin="round"/>
<path d="M1615 307V387H1695V307H1615Z" fill="#F8F3E9" fill-opacity="0.333333" stroke="#231F20" stroke-width="10" stroke-linejoin="round"/>
<path d="M1417 321V401H1497V321H1417Z" fill="#F8F3E9" fill-opacity="0.333333" stroke="#280049" stroke-width="10" stroke-linejoin="round"/>
<path d="M1523 321V401H1603V321H1523Z" fill="#F8F3E9" fill-opacity="0.333333" stroke="#280049" stroke-width="10" stroke-linejoin="round"/>
<path d="M1629 321V401H1709V321H1629Z" fill="#F8F3E9" fill-opacity="0.333333" stroke="#280049" stroke-width="10" stroke-linejoin="round"/>
<path d="M1652.26 364.625L1664.74 345.205V345.016H1654.04C1653.73 345.003 1653.44 344.869 1653.22 344.643C1653.01 344.416 1652.89 344.116 1652.9 343.805V342.215C1652.89 342.061 1652.92 341.906 1652.97 341.761C1653.03 341.616 1653.11 341.483 1653.21 341.37C1653.32 341.257 1653.45 341.167 1653.59 341.104C1653.73 341.042 1653.88 341.008 1654.04 341.006H1670.04C1670.25 340.985 1670.46 341.023 1670.65 341.115C1670.84 341.208 1671 341.351 1671.11 341.53C1671.23 341.708 1671.29 341.914 1671.29 342.125C1671.29 342.337 1671.24 342.544 1671.13 342.726L1658.97 362.266V362.465H1668.77C1668.93 362.458 1669.09 362.485 1669.24 362.542C1669.39 362.6 1669.52 362.688 1669.64 362.801C1669.75 362.913 1669.84 363.048 1669.9 363.197C1669.96 363.346 1669.99 363.506 1669.98 363.666V365.266C1669.98 365.586 1669.85 365.894 1669.63 366.121C1669.4 366.348 1669.09 366.476 1668.77 366.476H1653.49C1653.17 366.463 1652.87 366.332 1652.65 366.107C1652.42 365.883 1652.29 365.582 1652.28 365.266L1652.26 364.625Z" fill="#E7AA27" stroke="#E7AA27" stroke-width="4.25" stroke-miterlimit="10"/>
<path d="M1447.86 354.47L1439.78 343.65C1439.14 342.82 1439.52 342 1440.61 342H1443.28C1443.47 342.005 1443.66 342.053 1443.84 342.142C1444.01 342.23 1444.16 342.356 1444.28 342.51L1450.28 351.16H1450.34L1456.64 342.51C1456.76 342.357 1456.91 342.232 1457.08 342.143C1457.25 342.055 1457.44 342.006 1457.64 342H1460.32C1461.4 342 1461.78 342.82 1461.14 343.65L1453.06 354.41L1461.21 365.81C1461.78 366.63 1461.4 367.46 1460.38 367.46H1458.02C1457.83 367.436 1457.65 367.373 1457.48 367.275C1457.32 367.177 1457.18 367.046 1457.07 366.89L1450.32 357.53H1450.26L1443.73 366.91C1443.61 367.063 1443.46 367.188 1443.28 367.276C1443.11 367.364 1442.92 367.413 1442.73 367.42H1440.37C1439.29 367.42 1438.97 366.59 1439.54 365.77L1447.86 354.47Z" fill="#E7AA27" stroke="#E7AA27" stroke-width="4.25" stroke-miterlimit="10"/>
<path d="M1544.39 342.752C1544.06 342.312 1544.39 342.002 1545.21 342.002H1547.61C1547.78 341.992 1547.95 342.021 1548.11 342.087C1548.27 342.153 1548.41 342.254 1548.53 342.382L1556.61 352.802H1556.66L1564.3 342.382C1564.41 342.258 1564.56 342.16 1564.72 342.095C1564.87 342.029 1565.04 341.998 1565.22 342.002H1567.3C1568.11 342.002 1568.5 342.342 1568.11 342.792L1558.51 355.592L1558.44 366.352C1558.32 366.476 1558.17 366.576 1558.01 366.644C1557.85 366.713 1557.68 366.75 1557.51 366.752H1555.51C1554.69 366.752 1554.26 366.382 1554.64 365.902L1554.55 355.602L1544.39 342.752Z" fill="#E7AA27" stroke="#E7AA27" stroke-width="4.25" stroke-miterlimit="10"/>
<path d="M598.74 163.71C598.764 162.999 599.053 162.323 599.55 161.82C600.047 161.317 600.714 161.024 601.416 161H607.064C607.766 161.024 608.434 161.317 608.931 161.82C609.427 162.323 609.717 162.999 609.74 163.71V258.282C609.717 258.994 609.428 259.671 608.931 260.175C608.434 260.68 607.767 260.974 607.064 261H601.416C600.713 260.974 600.046 260.68 599.549 260.175C599.053 259.671 598.764 258.994 598.74 258.282V163.71Z" fill="#E7AA27" stroke="#E7AA27" stroke-width="9" stroke-miterlimit="10"/>
<path d="M647.747 162.561C647.781 161.866 648.081 161.211 648.584 160.734C649.086 160.257 649.753 159.994 650.444 160H653.991L718.092 240.401H718.375V164.148C718.377 163.428 718.663 162.737 719.17 162.229C719.677 161.72 720.363 161.434 721.079 161.434H726.036C726.745 161.458 727.418 161.751 727.92 162.255C728.422 162.759 728.715 163.435 728.74 164.148V260.425C728.712 261.124 728.413 261.784 727.908 262.265C727.403 262.746 726.732 263.01 726.036 263H723.478L658.243 181.062H658.098V258.852C658.099 259.209 658.03 259.562 657.895 259.893C657.76 260.223 657.561 260.523 657.311 260.776C657.06 261.028 656.762 261.229 656.435 261.366C656.107 261.503 655.756 261.573 655.401 261.573H650.444C649.734 261.549 649.06 261.255 648.558 260.75C648.056 260.244 647.764 259.566 647.74 258.852L647.747 162.561Z" fill="#231F20" stroke="#231F20" stroke-width="9" stroke-miterlimit="10"/>
<path d="M771.74 163.71C771.74 163.354 771.81 163.002 771.946 162.673C772.081 162.344 772.28 162.046 772.531 161.794C772.781 161.542 773.079 161.343 773.406 161.206C773.734 161.07 774.085 161 774.439 161H805.871C823.373 161 837.74 175.283 837.74 192.568C837.74 210.284 823.373 224.713 806.017 224.713H782.55V258.282C782.526 258.996 782.234 259.673 781.731 260.178C781.229 260.682 780.554 260.976 779.844 261H774.439C774.084 261 773.732 260.93 773.405 260.793C773.077 260.656 772.779 260.456 772.528 260.204C772.277 259.951 772.079 259.651 771.944 259.322C771.808 258.992 771.739 258.639 771.74 258.282V163.71ZM805.166 214.12C810.915 214.089 816.418 211.771 820.47 207.674C824.522 203.578 826.793 198.035 826.785 192.261C826.785 180.689 816.827 171.805 805.166 171.805H782.55V214.141L805.166 214.12Z" fill="#231F20" stroke="#231F20" stroke-width="9" stroke-miterlimit="10"/>
<path d="M868.74 163.726C868.764 163.01 869.058 162.331 869.563 161.825C870.069 161.319 870.747 161.024 871.461 161H876.91C877.632 161 878.325 161.287 878.837 161.798C879.348 162.309 879.636 163.002 879.638 163.726V223.634C879.638 240.018 889.818 252.802 906.597 252.802C923.516 252.802 933.842 240.312 933.842 223.928V163.726C933.844 163.002 934.132 162.309 934.644 161.798C935.155 161.287 935.848 161 936.57 161H942.019C942.733 161.024 943.412 161.319 943.917 161.825C944.422 162.331 944.716 163.01 944.74 163.726V224.501C944.74 246.337 929.259 263 906.605 263C884.09 263 868.748 246.337 868.748 224.501L868.74 163.726Z" fill="#231F20" stroke="#231F20" stroke-width="9" stroke-miterlimit="10"/>
<path d="M1000.29 170.57H975.458C975.101 170.571 974.747 170.502 974.417 170.366C974.087 170.229 973.787 170.029 973.534 169.777C973.282 169.524 973.081 169.224 972.945 168.894C972.809 168.564 972.739 168.21 972.74 167.853V163.71C972.74 163.354 972.811 163.001 972.947 162.671C973.084 162.342 973.284 162.043 973.537 161.791C973.789 161.54 974.089 161.34 974.418 161.204C974.748 161.068 975.101 160.999 975.458 161H1036.03C1036.75 161 1037.44 161.286 1037.95 161.794C1038.45 162.302 1038.74 162.992 1038.74 163.71V167.853C1038.74 168.209 1038.67 168.563 1038.54 168.892C1038.4 169.222 1038.2 169.522 1037.95 169.774C1037.7 170.026 1037.4 170.227 1037.07 170.363C1036.74 170.5 1036.39 170.57 1036.03 170.57H1011.19V258.282C1011.17 258.994 1010.88 259.671 1010.37 260.175C1009.87 260.68 1009.2 260.974 1008.48 261H1003.06C1002.34 260.976 1001.67 260.682 1001.16 260.178C1000.66 259.673 1000.36 258.996 1000.34 258.282L1000.29 170.57Z" fill="#231F20" stroke="#231F20" stroke-width="9" stroke-miterlimit="10"/>
<path d="M1157.09 160C1167.28 159.971 1177.25 162.964 1185.73 168.599C1194.22 174.234 1200.84 182.259 1204.76 191.658C1208.69 201.058 1209.74 211.411 1207.78 221.406C1205.82 231.402 1200.94 240.592 1193.76 247.815C1186.57 255.038 1177.41 259.968 1167.43 261.983C1157.44 263.997 1147.08 263.006 1137.66 259.134C1128.24 255.261 1120.18 248.682 1114.5 240.228C1108.82 231.774 1105.77 221.825 1105.74 211.639C1105.71 204.873 1107.01 198.167 1109.58 191.906C1112.15 185.645 1115.92 179.953 1120.69 175.155C1125.46 170.357 1131.14 166.549 1137.38 163.948C1143.63 161.348 1150.33 160.006 1157.09 160V160ZM1157.09 252.978C1179.84 252.978 1198.57 234.383 1198.57 211.639C1198.57 188.896 1179.84 170.015 1157.09 170.015C1134.35 170.015 1115.76 188.896 1115.76 211.639C1115.78 222.594 1120.15 233.092 1127.9 240.838C1135.64 248.585 1146.14 252.949 1157.09 252.978V252.978Z" fill="#E7AA27" stroke="#E7AA27" stroke-width="9" stroke-miterlimit="10"/>
<path d="M1242.74 163.726C1242.76 163.01 1243.06 162.331 1243.56 161.825C1244.07 161.319 1244.75 161.024 1245.46 161H1250.91C1251.27 160.999 1251.62 161.069 1251.95 161.205C1252.28 161.342 1252.58 161.543 1252.84 161.796C1253.09 162.049 1253.29 162.35 1253.43 162.681C1253.57 163.012 1253.64 163.367 1253.64 163.726V223.634C1253.64 240.018 1263.82 252.802 1280.59 252.802C1297.52 252.802 1307.84 240.312 1307.84 223.928V163.726C1307.84 163.002 1308.13 162.309 1308.64 161.798C1309.15 161.287 1309.84 161 1310.56 161H1316.01C1316.73 161.024 1317.41 161.318 1317.91 161.824C1318.42 162.33 1318.71 163.01 1318.74 163.726V224.501C1318.74 246.337 1303.25 263 1280.61 263C1258.1 263 1242.75 246.337 1242.75 224.501L1242.74 163.726Z" fill="#231F20" stroke="#231F20" stroke-width="9" stroke-miterlimit="10"/>
<path d="M1373.71 170.57H1348.5C1347.77 170.57 1347.07 170.284 1346.55 169.774C1346.03 169.265 1345.74 168.574 1345.74 167.853V163.71C1345.74 162.991 1346.03 162.302 1346.55 161.793C1347.07 161.285 1347.77 161 1348.5 161H1409.99C1410.72 161 1411.42 161.286 1411.93 161.794C1412.45 162.302 1412.74 162.992 1412.74 163.71V167.853C1412.74 168.209 1412.67 168.563 1412.53 168.892C1412.4 169.222 1412.19 169.522 1411.94 169.774C1411.68 170.026 1411.38 170.227 1411.04 170.363C1410.71 170.5 1410.35 170.57 1409.99 170.57H1384.77V258.282C1384.75 258.994 1384.45 259.671 1383.94 260.175C1383.43 260.68 1382.74 260.974 1382.02 261H1376.51C1375.79 260.976 1375.1 260.682 1374.59 260.178C1374.07 259.673 1373.78 258.996 1373.75 258.282L1373.71 170.57Z" fill="#231F20" stroke="#231F20" stroke-width="9" stroke-miterlimit="10"/>
<path d="M1441.74 163.71C1441.74 162.991 1442.03 162.302 1442.54 161.793C1443.04 161.285 1443.73 161 1444.45 161H1475.88C1493.34 161 1507.74 175.283 1507.74 192.568C1507.74 210.284 1493.37 224.713 1476.02 224.713H1452.55V258.282C1452.53 258.994 1452.23 259.671 1451.73 260.175C1451.23 260.68 1450.56 260.974 1449.85 261H1444.45C1444.09 261 1443.74 260.93 1443.41 260.793C1443.08 260.657 1442.78 260.456 1442.53 260.204C1442.28 259.952 1442.08 259.652 1441.95 259.322C1441.81 258.993 1441.74 258.639 1441.74 258.282V163.71ZM1475.2 214.12C1480.95 214.089 1486.45 211.771 1490.51 207.674C1494.56 203.578 1496.83 198.035 1496.82 192.261C1496.82 180.689 1486.86 171.805 1475.2 171.805H1452.58V214.141L1475.2 214.12Z" fill="#231F20" stroke="#231F20" stroke-width="9" stroke-miterlimit="10"/>
<path d="M1538.74 163.726C1538.77 163.01 1539.06 162.33 1539.57 161.824C1540.07 161.318 1540.75 161.024 1541.47 161H1546.92C1547.64 161 1548.33 161.287 1548.84 161.798C1549.35 162.309 1549.64 163.002 1549.64 163.726V223.634C1549.64 240.018 1559.82 252.802 1576.6 252.802C1593.52 252.802 1603.84 240.312 1603.84 223.928V163.726C1603.84 163.367 1603.91 163.012 1604.05 162.681C1604.19 162.35 1604.39 162.049 1604.64 161.796C1604.9 161.543 1605.2 161.342 1605.53 161.205C1605.86 161.069 1606.21 160.999 1606.57 161H1612.02C1612.73 161.024 1613.41 161.319 1613.92 161.825C1614.42 162.331 1614.72 163.01 1614.74 163.726V224.501C1614.74 246.337 1599.25 263 1576.61 263C1554.1 263 1538.75 246.337 1538.75 224.501L1538.74 163.726Z" fill="#231F20" stroke="#231F20" stroke-width="9" stroke-miterlimit="10"/>
<path d="M1670.29 170.57H1645.45C1645.09 170.57 1644.74 170.5 1644.41 170.363C1644.08 170.227 1643.78 170.026 1643.53 169.774C1643.28 169.522 1643.08 169.222 1642.94 168.892C1642.81 168.563 1642.74 168.209 1642.74 167.853V163.71C1642.74 162.992 1643.03 162.302 1643.53 161.794C1644.04 161.286 1644.73 161 1645.45 161H1706.02C1706.74 161 1707.43 161.285 1707.94 161.793C1708.45 162.302 1708.74 162.991 1708.74 163.71V167.853C1708.74 168.574 1708.45 169.265 1707.94 169.774C1707.43 170.284 1706.74 170.57 1706.02 170.57H1681.18V258.282C1681.16 258.996 1680.87 259.673 1680.36 260.178C1679.86 260.682 1679.18 260.976 1678.47 261H1673.04C1672.33 260.974 1671.65 260.68 1671.15 260.175C1670.64 259.671 1670.35 258.994 1670.33 258.282L1670.29 170.57Z" fill="#231F20" stroke="#231F20" stroke-width="9" stroke-miterlimit="10"/>
<path d="M262.83 523.555C262.275 523.556 261.731 523.411 261.25 523.135L45.5297 399.135C45.045 398.858 44.6419 398.458 44.361 397.975C44.0802 397.492 43.9314 396.944 43.9297 396.385V147.385C43.9321 146.829 44.0802 146.284 44.3592 145.803C44.6382 145.323 45.0383 144.923 45.5197 144.645L261.52 19.6453C262.003 19.3652 262.551 19.2178 263.11 19.2178C263.668 19.2178 264.217 19.3652 264.7 19.6453L479.95 144.385C480.431 144.665 480.831 145.066 481.108 145.549C481.386 146.031 481.531 146.579 481.53 147.135V396.285C481.53 396.843 481.383 397.391 481.104 397.874C480.825 398.357 480.423 398.757 479.94 399.035L264.41 523.135C263.929 523.411 263.384 523.556 262.83 523.555V523.555ZM50.2797 394.555L262.83 516.745L475.22 394.425V148.955L263.09 26.0654L50.2797 149.185V394.555Z" fill="#E7AA27" stroke="#E7AA27" stroke-width="9" stroke-miterlimit="10"/>
<path d="M319.94 497.812C319.577 497.602 319.274 497.3 319.064 496.937C318.853 496.574 318.742 496.162 318.74 495.742V306.392C318.74 305.971 318.85 305.559 319.061 305.195C319.272 304.831 319.575 304.53 319.94 304.322L484.09 209.322C484.453 209.111 484.866 209 485.285 209C485.705 209 486.117 209.111 486.48 209.322C486.845 209.533 487.147 209.837 487.358 210.202C487.568 210.567 487.679 210.98 487.68 211.402V400.962C487.681 401.383 487.571 401.798 487.36 402.163C487.15 402.529 486.846 402.832 486.48 403.042L322.33 497.812C321.967 498.021 321.555 498.132 321.135 498.132C320.716 498.132 320.304 498.021 319.94 497.812V497.812Z" fill="#FFE5B1" fill-opacity="0.333333" stroke="#231F20" stroke-width="15" stroke-miterlimit="10"/>
<path d="M204.29 498.112C203.869 498.116 203.454 498.005 203.09 497.792L38.9403 403.022C38.5745 402.812 38.2708 402.509 38.0601 402.143C37.8493 401.778 37.739 401.364 37.7402 400.942V211.402C37.741 210.98 37.8522 210.567 38.0628 210.202C38.2733 209.837 38.5759 209.533 38.9403 209.322C39.3032 209.111 39.7155 209 40.1353 209C40.555 209 40.9672 209.111 41.3302 209.322L205.49 304.322C205.853 304.532 206.153 304.834 206.362 305.198C206.571 305.561 206.681 305.973 206.68 306.392V495.722C206.679 496.142 206.567 496.554 206.357 496.917C206.146 497.28 205.844 497.582 205.48 497.792C205.12 498.004 204.709 498.115 204.29 498.112V498.112Z" fill="#FFE5B1" fill-opacity="0.333333" stroke="#231F20" stroke-width="15" stroke-miterlimit="10"/>
<path d="M263.73 202.456C263.308 202.458 262.894 202.348 262.53 202.136L98.3796 107.136C98.0164 106.925 97.7149 106.622 97.5054 106.258C97.2958 105.893 97.1855 105.481 97.1855 105.061C97.1855 104.641 97.2958 104.228 97.5054 103.864C97.7149 103.5 98.0164 103.197 98.3796 102.986L262.69 8.31567C263.054 8.1088 263.466 8 263.885 8C264.304 8 264.715 8.1088 265.08 8.31567L429.08 102.986C429.445 103.195 429.749 103.497 429.961 103.861C430.172 104.226 430.284 104.639 430.284 105.061C430.284 105.482 430.172 105.896 429.961 106.26C429.749 106.625 429.445 106.927 429.08 107.136L264.93 202.136C264.566 202.349 264.151 202.46 263.73 202.456Z" fill="#FFE5B1" fill-opacity="0.333333" stroke="#231F20" stroke-width="15" stroke-miterlimit="10"/>
<path d="M125.93 350.272L262.49 428.218L398.93 350.195V193.609L262.661 115.218L125.93 193.764V350.272Z" fill="#1E0638"/>
<path d="M254.29 466.085C253.869 466.09 253.454 465.979 253.09 465.765L88.9403 370.995C88.5745 370.785 88.2708 370.482 88.0601 370.117C87.8493 369.752 87.739 369.337 87.7402 368.915V179.375C87.741 178.954 87.8522 178.54 88.0628 178.175C88.2733 177.81 88.5759 177.507 88.9403 177.295C89.3032 177.085 89.7155 176.974 90.1353 176.974C90.555 176.974 90.9672 177.085 91.3302 177.295L255.49 272.295C255.853 272.506 256.153 272.808 256.362 273.171C256.571 273.534 256.681 273.946 256.68 274.365V463.695C256.679 464.115 256.567 464.527 256.357 464.891C256.146 465.254 255.844 465.555 255.48 465.765C255.12 465.978 254.709 466.088 254.29 466.085V466.085Z" fill="#F8F3E9" fill-opacity="0.333333" stroke="#280049" stroke-width="15" stroke-miterlimit="10"/>
<path d="M269.389 462.766C269.026 462.556 268.724 462.254 268.513 461.891C268.303 461.528 268.191 461.116 268.189 460.696V271.346C268.189 270.926 268.3 270.513 268.51 270.149C268.721 269.785 269.024 269.484 269.389 269.276L433.539 174.276C433.902 174.065 434.315 173.954 434.734 173.954C435.154 173.954 435.566 174.065 435.929 174.276C436.294 174.487 436.596 174.791 436.807 175.156C437.018 175.521 437.129 175.934 437.129 176.356V365.916C437.131 366.338 437.02 366.752 436.81 367.117C436.599 367.483 436.295 367.786 435.929 367.996L271.779 462.766C271.416 462.976 271.004 463.086 270.584 463.086C270.165 463.086 269.753 462.976 269.389 462.766V462.766Z" fill="#F8F3E9" fill-opacity="0.333333" stroke="#280049" stroke-width="15" stroke-miterlimit="10"/>
<path d="M260.73 268.456C260.308 268.458 259.894 268.348 259.53 268.136L95.3796 173.136C95.0164 172.925 94.7149 172.622 94.5054 172.258C94.2958 171.893 94.1855 171.481 94.1855 171.061C94.1855 170.641 94.2958 170.228 94.5054 169.864C94.7149 169.5 95.0164 169.197 95.3796 168.986L259.69 74.3157C260.054 74.1088 260.466 74 260.885 74C261.304 74 261.715 74.1088 262.08 74.3157L426.08 168.986C426.445 169.195 426.749 169.497 426.961 169.861C427.172 170.226 427.284 170.639 427.284 171.061C427.284 171.482 427.172 171.896 426.961 172.26C426.749 172.625 426.445 172.927 426.08 173.136L261.93 268.136C261.566 268.349 261.151 268.46 260.73 268.456Z" fill="#F8F3E9" fill-opacity="0.333333" stroke="#280049" stroke-width="15" stroke-miterlimit="10"/>
<path d="M259.54 565.238C259.119 565.241 258.704 565.13 258.34 564.918L94.1901 469.918C93.8269 469.707 93.5255 469.404 93.3159 469.04C93.1064 468.676 92.9961 468.263 92.9961 467.843C92.9961 467.423 93.1064 467.01 93.3159 466.646C93.5255 466.282 93.8269 465.979 94.1901 465.768L258.5 371.098C258.864 370.891 259.276 370.782 259.695 370.782C260.114 370.782 260.526 370.891 260.89 371.098L424.89 465.768C425.256 465.977 425.56 466.279 425.771 466.643C425.983 467.008 426.094 467.422 426.094 467.843C426.094 468.264 425.983 468.678 425.771 469.042C425.56 469.407 425.256 469.709 424.89 469.918L260.74 564.918C260.377 565.132 259.962 565.242 259.54 565.238Z" fill="#F8F3E9" fill-opacity="0.333333" stroke="#280049" stroke-width="15" stroke-miterlimit="10"/>
<path d="M9.20001 313.548C8.83641 313.338 8.53421 313.036 8.32364 312.673C8.11307 312.31 8.00148 311.897 8 311.478V122.128C7.99945 121.707 8.11018 121.294 8.32096 120.931C8.53173 120.567 8.83504 120.266 9.20001 120.058L173.35 25.0576C173.713 24.8468 174.125 24.7358 174.545 24.7358C174.965 24.7358 175.377 24.8468 175.74 25.0576C176.104 25.2691 176.407 25.5725 176.618 25.9374C176.828 26.3024 176.939 26.7162 176.94 27.1376V216.698C176.941 217.119 176.831 217.534 176.62 217.899C176.409 218.265 176.106 218.568 175.74 218.778L11.59 313.548C11.2267 313.757 10.8145 313.868 10.395 313.868C9.97546 313.868 9.56334 313.757 9.20001 313.548V313.548Z" fill="#F8F3E9" fill-opacity="0.333333" stroke="#280049" stroke-width="15" stroke-miterlimit="10"/>
<path d="M349.2 23.3201C348.836 23.5301 348.534 23.8317 348.324 24.1949C348.113 24.5581 348.001 24.9703 348 25.3901V214.74C347.999 215.16 348.11 215.573 348.321 215.937C348.532 216.3 348.835 216.602 349.2 216.81L513.35 311.81C513.713 312.021 514.125 312.132 514.545 312.132C514.965 312.132 515.377 312.021 515.74 311.81C516.104 311.599 516.407 311.295 516.618 310.93C516.828 310.565 516.939 310.151 516.94 309.73V120.17C516.941 119.748 516.831 119.334 516.62 118.968C516.409 118.603 516.106 118.3 515.74 118.09L351.59 23.3201C351.227 23.1104 350.815 22.9999 350.395 22.9999C349.975 22.9999 349.563 23.1104 349.2 23.3201V23.3201Z" fill="#F8F3E9" fill-opacity="0.333333" stroke="#280049" stroke-width="15" stroke-miterlimit="10"/>
</svg>
