<svg width="525" height="573" viewBox="0 0 525 573" fill="none" xmlns="http://www.w3.org/2000/svg">
<path d="M262.83 523.555C262.275 523.556 261.731 523.411 261.25 523.135L45.5297 399.135C45.045 398.858 44.6419 398.458 44.361 397.975C44.0802 397.492 43.9314 396.944 43.9297 396.385V147.385C43.9321 146.829 44.0802 146.284 44.3592 145.803C44.6382 145.323 45.0383 144.923 45.5197 144.645L261.52 19.6453C262.003 19.3652 262.551 19.2178 263.11 19.2178C263.668 19.2178 264.217 19.3652 264.7 19.6453L479.95 144.385C480.431 144.665 480.831 145.066 481.108 145.549C481.386 146.031 481.531 146.579 481.53 147.135V396.285C481.53 396.843 481.383 397.391 481.104 397.874C480.825 398.357 480.423 398.757 479.94 399.035L264.41 523.135C263.929 523.411 263.384 523.556 262.83 523.555V523.555ZM50.2797 394.555L262.83 516.745L475.22 394.425V148.955L263.09 26.0654L50.2797 149.185V394.555Z" fill="#E7AA27" stroke="#E7AA27" stroke-width="9" stroke-miterlimit="10"/>
<path d="M319.94 497.812C319.577 497.602 319.274 497.3 319.064 496.937C318.853 496.574 318.742 496.162 318.74 495.742V306.392C318.74 305.971 318.85 305.559 319.061 305.195C319.272 304.831 319.575 304.53 319.94 304.322L484.09 209.322C484.453 209.111 484.866 209 485.285 209C485.705 209 486.117 209.111 486.48 209.322C486.845 209.533 487.147 209.837 487.358 210.202C487.568 210.567 487.679 210.98 487.68 211.402V400.962C487.681 401.383 487.571 401.798 487.36 402.163C487.15 402.529 486.846 402.832 486.48 403.042L322.33 497.812C321.967 498.021 321.555 498.132 321.135 498.132C320.716 498.132 320.304 498.021 319.94 497.812V497.812Z" fill="#FFE5B1" fill-opacity="0.333333" stroke="#231F20" stroke-width="15" stroke-miterlimit="10"/>
<path d="M204.29 498.112C203.869 498.116 203.454 498.005 203.09 497.792L38.9403 403.022C38.5745 402.812 38.2708 402.509 38.0601 402.143C37.8493 401.778 37.739 401.364 37.7402 400.942V211.402C37.741 210.98 37.8522 210.567 38.0628 210.202C38.2733 209.837 38.5759 209.533 38.9403 209.322C39.3032 209.111 39.7155 209 40.1353 209C40.555 209 40.9672 209.111 41.3302 209.322L205.49 304.322C205.853 304.532 206.153 304.834 206.362 305.198C206.571 305.561 206.681 305.973 206.68 306.392V495.722C206.679 496.142 206.567 496.554 206.357 496.917C206.146 497.28 205.844 497.582 205.48 497.792C205.12 498.004 204.709 498.115 204.29 498.112V498.112Z" fill="#FFE5B1" fill-opacity="0.333333" stroke="#231F20" stroke-width="15" stroke-miterlimit="10"/>
<path d="M263.73 202.456C263.308 202.458 262.894 202.348 262.53 202.136L98.3796 107.136C98.0164 106.925 97.7149 106.622 97.5054 106.258C97.2958 105.893 97.1855 105.481 97.1855 105.061C97.1855 104.641 97.2958 104.228 97.5054 103.864C97.7149 103.5 98.0164 103.197 98.3796 102.986L262.69 8.31567C263.054 8.1088 263.466 8 263.885 8C264.304 8 264.715 8.1088 265.08 8.31567L429.08 102.986C429.445 103.195 429.749 103.497 429.961 103.861C430.172 104.226 430.284 104.639 430.284 105.061C430.284 105.482 430.172 105.896 429.961 106.26C429.749 106.625 429.445 106.927 429.08 107.136L264.93 202.136C264.566 202.349 264.151 202.46 263.73 202.456Z" fill="#FFE5B1" fill-opacity="0.333333" stroke="#231F20" stroke-width="15" stroke-miterlimit="10"/>
<path d="M125.93 350.272L262.49 428.218L398.93 350.195V193.609L262.661 115.218L125.93 193.764V350.272Z" fill="#1E0638"/>
<path d="M254.29 466.085C253.869 466.09 253.454 465.979 253.09 465.765L88.9403 370.995C88.5745 370.785 88.2708 370.482 88.0601 370.117C87.8493 369.752 87.739 369.337 87.7402 368.915V179.375C87.741 178.954 87.8522 178.54 88.0628 178.175C88.2733 177.81 88.5759 177.507 88.9403 177.295C89.3032 177.085 89.7155 176.974 90.1353 176.974C90.555 176.974 90.9672 177.085 91.3302 177.295L255.49 272.295C255.853 272.506 256.153 272.808 256.362 273.171C256.571 273.534 256.681 273.946 256.68 274.365V463.695C256.679 464.115 256.567 464.527 256.357 464.891C256.146 465.254 255.844 465.555 255.48 465.765C255.12 465.978 254.709 466.088 254.29 466.085V466.085Z" fill="#F8F3E9" fill-opacity="0.333333" stroke="#280049" stroke-width="15" stroke-miterlimit="10"/>
<path d="M269.389 462.766C269.026 462.556 268.724 462.254 268.513 461.891C268.303 461.528 268.191 461.116 268.189 460.696V271.346C268.189 270.926 268.3 270.513 268.51 270.149C268.721 269.785 269.024 269.484 269.389 269.276L433.539 174.276C433.902 174.065 434.315 173.954 434.734 173.954C435.154 173.954 435.566 174.065 435.929 174.276C436.294 174.487 436.596 174.791 436.807 175.156C437.018 175.521 437.129 175.934 437.129 176.356V365.916C437.131 366.338 437.02 366.752 436.81 367.117C436.599 367.483 436.295 367.786 435.929 367.996L271.779 462.766C271.416 462.976 271.004 463.086 270.584 463.086C270.165 463.086 269.753 462.976 269.389 462.766V462.766Z" fill="#F8F3E9" fill-opacity="0.333333" stroke="#280049" stroke-width="15" stroke-miterlimit="10"/>
<path d="M260.73 268.456C260.308 268.458 259.894 268.348 259.53 268.136L95.3796 173.136C95.0164 172.925 94.7149 172.622 94.5054 172.258C94.2958 171.893 94.1855 171.481 94.1855 171.061C94.1855 170.641 94.2958 170.228 94.5054 169.864C94.7149 169.5 95.0164 169.197 95.3796 168.986L259.69 74.3157C260.054 74.1088 260.466 74 260.885 74C261.304 74 261.715 74.1088 262.08 74.3157L426.08 168.986C426.445 169.195 426.749 169.497 426.961 169.861C427.172 170.226 427.284 170.639 427.284 171.061C427.284 171.482 427.172 171.896 426.961 172.26C426.749 172.625 426.445 172.927 426.08 173.136L261.93 268.136C261.566 268.349 261.151 268.46 260.73 268.456Z" fill="#F8F3E9" fill-opacity="0.333333" stroke="#280049" stroke-width="15" stroke-miterlimit="10"/>
<path d="M259.54 565.238C259.119 565.241 258.704 565.13 258.34 564.918L94.1901 469.918C93.8269 469.707 93.5255 469.404 93.3159 469.04C93.1064 468.676 92.9961 468.263 92.9961 467.843C92.9961 467.423 93.1064 467.01 93.3159 466.646C93.5255 466.282 93.8269 465.979 94.1901 465.768L258.5 371.098C258.864 370.891 259.276 370.782 259.695 370.782C260.114 370.782 260.526 370.891 260.89 371.098L424.89 465.768C425.256 465.977 425.56 466.279 425.771 466.643C425.983 467.008 426.094 467.422 426.094 467.843C426.094 468.264 425.983 468.678 425.771 469.042C425.56 469.407 425.256 469.709 424.89 469.918L260.74 564.918C260.377 565.132 259.962 565.242 259.54 565.238Z" fill="#F8F3E9" fill-opacity="0.333333" stroke="#280049" stroke-width="15" stroke-miterlimit="10"/>
<path d="M9.20001 313.548C8.83641 313.338 8.53421 313.036 8.32364 312.673C8.11307 312.31 8.00148 311.897 8 311.478V122.128C7.99945 121.707 8.11018 121.294 8.32096 120.931C8.53173 120.567 8.83504 120.266 9.20001 120.058L173.35 25.0576C173.713 24.8468 174.125 24.7358 174.545 24.7358C174.965 24.7358 175.377 24.8468 175.74 25.0576C176.104 25.2691 176.407 25.5725 176.618 25.9374C176.828 26.3024 176.939 26.7162 176.94 27.1376V216.698C176.941 217.119 176.831 217.534 176.62 217.899C176.409 218.265 176.106 218.568 175.74 218.778L11.59 313.548C11.2267 313.757 10.8145 313.868 10.395 313.868C9.97546 313.868 9.56334 313.757 9.20001 313.548V313.548Z" fill="#F8F3E9" fill-opacity="0.333333" stroke="#280049" stroke-width="15" stroke-miterlimit="10"/>
<path d="M349.2 23.3201C348.836 23.5301 348.534 23.8317 348.324 24.1949C348.113 24.5581 348.001 24.9703 348 25.3901V214.74C347.999 215.16 348.11 215.573 348.321 215.937C348.532 216.3 348.835 216.602 349.2 216.81L513.35 311.81C513.713 312.021 514.125 312.132 514.545 312.132C514.965 312.132 515.377 312.021 515.74 311.81C516.104 311.599 516.407 311.295 516.618 310.93C516.828 310.565 516.939 310.151 516.94 309.73V120.17C516.941 119.748 516.831 119.334 516.62 118.968C516.409 118.603 516.106 118.3 515.74 118.09L351.59 23.3201C351.227 23.1104 350.815 22.9999 350.395 22.9999C349.975 22.9999 349.563 23.1104 349.2 23.3201V23.3201Z" fill="#F8F3E9" fill-opacity="0.333333" stroke="#280049" stroke-width="15" stroke-miterlimit="10"/>
</svg>
